<svg width="450" height="293" viewBox="0 0 450 293" fill="none" xmlns="http://www.w3.org/2000/svg">
<g filter="url(#filter0_d_523_384)">
<g clip-path="url(#clip0_523_384)">
<rect x="12" y="8" width="426" height="268.639" rx="12" fill="url(#paint0_linear_523_384)"/>
<path opacity="0.1" d="M248.5 122.5C182.238 35.5 106.667 -2.5 68.5 -22L-20 -15.5V325H318.5C328 271 314.762 209.5 248.5 122.5Z" fill="url(#paint1_linear_523_384)"/>
<path d="M329.476 40.2391V43.9119H327.362V41.7799H315.86V43.9119H313.836V40.2391H315.215L314.875 34.6135L316.039 34.8464C316.457 34.7151 316.887 34.5598 317.329 34.3806C317.783 34.2015 318.165 34.0462 318.476 33.9148L319.461 35.0614C319.079 35.2406 318.667 35.4078 318.225 35.5631C317.783 35.7064 317.353 35.8318 316.935 35.9393L316.953 36.3514H319.318V37.6772H317.025L317.06 38.2863H319.372V39.1642C319.802 38.9492 320.214 38.7163 320.608 38.4655C320.441 38.3699 320.273 38.2744 320.106 38.1788C319.951 38.0833 319.796 37.9877 319.64 37.8921L320.626 37.0859C320.96 37.2531 321.306 37.4443 321.665 37.6592C321.94 37.4084 322.16 37.1636 322.328 36.9247L323.707 37.3368C323.576 37.5159 323.433 37.6951 323.277 37.8742C323.134 38.0414 322.973 38.2087 322.794 38.3759C323.188 38.6625 323.51 38.9193 323.761 39.1463L322.686 40.0421C322.579 39.9226 322.447 39.7972 322.292 39.6658C322.137 39.5344 321.963 39.3971 321.772 39.2538C321.521 39.4449 321.265 39.624 321.002 39.7912C320.751 39.9465 320.506 40.0898 320.267 40.2212C320.172 40.1257 320.04 40.0062 319.873 39.8629C319.706 39.7076 319.539 39.5703 319.372 39.4508V39.6121H317.132L317.168 40.2391H326.108L326.162 39.6121H324.03V38.2863H326.287L326.323 37.6772H324.083V36.3514H326.413L326.448 35.7422H324.012V34.3986H328.527C328.503 34.8763 328.473 35.372 328.437 35.8856C328.413 36.3872 328.383 36.8948 328.347 37.4084C328.312 37.9101 328.276 38.4057 328.24 38.8954C328.204 39.3732 328.162 39.8211 328.115 40.2391H329.476ZM322.543 36.9247C322.328 36.6978 322.047 36.4529 321.701 36.1901C321.199 36.5365 320.721 36.8351 320.267 37.0859L320.232 37.0501L320.196 37.0143C320.196 37.0143 320.19 37.0083 320.178 36.9964L320.142 36.9605L320.106 36.9247C320.094 36.9127 320.088 36.9068 320.088 36.9068L320.052 36.8709C320.052 36.8709 320.052 36.865 320.052 36.853C319.957 36.7694 319.855 36.6858 319.748 36.6022C319.64 36.5067 319.533 36.4171 319.425 36.3335C319.318 36.2499 319.222 36.1782 319.139 36.1185C319.652 35.9154 320.118 35.6766 320.536 35.4018C320.369 35.3063 320.208 35.2167 320.052 35.1331C319.897 35.0376 319.742 34.948 319.587 34.8644L320.572 34.0402C320.906 34.2074 321.253 34.3986 321.611 34.6135C321.85 34.3986 322.059 34.1716 322.238 33.9327L323.618 34.3448C323.355 34.7031 323.056 35.0316 322.722 35.3302C322.889 35.4616 323.044 35.587 323.188 35.7064C323.343 35.8139 323.474 35.9154 323.582 36.011L322.543 36.9247ZM326.251 43.5177C325.797 43.8761 325.302 44.2344 324.764 44.5927C324.239 44.951 323.701 45.2854 323.152 45.596H329.44V47.2622H322.668V48.57C322.668 49.0717 322.602 49.4479 322.471 49.6987C322.352 49.9495 322.101 50.1406 321.719 50.272C321.36 50.4154 320.93 50.499 320.429 50.5229C319.939 50.5467 319.354 50.5587 318.673 50.5587C318.613 50.284 318.518 49.9794 318.386 49.645C318.255 49.3105 318.123 49.0179 317.992 48.7671C318.207 48.779 318.428 48.791 318.655 48.8029C318.894 48.8029 319.121 48.8029 319.336 48.8029H319.389C319.413 48.8029 319.431 48.8029 319.443 48.8029H319.461C319.461 48.8029 319.467 48.8029 319.479 48.8029H319.497C319.509 48.8029 319.515 48.8029 319.515 48.8029H319.551C319.563 48.8029 319.569 48.8029 319.569 48.8029H319.604C319.604 48.8029 319.61 48.8029 319.622 48.8029H319.802C319.813 48.8029 319.819 48.8029 319.819 48.8029H319.927C319.939 48.8029 319.951 48.8029 319.963 48.8029C319.975 48.8029 319.981 48.8029 319.981 48.8029H319.999C319.999 48.8029 320.005 48.8029 320.017 48.8029H320.034C320.034 48.8029 320.04 48.8029 320.052 48.8029H320.07H320.178C320.178 48.8029 320.184 48.8029 320.196 48.8029H320.214C320.357 48.791 320.452 48.7671 320.5 48.7313C320.56 48.6954 320.59 48.6178 320.59 48.4984V47.2622H313.836V45.596H320.59V44.7719H321.647C321.838 44.6644 322.029 44.5509 322.22 44.4314C322.411 44.3001 322.596 44.1687 322.776 44.0373H317.007V42.5503H324.621L325.069 42.4428L326.251 43.5177ZM350.33 47.9609V50.057H334.224V47.9609H341.139V44.3598H336.284V42.2995H341.139V39.1463H337.431C337.168 39.6479 336.899 40.1197 336.625 40.5616C336.35 41.0035 336.063 41.3977 335.765 41.7441C335.657 41.6605 335.52 41.5589 335.353 41.4395C335.197 41.3201 335.03 41.2006 334.851 41.0812C334.672 40.9617 334.493 40.8483 334.313 40.7408C334.134 40.6333 333.979 40.5437 333.848 40.472C334.194 40.0898 334.522 39.6599 334.833 39.1821C335.155 38.6924 335.454 38.1728 335.729 37.6234C336.003 37.062 336.248 36.4828 336.463 35.8856C336.678 35.2764 336.863 34.6673 337.019 34.0581L339.222 34.5419C339.091 34.9719 338.954 35.3959 338.81 35.8139C338.679 36.2319 338.536 36.65 338.38 37.068H341.139V33.8432H343.379V37.068H349.417V39.1463H343.379V42.2995H348.736V44.3598H343.379V47.9609H350.33ZM359.646 34.4344C359.455 35.0077 359.246 35.587 359.019 36.1722C358.792 36.7575 358.548 37.3368 358.285 37.9101V50.5408H356.26V41.5828C355.89 42.1442 355.52 42.6339 355.15 43.0519C355.114 42.9205 355.054 42.7593 354.97 42.5682C354.887 42.3651 354.797 42.1561 354.702 41.9411C354.606 41.7142 354.505 41.4992 354.397 41.2962C354.302 41.0812 354.212 40.902 354.128 40.7587C354.487 40.3407 354.833 39.8689 355.168 39.3433C355.514 38.8178 355.836 38.2564 356.135 37.6592C356.446 37.062 356.732 36.441 356.995 35.796C357.258 35.151 357.485 34.5001 357.676 33.8432L359.646 34.4344ZM369.876 46.241C369.315 47.089 368.509 47.8176 367.458 48.4267C368.067 48.5461 368.694 48.6477 369.339 48.7313C369.996 48.8029 370.683 48.8567 371.399 48.8925C371.196 49.1075 370.993 49.3762 370.79 49.6987C370.587 50.0331 370.42 50.3317 370.289 50.5945C369.309 50.499 368.383 50.3616 367.512 50.1824C366.64 50.0033 365.827 49.7704 365.075 49.4837C364.346 49.7346 363.552 49.9555 362.692 50.1466C361.844 50.3377 360.936 50.499 359.969 50.6303C359.873 50.3915 359.724 50.1227 359.521 49.8241C359.33 49.5375 359.139 49.2926 358.948 49.0896C359.7 49.0179 360.411 48.9283 361.08 48.8208C361.749 48.7014 362.382 48.576 362.979 48.4446C362.537 48.158 362.125 47.8355 361.743 47.4771C361.492 47.6085 361.229 47.7339 360.954 47.8534C360.68 47.9609 360.393 48.0743 360.094 48.1938C359.963 47.9907 359.784 47.7578 359.557 47.4951C359.33 47.2323 359.121 47.0352 358.93 46.9038C359.861 46.6291 360.674 46.3186 361.366 45.9722C362.071 45.6139 362.65 45.2377 363.104 44.8435C362.913 44.736 362.782 44.5867 362.71 44.3956C362.638 44.1926 362.597 43.9358 362.585 43.6252C362.346 43.9358 362.083 44.2463 361.796 44.5569C361.51 44.8674 361.199 45.1421 360.865 45.381L359.611 44.3777C359.778 44.2821 359.939 44.1747 360.094 44.0552C360.25 43.9358 360.399 43.8104 360.542 43.679H359.199V41.117H360.829V36.6918H363.785C363.809 36.5962 363.833 36.4947 363.857 36.3872V36.3693C363.857 36.3574 363.863 36.3394 363.875 36.3156C363.875 36.2917 363.881 36.2737 363.893 36.2618V36.2439C363.893 36.2319 363.893 36.214 363.893 36.1901H363.91C363.91 36.1663 363.91 36.1483 363.91 36.1364V36.1185C363.922 36.1065 363.928 36.0886 363.928 36.0647H359.826V34.5419H370.808V36.0647H366.132L365.845 36.6918H369.679V41.117H371.184V43.679H370.056C370.199 43.8462 370.33 44.0074 370.45 44.1627C370.581 44.318 370.689 44.4613 370.772 44.5927L369.393 45.3272C369.273 45.1242 369.112 44.8973 368.909 44.6464C368.706 44.3837 368.485 44.1269 368.246 43.8761C368.163 44.3299 368.001 44.6464 367.762 44.8256C367.535 44.9928 367.165 45.0764 366.652 45.0764H365.147C364.968 45.2795 364.788 45.4527 364.609 45.596H368.246L368.604 45.5243L369.876 46.241ZM362.728 37.7309V38.2684H367.691V37.7309H362.728ZM367.691 39.1283H362.728V39.7017H367.691V39.1283ZM362.728 41.117H367.691V40.5616H362.728V41.117ZM364.251 42.6219V43.5177C364.251 43.7088 364.287 43.8283 364.358 43.8761C364.442 43.9238 364.603 43.9477 364.842 43.9477H366.419C366.598 43.9477 366.717 43.9119 366.777 43.8402C366.849 43.7686 366.902 43.6013 366.938 43.3386C367.07 43.4102 367.243 43.4819 367.458 43.5536C367.685 43.6252 367.9 43.679 368.103 43.7148L368.049 43.6611L368.013 43.6252C368.001 43.6133 367.995 43.6073 367.995 43.6073L367.959 43.5715C367.959 43.5715 367.953 43.5655 367.942 43.5536L367.906 43.5177L367.852 43.464C367.768 43.3804 367.685 43.3027 367.601 43.2311L368.909 42.5682C368.969 42.6279 369.028 42.6876 369.088 42.7474C369.16 42.7951 369.226 42.8489 369.285 42.9086V42.3353H366.186C366.46 42.5742 366.687 42.813 366.867 43.0519L365.577 43.8223C365.433 43.5834 365.218 43.3326 364.932 43.0698C364.657 42.7951 364.376 42.5503 364.09 42.3353H361.008V43.1953C361.187 42.9922 361.337 42.8071 361.456 42.6399L362.585 43.249V42.6219H364.251ZM363.409 46.7963C363.648 46.9874 363.916 47.1666 364.215 47.3338C364.514 47.4891 364.836 47.6324 365.182 47.7638C365.887 47.4891 366.49 47.1666 366.992 46.7963H363.409ZM382.185 36.3514H375.681V34.6852H382.185V33.8252H384.388V34.6852H391.071V36.3514H384.388V37.1397H389.853V42.4428H388.079C388.676 42.7772 389.261 43.1475 389.835 43.5536C390.408 43.9597 390.868 44.3299 391.214 44.6644L389.727 45.811C389.608 45.6796 389.476 45.5542 389.333 45.4347C389.202 45.3034 389.052 45.166 388.885 45.0227C388.025 45.0466 387.165 45.0645 386.305 45.0764C385.445 45.0884 384.591 45.1063 383.743 45.1302C384.161 45.4049 384.562 45.6975 384.944 46.008C385.338 46.3066 385.654 46.5873 385.893 46.8501L384.442 48.0863C384.311 47.9191 384.143 47.7399 383.94 47.5488C383.737 47.3577 383.51 47.1666 383.26 46.9755C383.021 46.7725 382.77 46.5814 382.507 46.4022C382.256 46.2111 382.011 46.0379 381.773 45.8826L382.704 45.1481C381.402 45.172 380.166 45.1899 378.996 45.2018C377.837 45.2138 376.792 45.2257 375.86 45.2377L375.771 43.4461C376.631 43.458 377.604 43.464 378.691 43.464C379.79 43.464 380.954 43.458 382.185 43.4461V42.4428H376.756V37.1397H382.185V36.3514ZM384.388 38.3759V39.2H387.739V38.3759H384.388ZM378.763 39.2H382.185V38.3759H378.763V39.2ZM384.388 41.1887H387.739V40.3645H384.388V41.1887ZM382.185 41.1887V40.3645H378.763V41.1887H382.185ZM386.628 43.4282C386.484 43.3446 386.341 43.2669 386.198 43.1953C386.066 43.1236 385.935 43.0519 385.804 42.9803L386.61 42.4428H384.388V43.4461L386.628 43.4282ZM375.144 49C375.49 48.582 375.807 48.0863 376.093 47.513C376.392 46.9277 376.625 46.3604 376.792 45.811L378.637 46.5634C378.434 47.1367 378.195 47.7459 377.921 48.3909C377.646 49.0239 377.335 49.5733 376.989 50.0391L375.144 49ZM389.62 45.9006C389.823 46.1633 390.02 46.45 390.211 46.7605C390.414 47.0591 390.599 47.3637 390.766 47.6742C390.934 47.9728 391.077 48.2714 391.196 48.57C391.328 48.8686 391.423 49.1433 391.483 49.3941L389.512 50.0212C389.464 49.7943 389.381 49.5315 389.261 49.2329C389.142 48.9343 389.005 48.6297 388.849 48.3192C388.706 48.0087 388.539 47.6981 388.348 47.3876C388.169 47.0651 387.977 46.7665 387.774 46.4918L389.62 45.9006ZM385.517 48.5521C385.72 48.5521 385.881 48.5342 386.001 48.4984C386.12 48.4625 386.216 48.3909 386.287 48.2834C386.371 48.1759 386.431 48.0206 386.467 47.8176C386.502 47.6145 386.532 47.3458 386.556 47.0113C386.783 47.1427 387.076 47.2741 387.434 47.4055C387.792 47.5249 388.115 47.6145 388.401 47.6742C388.342 48.1878 388.252 48.6178 388.133 48.9642C388.025 49.2986 387.864 49.5614 387.649 49.7525C387.446 49.9436 387.189 50.075 386.879 50.1466C386.568 50.2302 386.18 50.272 385.714 50.272H382.203C381.582 50.272 381.068 50.2362 380.662 50.1645C380.256 50.0929 379.933 49.9675 379.694 49.7883C379.467 49.6211 379.306 49.3882 379.211 49.0896C379.115 48.8029 379.067 48.4446 379.067 48.0146V45.9722H381.181V47.9967C381.181 48.2356 381.253 48.3909 381.396 48.4625C381.552 48.5222 381.886 48.5521 382.4 48.5521H385.517ZM404.795 42.2457V43.8223L405.207 43.1594C405.66 43.2908 406.156 43.4461 406.694 43.6252C407.231 43.8044 407.769 43.9895 408.306 44.1806C408.844 44.3598 409.357 44.5509 409.847 44.7539C410.337 44.945 410.755 45.1242 411.101 45.2914L409.972 47.2263C409.686 47.0711 409.333 46.9038 408.915 46.7247C408.509 46.5455 408.073 46.3604 407.607 46.1693C407.153 45.9782 406.682 45.7931 406.192 45.6139C405.714 45.4347 405.248 45.2675 404.795 45.1123V50.5408H402.519V42.2457H395.962V40.1316H402.519V33.8252H404.795V35.9931H410.259V38.0534H404.795V40.1316H412.176V42.2457H404.795ZM334.399 61.74C334.399 62.1467 334.312 62.5033 334.139 62.81C333.972 63.11 333.749 63.36 333.469 63.56C333.189 63.7533 332.872 63.9 332.519 64C332.165 64.0933 331.805 64.14 331.439 64.14C330.972 64.14 330.542 64.0867 330.149 63.98C329.762 63.8733 329.422 63.7067 329.129 63.48C328.842 63.2467 328.612 62.9533 328.439 62.6C328.265 62.2467 328.165 61.82 328.139 61.32H329.769C329.802 61.8667 329.959 62.2633 330.239 62.51C330.525 62.7567 330.932 62.88 331.459 62.88C331.632 62.88 331.799 62.86 331.959 62.82C332.119 62.7733 332.259 62.7033 332.379 62.61C332.505 62.5167 332.605 62.4 332.679 62.26C332.752 62.12 332.789 61.9533 332.789 61.76C332.789 61.5733 332.745 61.4133 332.659 61.28C332.572 61.14 332.459 61.0233 332.319 60.93C332.185 60.8367 332.039 60.76 331.879 60.7C331.719 60.6333 331.562 60.5767 331.409 60.53L330.419 60.26C329.112 59.8933 328.459 59.2 328.459 58.18C328.459 57.8 328.542 57.4667 328.709 57.18C328.875 56.8867 329.092 56.6433 329.359 56.45C329.625 56.2567 329.929 56.1133 330.269 56.02C330.609 55.92 330.949 55.87 331.289 55.87C331.662 55.87 332.022 55.92 332.369 56.02C332.722 56.12 333.032 56.2733 333.299 56.48C333.572 56.6867 333.789 56.9433 333.949 57.25C334.115 57.55 334.202 57.9067 334.209 58.32H332.679C332.612 57.5133 332.125 57.11 331.219 57.11C331.072 57.11 330.925 57.13 330.779 57.17C330.632 57.2033 330.499 57.26 330.379 57.34C330.259 57.42 330.162 57.5233 330.089 57.65C330.015 57.77 329.979 57.9133 329.979 58.08C329.979 58.0867 329.979 58.09 329.979 58.09C329.979 58.5633 330.349 58.88 331.089 59.04C331.102 59.0467 331.185 59.0733 331.339 59.12C331.492 59.16 331.712 59.2233 331.999 59.31C332.319 59.3967 332.622 59.5033 332.909 59.63C333.202 59.7567 333.459 59.9133 333.679 60.1C333.899 60.2867 334.072 60.5133 334.199 60.78C334.332 61.0467 334.399 61.3667 334.399 61.74ZM339.938 64.03C339.858 64.0367 339.748 64.04 339.608 64.04C339.601 64.04 339.595 64.04 339.588 64.04H339.568C339.555 64.04 339.541 64.04 339.528 64.04H339.488C339.481 64.04 339.475 64.04 339.468 64.04H339.458C339.451 64.04 339.445 64.04 339.438 64.04H339.428C339.421 64.04 339.415 64.04 339.408 64.04H339.398C339.391 64.04 339.385 64.04 339.378 64.04H339.108C338.841 64.0333 338.588 64.0033 338.348 63.95C338.108 63.8967 337.898 63.81 337.718 63.69C337.538 63.57 337.395 63.41 337.288 63.21C337.181 63.01 337.128 62.7567 337.128 62.45V59.49H336.168V58.42H337.128V56.87H338.518V58.42H340.128V59.49H338.518V62.09C338.518 62.27 338.535 62.4167 338.568 62.53C338.608 62.6367 338.668 62.72 338.748 62.78C338.828 62.84 338.928 62.88 339.048 62.9C339.168 62.9133 339.311 62.92 339.478 62.92C339.591 62.92 339.728 62.9167 339.888 62.91C340.048 62.8967 340.235 62.8833 340.448 62.87L339.938 64.03ZM346.442 63.99C346.408 63.89 346.382 63.71 346.362 63.45C346.162 63.6833 345.912 63.8567 345.612 63.97C345.312 64.0767 345.012 64.13 344.712 64.13C343.998 64.13 343.458 63.9533 343.092 63.6C342.732 63.2467 342.552 62.7167 342.552 62.01V58.42H343.962V61.85C343.962 62.2233 344.032 62.5067 344.172 62.7C344.318 62.8933 344.592 62.99 344.992 62.99C345.145 62.99 345.292 62.9667 345.432 62.92C345.572 62.8667 345.698 62.7933 345.812 62.7C345.925 62.6067 346.018 62.4967 346.092 62.37C346.172 62.2433 346.222 62.1033 346.242 61.95V58.42H347.662V62.18C347.662 62.9867 347.738 63.59 347.892 63.99H346.442ZM354.678 63.99C354.665 63.9567 354.648 63.89 354.628 63.79C354.615 63.69 354.598 63.5633 354.578 63.41C354.185 63.8833 353.638 64.12 352.938 64.12C352.511 64.12 352.128 64.05 351.788 63.91C351.448 63.7633 351.161 63.5633 350.928 63.31C350.701 63.05 350.525 62.7433 350.398 62.39C350.278 62.0367 350.218 61.6533 350.218 61.24C350.218 60.82 350.278 60.43 350.398 60.07C350.518 59.7033 350.695 59.39 350.928 59.13C351.161 58.8633 351.448 58.6533 351.788 58.5C352.135 58.3467 352.528 58.27 352.968 58.27C353.668 58.31 354.148 58.4767 354.408 58.77V56.05H355.788V61.97C355.788 62.8567 355.871 63.53 356.038 63.99H354.678ZM354.458 61.15C354.458 61.01 354.455 60.87 354.448 60.73C354.441 60.5833 354.418 60.4467 354.378 60.32C354.345 60.1867 354.291 60.0633 354.218 59.95C354.151 59.83 354.058 59.7233 353.938 59.63C353.698 59.45 353.421 59.36 353.108 59.36C352.848 59.36 352.625 59.4133 352.438 59.52C352.251 59.62 352.101 59.7567 351.988 59.93C351.875 60.1033 351.791 60.3 351.738 60.52C351.685 60.7333 351.658 60.9567 351.658 61.19C351.658 61.4233 351.681 61.65 351.728 61.87C351.781 62.0833 351.865 62.2733 351.978 62.44C352.091 62.6067 352.238 62.74 352.418 62.84C352.605 62.94 352.831 62.99 353.098 62.99C353.371 62.99 353.595 62.9367 353.768 62.83C353.948 62.7233 354.088 62.5833 354.188 62.41C354.288 62.2367 354.358 62.04 354.398 61.82C354.438 61.6 354.458 61.3767 354.458 61.15ZM363.988 62.08C363.941 62.4467 363.838 62.76 363.678 63.02C363.518 63.28 363.314 63.4933 363.068 63.66C362.828 63.8267 362.551 63.9467 362.238 64.02C361.931 64.1 361.608 64.14 361.268 64.14C360.828 64.14 360.431 64.0733 360.078 63.94C359.731 63.8067 359.431 63.6167 359.178 63.37C358.931 63.1233 358.741 62.8267 358.608 62.48C358.474 62.1267 358.408 61.73 358.408 61.29C358.408 60.8633 358.471 60.4667 358.598 60.1C358.724 59.7267 358.908 59.4033 359.148 59.13C359.394 58.8567 359.691 58.6433 360.038 58.49C360.391 58.33 360.791 58.25 361.238 58.25C361.658 58.25 362.034 58.3167 362.368 58.45C362.708 58.5833 362.998 58.7733 363.238 59.02C363.478 59.26 363.661 59.55 363.788 59.89C363.914 60.23 363.978 60.61 363.978 61.03V61.41H359.758C359.751 61.9033 359.884 62.3 360.158 62.6C360.431 62.88 360.794 63.02 361.248 63.02C362.014 63.02 362.458 62.7067 362.578 62.08H363.988ZM362.598 60.42C362.591 60.24 362.548 60.08 362.468 59.94C362.388 59.8 362.281 59.6833 362.148 59.59C362.021 59.4967 361.874 59.4267 361.708 59.38C361.548 59.3333 361.384 59.31 361.218 59.31C361.051 59.31 360.888 59.3367 360.728 59.39C360.574 59.4433 360.434 59.5167 360.308 59.61C360.188 59.7033 360.084 59.82 359.998 59.96C359.911 60.0933 359.854 60.2467 359.828 60.42H362.598ZM371.616 63.99H370.206V60.57C370.206 60.2033 370.133 59.9167 369.986 59.71C369.839 59.5033 369.566 59.4 369.166 59.4C369.026 59.4 368.883 59.43 368.736 59.49C368.596 59.5433 368.466 59.62 368.346 59.72C368.233 59.82 368.136 59.9367 368.056 60.07C367.983 60.1967 367.936 60.3333 367.916 60.48V63.99H366.506V58.42H367.886V58.91C368.093 58.6967 368.329 58.54 368.596 58.44C368.869 58.3333 369.149 58.28 369.436 58.28C370.116 58.28 370.649 58.46 371.036 58.82C371.423 59.18 371.616 59.7033 371.616 60.39V63.99ZM377.682 64.03C377.602 64.0367 377.492 64.04 377.352 64.04C377.346 64.04 377.339 64.04 377.332 64.04H377.312C377.299 64.04 377.286 64.04 377.272 64.04H377.232C377.226 64.04 377.219 64.04 377.212 64.04H377.202C377.196 64.04 377.189 64.04 377.182 64.04H377.172C377.166 64.04 377.159 64.04 377.152 64.04H377.142C377.136 64.04 377.129 64.04 377.122 64.04H376.852C376.586 64.0333 376.332 64.0033 376.092 63.95C375.852 63.8967 375.642 63.81 375.462 63.69C375.282 63.57 375.139 63.41 375.032 63.21C374.926 63.01 374.872 62.7567 374.872 62.45V59.49H373.912V58.42H374.872V56.87H376.262V58.42H377.872V59.49H376.262V62.09C376.262 62.27 376.279 62.4167 376.312 62.53C376.352 62.6367 376.412 62.72 376.492 62.78C376.572 62.84 376.672 62.88 376.792 62.9C376.912 62.9133 377.056 62.92 377.222 62.92C377.336 62.92 377.472 62.9167 377.632 62.91C377.792 62.8967 377.979 62.8833 378.192 62.87L377.682 64.03ZM391.401 61.23C391.228 62.2167 390.825 62.9533 390.191 63.44C389.598 63.9 388.825 64.1367 387.871 64.15C386.625 64.1567 385.638 63.7433 384.911 62.91C384.258 62.1433 383.935 61.1867 383.941 60.04C383.955 58.9 384.291 57.94 384.951 57.16C385.685 56.3067 386.638 55.88 387.811 55.88C388.678 55.88 389.435 56.1133 390.081 56.58C390.815 57.1067 391.235 57.8267 391.341 58.74H389.741C389.655 58.2267 389.425 57.8367 389.051 57.57C388.725 57.3233 388.321 57.2 387.841 57.2C387.128 57.2 386.555 57.48 386.121 58.04C385.715 58.5667 385.511 59.2333 385.511 60.04C385.511 60.8467 385.711 61.5 386.111 62C386.538 62.5267 387.125 62.7867 387.871 62.78C388.938 62.76 389.578 62.2433 389.791 61.23H391.401ZM397.402 63.99C397.322 63.8367 397.266 63.6433 397.232 63.41C396.832 63.8833 396.299 64.12 395.632 64.12C395.366 64.12 395.109 64.09 394.862 64.03C394.616 63.9767 394.399 63.8867 394.212 63.76C394.026 63.6333 393.876 63.4667 393.762 63.26C393.649 63.0467 393.592 62.7867 393.592 62.48C393.592 62.0867 393.686 61.77 393.872 61.53C394.066 61.29 394.306 61.1033 394.592 60.97C394.879 60.8367 395.192 60.7433 395.532 60.69C395.872 60.63 396.192 60.5833 396.492 60.55C396.746 60.5167 396.966 60.4867 397.152 60.46C397.166 60.12 397.106 59.85 396.972 59.65C396.826 59.4233 396.586 59.31 396.252 59.31C395.992 59.31 395.759 59.37 395.552 59.49C395.346 59.61 395.226 59.81 395.192 60.09H393.812C393.846 59.79 393.932 59.5267 394.072 59.3C394.219 59.0667 394.402 58.8733 394.622 58.72C394.842 58.5667 395.086 58.45 395.352 58.37C395.626 58.29 395.902 58.25 396.182 58.25C397.002 58.25 397.606 58.4733 397.992 58.92C398.306 59.2867 398.459 59.76 398.452 60.34V62.32C398.452 62.9933 398.559 63.55 398.772 63.99H397.402ZM397.172 61.45C397.039 61.4633 396.889 61.48 396.722 61.5C396.562 61.52 396.386 61.5433 396.192 61.57C396.079 61.5833 395.949 61.6067 395.802 61.64C395.656 61.6733 395.516 61.7233 395.382 61.79C395.256 61.85 395.146 61.93 395.052 62.03C394.966 62.13 394.919 62.2533 394.912 62.4C394.906 62.64 394.982 62.82 395.142 62.94C395.282 63.04 395.469 63.09 395.702 63.09C395.869 63.09 396.032 63.0667 396.192 63.02C396.359 62.9733 396.509 62.9067 396.642 62.82C396.776 62.7267 396.889 62.6133 396.982 62.48C397.076 62.34 397.136 62.1833 397.162 62.01L397.172 61.45ZM404.921 59.5C404.861 59.5 404.801 59.5 404.741 59.5C404.268 59.5 403.834 59.5933 403.441 59.78C403.021 59.9933 402.774 60.2667 402.701 60.6V63.99H401.301V58.42H402.671V59.11C402.771 58.9633 402.898 58.84 403.051 58.74C403.204 58.6333 403.368 58.5467 403.541 58.48C403.714 58.4133 403.894 58.3633 404.081 58.33C404.268 58.2967 404.444 58.2767 404.611 58.27L404.921 59.5ZM411.161 63.99C411.147 63.9567 411.131 63.89 411.111 63.79C411.097 63.69 411.081 63.5633 411.061 63.41C410.667 63.8833 410.121 64.12 409.421 64.12C408.994 64.12 408.611 64.05 408.271 63.91C407.931 63.7633 407.644 63.5633 407.411 63.31C407.184 63.05 407.007 62.7433 406.881 62.39C406.761 62.0367 406.701 61.6533 406.701 61.24C406.701 60.82 406.761 60.43 406.881 60.07C407.001 59.7033 407.177 59.39 407.411 59.13C407.644 58.8633 407.931 58.6533 408.271 58.5C408.617 58.3467 409.011 58.27 409.451 58.27C410.151 58.31 410.631 58.4767 410.891 58.77V56.05H412.271V61.97C412.271 62.8567 412.354 63.53 412.521 63.99H411.161ZM410.941 61.15C410.941 61.01 410.937 60.87 410.931 60.73C410.924 60.5833 410.901 60.4467 410.861 60.32C410.827 60.1867 410.774 60.0633 410.701 59.95C410.634 59.83 410.541 59.7233 410.421 59.63C410.181 59.45 409.904 59.36 409.591 59.36C409.331 59.36 409.107 59.4133 408.921 59.52C408.734 59.62 408.584 59.7567 408.471 59.93C408.357 60.1033 408.274 60.3 408.221 60.52C408.167 60.7333 408.141 60.9567 408.141 61.19C408.141 61.4233 408.164 61.65 408.211 61.87C408.264 62.0833 408.347 62.2733 408.461 62.44C408.574 62.6067 408.721 62.74 408.901 62.84C409.087 62.94 409.314 62.99 409.581 62.99C409.854 62.99 410.077 62.9367 410.251 62.83C410.431 62.7233 410.571 62.5833 410.671 62.41C410.771 62.2367 410.841 62.04 410.881 61.82C410.921 61.6 410.941 61.3767 410.941 61.15Z" fill="white"/>
<path d="M43.5422 89.6853H42.0436V93.5286C42.0436 93.8912 41.9912 94.1692 41.8864 94.3626C41.7817 94.564 41.5883 94.7211 41.3063 94.8339C41.0324 94.9387 40.702 94.9991 40.3152 95.0152C39.9285 95.0394 39.4732 95.0515 38.9495 95.0515C38.9092 94.8581 38.8407 94.6406 38.7441 94.3988C38.6474 94.1571 38.5466 93.9436 38.4419 93.7583H35.0699V94.5076H33.7041V90.4104H38.9012V93.7341C39.1993 93.7422 39.4732 93.7462 39.723 93.7462H39.7472C39.7553 93.7462 39.7633 93.7462 39.7714 93.7462H39.7955C39.8036 93.7462 39.8117 93.7462 39.8197 93.7462H39.9164C39.9164 93.7462 39.9204 93.7462 39.9285 93.7462H40.0131C40.0212 93.7462 40.0292 93.7462 40.0373 93.7462H40.1944H40.2306C40.3515 93.7301 40.4321 93.7059 40.4724 93.6737C40.5207 93.6414 40.5449 93.581 40.5449 93.4924V89.6853H32.5922V88.4041H33.6558C33.5913 88.2349 33.4987 88.0577 33.3778 87.8723C33.265 87.679 33.1603 87.5178 33.0636 87.3889C33.5954 87.3325 34.0627 87.264 34.4656 87.1834C34.8684 87.1029 35.2149 87.0062 35.505 86.8934C35.8031 86.7806 36.0529 86.6557 36.2543 86.5187C36.4557 86.3737 36.6209 86.2125 36.7498 86.0352H33.1965V84.7904H37.197C37.2293 84.6292 37.2494 84.4641 37.2575 84.2948C37.2736 84.1256 37.2897 83.9444 37.3058 83.751H38.7924C38.7682 84.1136 38.732 84.46 38.6836 84.7904H42.8896V86.0352H38.7924C39.1389 86.1481 39.4934 86.2689 39.856 86.3978C40.2186 86.5268 40.5731 86.6557 40.9196 86.7846C41.266 86.9135 41.5964 87.0424 41.9106 87.1713C42.2249 87.2922 42.5069 87.405 42.7566 87.5098L41.8139 88.4041H43.5422V89.6853ZM41.4634 88.4041C41.2217 88.2913 40.9558 88.1745 40.6657 88.0536C40.3757 87.9328 40.0695 87.8119 39.7472 87.691C39.433 87.5621 39.1107 87.4372 38.7803 87.3164C38.45 87.1955 38.1236 87.0787 37.8013 86.9659C37.4871 87.3123 37.0641 87.6024 36.5323 87.8361C36.0005 88.0697 35.2995 88.2591 34.4293 88.4041H41.4634ZM37.5354 91.5223H35.0699V92.6464H37.5354V91.5223ZM58.0456 88.2591V89.4194H47.0714V88.2591H48.9689C48.8883 88.0093 48.7796 87.7394 48.6426 87.4493C48.5137 87.1593 48.3767 86.8934 48.2317 86.6516L49.2106 86.2891H47.6999V85.1288H49.7424C49.6538 84.9676 49.5571 84.8025 49.4524 84.6333C49.3476 84.4641 49.2388 84.311 49.126 84.174L50.3951 83.7268C50.5723 83.9121 50.7335 84.1176 50.8785 84.3432C51.0316 84.5688 51.1484 84.7743 51.229 84.9596L50.8181 85.1288H54.2505L53.7187 84.9717C53.8557 84.7944 53.9967 84.5889 54.1418 84.3553C54.2949 84.1216 54.4157 83.9121 54.5043 83.7268L55.9426 84.1377C55.8056 84.3311 55.6767 84.5124 55.5558 84.6816C55.443 84.8428 55.3302 84.9918 55.2174 85.1288H57.4654V86.2891H55.9668L56.8974 86.555C56.7362 86.8611 56.5711 87.1633 56.4019 87.4614C56.2327 87.7595 56.0715 88.0254 55.9184 88.2591H58.0456ZM49.4524 86.2891C49.6377 86.563 49.8069 86.8611 49.96 87.1834C50.1131 87.5057 50.2218 87.7918 50.2863 88.0415L49.7424 88.2591H50.6972V86.2891H49.4524ZM52.909 86.2891H52.0146V88.2591H52.909V86.2891ZM54.6977 88.0415C54.8428 87.7998 54.9958 87.5178 55.157 87.1955C55.3181 86.8732 55.4471 86.5711 55.5438 86.2891H54.2747V88.2591H55.3987L54.6977 88.0415ZM48.7634 89.9391H56.3777V94.9911H54.8428V94.6768H50.2259V95.0394H48.7634V89.9391ZM50.2259 91.0268V91.7762H54.8428V91.0268H50.2259ZM54.8428 93.5649V92.8276H50.2259V93.5649H54.8428ZM65.7928 90.1808C65.5591 90.2452 65.3214 90.3097 65.0797 90.3742C64.846 90.4386 64.6083 90.5031 64.3666 90.5675V93.432C64.3666 93.7865 64.3304 94.0564 64.2578 94.2417C64.1853 94.4351 64.0443 94.5842 63.8348 94.6889C63.6334 94.8017 63.3836 94.8742 63.0855 94.9065C62.7954 94.9387 62.4328 94.9548 61.9977 94.9548C61.9897 94.8581 61.9736 94.7534 61.9494 94.6406C61.9252 94.5278 61.893 94.4109 61.8527 94.2901C61.8205 94.1773 61.7802 94.0645 61.7318 93.9517C61.6916 93.8389 61.6472 93.7381 61.5989 93.6495C61.8406 93.6576 62.0703 93.6616 62.2878 93.6616C62.2959 93.6616 62.3039 93.6616 62.312 93.6616H62.3241C62.3321 93.6616 62.3402 93.6616 62.3482 93.6616H62.3603C62.3684 93.6616 62.3724 93.6616 62.3724 93.6616H62.4208C62.4288 93.6616 62.4328 93.6616 62.4328 93.6616H62.457C62.4651 93.6616 62.4772 93.6616 62.4933 93.6616H62.5174C62.5255 93.6616 62.5295 93.6616 62.5295 93.6616H62.5416C62.5497 93.6616 62.5537 93.6616 62.5537 93.6616H62.6987C62.6987 93.6616 62.7028 93.6616 62.7108 93.6616H62.7229C62.731 93.6616 62.735 93.6616 62.735 93.6616C62.8881 93.6616 62.9646 93.585 62.9646 93.432V90.9301L61.7198 91.2444L61.3451 89.8786C61.5788 89.8303 61.8285 89.7779 62.0944 89.7215C62.3684 89.6571 62.6584 89.5886 62.9646 89.5161V87.3889H61.478V86.0594H62.9646V83.7751H64.3666V86.0594H65.7203V87.3889H64.3666V89.1776C64.5761 89.1212 64.7856 89.0689 64.9951 89.0205C65.2046 88.9641 65.4141 88.9117 65.6236 88.8634L65.7928 90.1808ZM70.9415 93.5407C71.0301 93.5407 71.0986 93.5166 71.1469 93.4682C71.1953 93.4118 71.2356 93.3151 71.2678 93.1781C71.3 93.0331 71.3242 92.8397 71.3403 92.598C71.3564 92.3482 71.3725 92.034 71.3886 91.6553C71.5498 91.7842 71.7553 91.9051 72.005 92.0179C72.2629 92.1307 72.4925 92.2113 72.6939 92.2596C72.6617 92.7511 72.6093 93.1661 72.5368 93.5045C72.4724 93.8348 72.3757 94.1047 72.2468 94.3142C72.1259 94.5237 71.9688 94.6728 71.7754 94.7614C71.5901 94.8581 71.3564 94.9065 71.0744 94.9065H69.7449C69.4307 94.9065 69.1729 94.8742 68.9714 94.8098C68.77 94.7453 68.6088 94.6325 68.488 94.4714C68.3671 94.3183 68.2825 94.1168 68.2342 93.8671C68.1858 93.6092 68.1617 93.2869 68.1617 92.9002V90.0358L66.0828 90.3621L65.8532 88.9963L68.1617 88.6579V85.9627C67.8474 86.0191 67.5291 86.0715 67.2069 86.1199C66.8926 86.1601 66.5824 86.2004 66.2762 86.2407C66.2601 86.1601 66.2359 86.0675 66.2037 85.9627C66.1715 85.858 66.1352 85.7532 66.0949 85.6485C66.0546 85.5437 66.0103 85.443 65.962 85.3463C65.9217 85.2416 65.8814 85.1489 65.8411 85.0684C66.2843 85.0039 66.7355 84.9314 67.1948 84.8508C67.654 84.7622 68.0972 84.6655 68.5242 84.5607C68.9513 84.456 69.3542 84.3472 69.7329 84.2344C70.1196 84.1136 70.458 83.9927 70.7481 83.8718L71.9567 84.9596C71.5941 85.0966 71.2154 85.2215 70.8206 85.3343C70.4338 85.4471 70.0269 85.5558 69.5999 85.6606V88.4404L72.4401 88.0174L72.6698 89.3468L69.5999 89.8303V92.9002C69.5999 93.1741 69.62 93.3514 69.6603 93.432C69.7087 93.5045 69.8175 93.5407 69.9867 93.5407H70.9415ZM87.1973 89.0084H86.2787V95.0515H84.9251V89.0084H83.644V89.0447C83.644 89.4798 83.6238 89.9592 83.5835 90.4829C83.5513 90.9986 83.4788 91.5264 83.366 92.0662C83.2612 92.6061 83.1041 93.1338 82.8946 93.6495C82.6851 94.1652 82.4031 94.6365 82.0486 95.0636C81.9761 94.9427 81.8593 94.8057 81.6981 94.6527C81.545 94.4996 81.396 94.3706 81.2509 94.2659L80.6466 94.6043C80.5822 94.4834 80.4976 94.3465 80.3928 94.1934C80.2961 94.0483 80.1873 93.8953 80.0665 93.7341C79.9456 93.573 79.8207 93.4158 79.6918 93.2627C79.5709 93.1016 79.4501 92.9525 79.3292 92.8156L80.4291 92.2113C80.6063 92.3966 80.7876 92.602 80.9729 92.8276C81.1583 93.0533 81.3315 93.2708 81.4926 93.4803C81.686 93.1338 81.8351 92.7712 81.9398 92.3925C82.0526 92.0138 82.1372 91.6311 82.1936 91.2444C82.2581 90.8576 82.2984 90.4789 82.3145 90.1083C82.3306 89.7296 82.3387 89.367 82.3387 89.0205V84.8629L83.1243 85.0804C83.648 84.9193 84.1516 84.734 84.635 84.5245C85.1185 84.3069 85.5294 84.0894 85.8678 83.8718L87.0643 84.9112C86.5648 85.1691 86.0169 85.4068 85.4206 85.6243C84.8244 85.8338 84.2322 86.0191 83.644 86.1803V87.7031H87.1973V89.0084ZM81.9761 92.175H75.9089V90.9301H76.9724V86.4341H76.0539V85.1771H76.9724V83.8839H78.2656V85.1771H79.9094V83.8839H81.2267V85.1771H81.9277V86.4341H81.2267V90.9301H81.9761V92.175ZM78.2656 86.4341V87.1593H79.9094V86.4341H78.2656ZM78.2656 89.0084H79.9094V88.2591H78.2656V89.0084ZM78.2656 90.9301H79.9094V90.1083H78.2656V90.9301ZM78.7854 92.6584C78.6806 92.876 78.5597 93.0976 78.4228 93.3232C78.2858 93.5488 78.1408 93.7663 77.9877 93.9758C77.8346 94.1853 77.6775 94.3787 77.5163 94.556C77.3552 94.7413 77.194 94.9065 77.0329 95.0515C76.9603 94.987 76.8757 94.9145 76.7791 94.8339C76.6824 94.7614 76.5776 94.6849 76.4648 94.6043C76.3601 94.5237 76.2553 94.4472 76.1506 94.3747C76.0458 94.3022 75.9532 94.2417 75.8726 94.1934C76.1788 93.9517 76.4688 93.6616 76.7428 93.3232C77.0248 92.9767 77.2464 92.6222 77.4075 92.2596L78.7854 92.6584ZM99.2955 90.2291C99.5292 91.0349 99.8555 91.76 100.274 92.4046C100.702 93.0492 101.241 93.5448 101.894 93.8912C101.813 93.9637 101.725 94.0483 101.628 94.145C101.539 94.2417 101.451 94.3424 101.362 94.4472C101.282 94.56 101.201 94.6688 101.12 94.7735C101.048 94.8863 100.984 94.9911 100.927 95.0878C100.347 94.7171 99.8555 94.2417 99.4526 93.6616C99.0497 93.0815 98.7154 92.4167 98.4495 91.6674C98.1836 92.3039 97.8049 92.9163 97.3134 93.5045C96.8299 94.0846 96.1773 94.6124 95.3554 95.0878C95.3071 95.0152 95.2426 94.9306 95.162 94.8339C95.0815 94.7373 94.9928 94.6406 94.8961 94.5439C94.8075 94.4472 94.7149 94.3545 94.6182 94.2659C94.5295 94.1773 94.4409 94.0967 94.3523 94.0242C93.7157 94.1692 93.0913 94.3022 92.4789 94.423C91.8746 94.5519 91.3227 94.6688 90.8231 94.7735L90.5451 93.4803C90.803 93.44 91.0769 93.3957 91.367 93.3473C91.6651 93.299 91.9834 93.2426 92.3218 93.1781V90.0478H90.6781V88.8392H92.3218V87.9569H91.2582V87.4131C91.2179 87.4534 91.1776 87.4896 91.1374 87.5218C91.1051 87.5541 91.0689 87.5903 91.0286 87.6306C90.9802 87.5581 90.9198 87.4775 90.8473 87.3889C90.7828 87.3003 90.7103 87.2157 90.6297 87.1351C90.5572 87.0465 90.4807 86.9659 90.4001 86.8934C90.3195 86.8128 90.243 86.7483 90.1705 86.7C90.6781 86.2649 91.1051 85.7855 91.4516 85.2617C91.8061 84.738 92.076 84.2425 92.2614 83.7751H93.4942C93.6714 83.9202 93.8567 84.0813 94.0501 84.2586C94.2435 84.4359 94.4288 84.6171 94.6061 84.8025C94.7833 84.9878 94.9485 85.1691 95.1016 85.3463C95.2628 85.5236 95.3957 85.6928 95.5004 85.854L94.7269 86.7846V87.9569H93.5667V88.8392H95.0653V90.0478H93.5667V92.9485C93.8406 92.8921 94.1146 92.8397 94.3885 92.7914C94.6625 92.735 94.9364 92.6786 95.2104 92.6222L95.295 93.4561C95.9557 92.9888 96.4512 92.4812 96.7816 91.9333C97.12 91.3773 97.3577 90.8093 97.4947 90.2291H95.3192V88.8997H97.7001C97.7243 88.4968 97.7364 88.106 97.7364 87.7273V87.1593H96.6124C96.4109 87.7313 96.1732 88.2349 95.8993 88.67C95.8348 88.6217 95.7502 88.5693 95.6455 88.5129C95.5488 88.4484 95.444 88.384 95.3312 88.3195C95.2184 88.2551 95.1056 88.1946 94.9928 88.1382C94.8881 88.0818 94.7954 88.0375 94.7149 88.0053C94.876 87.7877 95.021 87.538 95.15 87.2559C95.2869 86.9659 95.4078 86.6597 95.5125 86.3374C95.6173 86.007 95.7059 85.6646 95.7784 85.3101C95.859 84.9556 95.9235 84.597 95.9718 84.2344L97.2892 84.452C97.2489 84.6856 97.2046 84.9193 97.1562 85.153C97.116 85.3786 97.0676 85.6042 97.0112 85.8298H97.7364V83.8477H99.1263V85.8298H101.398V87.1593H99.1263V87.7394C99.1263 88.11 99.1142 88.4968 99.09 88.8997H101.689V90.2291H99.2955ZM94.461 86.7604C94.2918 86.5026 94.0783 86.2206 93.8205 85.9144C93.5707 85.6002 93.3169 85.3181 93.0591 85.0684C92.906 85.3343 92.7327 85.6122 92.5393 85.9023C92.346 86.1843 92.1244 86.4703 91.8746 86.7604H94.461ZM93.6996 92.3684C93.7399 92.2314 93.7802 92.0823 93.8205 91.9212C93.8608 91.752 93.9011 91.5787 93.9413 91.4015C93.9816 91.2242 94.0179 91.051 94.0501 90.8818C94.0823 90.7126 94.1065 90.5555 94.1226 90.4104L95.162 90.6642C95.0492 91.0026 94.9445 91.3491 94.8478 91.7036C94.7511 92.0582 94.6584 92.3603 94.5698 92.6101L93.6996 92.3684ZM91.7175 90.5071C91.8142 90.8455 91.8988 91.2081 91.9713 91.5949C92.0519 91.9736 92.1083 92.3039 92.1405 92.5859L91.1736 92.8518C91.1656 92.7068 91.1494 92.5456 91.1253 92.3684C91.1092 92.1911 91.081 92.0098 91.0407 91.8245C91.0084 91.6392 90.9722 91.4539 90.9319 91.2685C90.8916 91.0832 90.8473 90.906 90.7989 90.7367L91.7175 90.5071ZM111.104 86.8813C111.128 86.7685 111.148 86.6597 111.164 86.555C111.188 86.4502 111.208 86.3414 111.224 86.2286H108.3V85.0684H109.98C109.907 84.9233 109.822 84.7743 109.726 84.6212C109.629 84.4681 109.528 84.3271 109.424 84.1982L110.56 83.7751C110.721 83.9605 110.874 84.17 111.019 84.4036C111.172 84.6292 111.281 84.8307 111.345 85.0079L111.2 85.0684H112.711C112.824 84.875 112.941 84.6574 113.062 84.4157C113.182 84.1659 113.279 83.9484 113.352 83.7631L114.778 84.0652C114.665 84.2505 114.556 84.4278 114.451 84.597C114.347 84.7662 114.246 84.9233 114.149 85.0684H115.999V86.2286H112.772C112.723 86.3414 112.671 86.4542 112.614 86.567C112.566 86.6718 112.518 86.7765 112.469 86.8813H115.189V92.7672H109.122V86.8813H111.104ZM107.043 86.8208C106.946 86.6758 106.825 86.5187 106.68 86.3495C106.535 86.1803 106.374 86.0111 106.197 85.8419C106.019 85.6727 105.834 85.5075 105.641 85.3463C105.455 85.1852 105.274 85.0402 105.097 84.9112L106.16 84.041C106.346 84.17 106.535 84.311 106.728 84.4641C106.922 84.6171 107.107 84.7743 107.284 84.9354C107.47 85.0966 107.639 85.2577 107.792 85.4189C107.945 85.5719 108.074 85.721 108.179 85.866L107.043 86.8208ZM113.763 87.9207H110.487V88.5492H113.763V87.9207ZM107.877 92.2475C108.126 92.6584 108.473 92.9525 108.916 93.1298C109.367 93.3071 109.907 93.4078 110.536 93.432C110.89 93.4481 111.229 93.4602 111.551 93.4682C111.881 93.4682 112.131 93.4682 112.3 93.4682C112.639 93.4682 113.025 93.4642 113.46 93.4561C113.904 93.4481 114.383 93.436 114.899 93.4199C115.414 93.3957 115.874 93.3675 116.276 93.3353C116.236 93.4158 116.192 93.5206 116.144 93.6495C116.103 93.7704 116.063 93.8953 116.023 94.0242C115.982 94.1611 115.942 94.2941 115.902 94.423C115.87 94.56 115.845 94.6809 115.829 94.7856C115.467 94.8017 115.052 94.8138 114.584 94.8219C114.125 94.838 113.714 94.846 113.352 94.846C112.989 94.8541 112.691 94.8581 112.457 94.8581C112.216 94.8581 111.921 94.8541 111.575 94.846C111.229 94.846 110.874 94.838 110.511 94.8219C110.141 94.8057 109.798 94.7695 109.484 94.7131C109.17 94.6647 108.88 94.5882 108.614 94.4834C108.348 94.3787 108.102 94.2417 107.877 94.0725C107.651 93.9114 107.442 93.714 107.248 93.4803C106.982 93.714 106.712 93.9476 106.438 94.1813C106.164 94.423 105.858 94.6728 105.52 94.9306L104.819 93.432C105.077 93.2789 105.351 93.1097 105.641 92.9243C105.931 92.731 106.209 92.5295 106.475 92.32V89.7699H105.085V88.4525H107.877V92.2475ZM113.763 89.504H110.487V90.1324H113.763V89.504ZM113.763 91.0872H110.487V91.7278H113.763V91.0872ZM121.643 86.9055C121.546 86.7604 121.421 86.6033 121.268 86.4341C121.115 86.2568 120.946 86.0836 120.76 85.9144C120.583 85.7371 120.394 85.5639 120.192 85.3947C119.999 85.2255 119.81 85.0724 119.624 84.9354L120.615 84.0169C120.801 84.1458 120.994 84.2868 121.196 84.4399C121.397 84.593 121.59 84.7541 121.776 84.9233C121.969 85.0845 122.146 85.2497 122.307 85.4189C122.477 85.58 122.614 85.7331 122.718 85.8781L121.643 86.9055ZM124.737 93.0089H123.383V86.7846H126.09C125.816 86.6557 125.538 86.5348 125.256 86.422C124.983 86.3011 124.721 86.1924 124.471 86.0957L125.401 85.3222C125.611 85.4027 125.837 85.4914 126.078 85.5881C126.328 85.6767 126.578 85.7774 126.828 85.8902C126.997 85.7935 127.162 85.6928 127.323 85.5881C127.484 85.4753 127.641 85.3625 127.795 85.2497H123.492V84.1619H129.039L129.317 84.0894L130.176 84.7783C129.869 85.0603 129.531 85.3423 129.16 85.6243C128.798 85.9063 128.419 86.1682 128.024 86.4099C128.161 86.4744 128.29 86.5388 128.411 86.6033C128.532 86.6597 128.645 86.7201 128.749 86.7846H130.212V91.7641C130.212 92.0541 130.176 92.2838 130.103 92.453C130.039 92.6141 129.91 92.743 129.716 92.8397C129.523 92.9445 129.293 93.0049 129.027 93.021C128.761 93.0371 128.447 93.0452 128.085 93.0452C128.06 92.8679 128.016 92.6746 127.952 92.4651C127.887 92.2556 127.815 92.0743 127.734 91.9212C127.919 91.9292 128.105 91.9333 128.29 91.9333H128.338C128.346 91.9333 128.359 91.9333 128.375 91.9333H128.399C128.399 91.9333 128.403 91.9333 128.411 91.9333H128.423C128.423 91.9333 128.427 91.9333 128.435 91.9333H128.447C128.455 91.9333 128.459 91.9333 128.459 91.9333H128.496C128.504 91.9333 128.508 91.9333 128.508 91.9333H128.628C128.628 91.9333 128.633 91.9333 128.641 91.9333H128.653C128.725 91.9252 128.774 91.9091 128.798 91.8849C128.822 91.8608 128.834 91.8164 128.834 91.752V91.196H127.408V92.9606H126.127V91.196H124.737V93.0089ZM124.737 87.824V88.4766H126.127V87.824H124.737ZM128.834 87.824H127.408V88.4766H128.834V87.824ZM122.356 92.3079C122.589 92.7189 122.916 93.017 123.335 93.2023C123.754 93.3796 124.273 93.4803 124.894 93.5045C125.256 93.5206 125.595 93.5327 125.909 93.5407C126.231 93.5407 126.457 93.5407 126.586 93.5407C126.973 93.5407 127.408 93.5367 127.891 93.5286C128.375 93.5125 128.886 93.4964 129.426 93.4803C129.966 93.4561 130.441 93.4279 130.852 93.3957C130.812 93.4763 130.768 93.577 130.719 93.6978C130.671 93.8187 130.627 93.9436 130.586 94.0725C130.546 94.2014 130.51 94.3304 130.478 94.4593C130.445 94.5882 130.421 94.701 130.405 94.7977C130.035 94.8138 129.607 94.8259 129.124 94.8339C128.641 94.8501 128.21 94.8581 127.831 94.8581C127.452 94.8662 127.138 94.8702 126.888 94.8702C126.638 94.8702 126.332 94.8662 125.97 94.8581C125.615 94.8581 125.252 94.8501 124.882 94.8339C124.157 94.8017 123.544 94.6849 123.045 94.4834C122.545 94.2901 122.114 93.9597 121.751 93.4924C121.469 93.726 121.183 93.9597 120.893 94.1934C120.603 94.4351 120.289 94.6849 119.951 94.9427L119.286 93.5045C119.544 93.3594 119.818 93.1943 120.108 93.0089C120.406 92.8156 120.696 92.6141 120.978 92.4046V89.7699H119.443V88.4525H122.356V92.3079ZM128.834 90.1566V89.4798H127.408V90.1566H128.834ZM126.127 90.1566V89.4798H124.737V90.1566H126.127ZM35.6496 103.993C35.3663 103.579 35.0852 103.168 34.8063 102.759C34.532 102.349 34.2532 101.936 33.9698 101.517L33.5044 101.996V103.993H32.4992V98.6302H33.5044V100.897L35.4472 98.6302H36.6952L34.6782 100.877C35.0515 101.398 35.4225 101.918 35.7913 102.435C36.1601 102.952 36.5288 103.472 36.8976 103.993H35.6496ZM42.1556 103.993C42.0927 103.899 42.0027 103.753 41.8858 103.555C41.7733 103.357 41.6384 103.107 41.481 102.806C41.1662 102.226 40.9368 101.888 40.7929 101.794H39.7878V103.993H38.7894V98.6302H40.6715C42.0702 98.6302 42.7695 99.1519 42.7695 100.195C42.7695 100.353 42.7448 100.506 42.6953 100.654C42.6503 100.798 42.5829 100.933 42.4929 101.059C42.4075 101.185 42.3018 101.295 42.1759 101.389C42.0544 101.479 41.9173 101.549 41.7644 101.598C41.9218 101.747 42.1062 101.996 42.3175 102.347C42.3985 102.491 42.4794 102.635 42.5604 102.779C42.6413 102.918 42.7223 103.06 42.8032 103.204C42.8797 103.348 42.9607 103.487 43.0461 103.622C43.136 103.753 43.226 103.876 43.3159 103.993H42.1556ZM41.7441 100.195C41.7441 100.033 41.7081 99.9052 41.6362 99.8107C41.5687 99.7163 41.481 99.6443 41.3731 99.5948C41.2651 99.5454 41.1437 99.5139 41.0088 99.5004C40.8784 99.4869 40.748 99.4802 40.6175 99.4802H39.7878V100.958H40.7322C40.8536 100.958 40.9751 100.946 41.0965 100.924C41.2179 100.897 41.3259 100.854 41.4203 100.796C41.5192 100.733 41.598 100.654 41.6564 100.56C41.7149 100.461 41.7441 100.339 41.7441 100.195ZM52.165 100.303C52.165 100.618 52.1066 100.886 51.9897 101.106C51.8772 101.322 51.7243 101.497 51.5309 101.632C51.3375 101.767 51.1127 101.866 50.8563 101.929C50.6045 101.987 50.3391 102.017 50.0603 102.017H49.0349V103.993H48.0297V98.6302H50.0535C50.3459 98.6302 50.6202 98.6571 50.8766 98.7111C51.1329 98.7606 51.3555 98.8483 51.5444 98.9742C51.7378 99.1001 51.8885 99.271 51.9964 99.4869C52.1088 99.7028 52.165 99.9749 52.165 100.303ZM51.1397 100.317C51.1397 100.141 51.1104 99.9996 51.052 99.8917C50.998 99.7837 50.9215 99.7005 50.8226 99.6421C50.7236 99.5836 50.6067 99.5454 50.4718 99.5274C50.3369 99.5049 50.193 99.4937 50.04 99.4937H49.0349V101.14H50.04C50.7731 101.14 51.1397 100.865 51.1397 100.317ZM56.2713 103.993C56.2173 103.89 56.1791 103.759 56.1566 103.602C55.8868 103.921 55.527 104.081 55.0772 104.081C54.8973 104.081 54.7242 104.061 54.5578 104.02C54.3914 103.984 54.2452 103.924 54.1193 103.838C53.9934 103.753 53.8922 103.64 53.8157 103.501C53.7393 103.357 53.701 103.181 53.701 102.975C53.701 102.709 53.764 102.496 53.8899 102.334C54.0203 102.172 54.1823 102.046 54.3756 101.956C54.569 101.866 54.7804 101.803 55.0098 101.767C55.2391 101.727 55.455 101.695 55.6574 101.673C55.8283 101.65 55.9767 101.63 56.1026 101.612C56.1116 101.383 56.0711 101.2 55.9812 101.065C55.8823 100.913 55.7203 100.836 55.4955 100.836C55.3201 100.836 55.1627 100.877 55.0233 100.958C54.8838 101.038 54.8029 101.173 54.7804 101.362H53.8494C53.8719 101.16 53.9304 100.982 54.0248 100.829C54.1238 100.672 54.2475 100.542 54.3959 100.438C54.5443 100.335 54.7084 100.256 54.8883 100.202C55.0727 100.148 55.2594 100.121 55.4483 100.121C56.0014 100.121 56.4084 100.272 56.6693 100.573C56.8807 100.82 56.9841 101.14 56.9796 101.531V102.867C56.9796 103.321 57.0516 103.696 57.1955 103.993H56.2713ZM56.1161 102.28C56.0262 102.289 55.925 102.3 55.8125 102.313C55.7046 102.327 55.5854 102.343 55.455 102.361C55.3785 102.37 55.2909 102.385 55.1919 102.408C55.093 102.43 54.9985 102.464 54.9086 102.509C54.8231 102.55 54.7489 102.604 54.686 102.671C54.6275 102.738 54.596 102.822 54.5915 102.921C54.587 103.083 54.6387 103.204 54.7467 103.285C54.8411 103.352 54.967 103.386 55.1244 103.386C55.2369 103.386 55.3471 103.37 55.455 103.339C55.5674 103.307 55.6686 103.262 55.7586 103.204C55.8485 103.141 55.925 103.065 55.9879 102.975C56.0509 102.88 56.0914 102.774 56.1094 102.658L56.1161 102.28ZM62.3282 102.873C62.3282 103.08 62.2787 103.26 62.1797 103.413C62.0853 103.566 61.9616 103.694 61.8087 103.798C61.6603 103.897 61.4916 103.969 61.3028 104.013C61.1184 104.063 60.934 104.088 60.7496 104.088C60.5292 104.088 60.3133 104.065 60.102 104.02C59.8951 103.975 59.7084 103.901 59.542 103.798C59.3801 103.69 59.2475 103.55 59.144 103.379C59.0406 103.204 58.9844 102.988 58.9754 102.732H59.9603C59.9828 103.159 60.2481 103.373 60.7563 103.373C60.8283 103.373 60.9002 103.364 60.9722 103.346C61.0442 103.328 61.1071 103.301 61.1611 103.265C61.2196 103.229 61.2668 103.181 61.3028 103.123C61.3387 103.065 61.3567 102.995 61.3567 102.914C61.3567 102.676 61.1656 102.52 60.7833 102.448L60.2909 102.334C60.1514 102.302 60.0143 102.262 59.8793 102.212C59.7444 102.163 59.623 102.1 59.5151 102.023C59.4116 101.942 59.3284 101.844 59.2655 101.727C59.2025 101.605 59.171 101.461 59.171 101.295C59.171 101.092 59.216 100.919 59.3059 100.775C59.3959 100.627 59.5128 100.506 59.6567 100.411C59.8051 100.317 59.967 100.247 60.1424 100.202C60.3223 100.157 60.5 100.135 60.6754 100.135C60.8643 100.135 61.0487 100.157 61.2286 100.202C61.4129 100.247 61.5771 100.319 61.721 100.418C61.8694 100.517 61.9886 100.643 62.0786 100.796C62.173 100.949 62.2225 101.131 62.227 101.342H61.3163C61.2848 101.005 61.0599 100.836 60.6416 100.836C60.5787 100.836 60.5135 100.843 60.446 100.856C60.3831 100.87 60.3246 100.892 60.2706 100.924C60.2166 100.951 60.1717 100.991 60.1357 101.045C60.0997 101.095 60.0817 101.158 60.0817 101.234C60.0817 101.437 60.2414 101.569 60.5607 101.632L61.0194 101.733C61.1768 101.765 61.332 101.808 61.4849 101.862C61.6423 101.915 61.7817 101.985 61.9032 102.071C62.0291 102.156 62.1303 102.264 62.2067 102.394C62.2877 102.525 62.3282 102.685 62.3282 102.873ZM67.4325 102.873C67.4325 103.08 67.383 103.26 67.2841 103.413C67.1896 103.566 67.0659 103.694 66.913 103.798C66.7646 103.897 66.596 103.969 66.4071 104.013C66.2227 104.063 66.0383 104.088 65.8539 104.088C65.6335 104.088 65.4177 104.065 65.2063 104.02C64.9994 103.975 64.8128 103.901 64.6464 103.798C64.4845 103.69 64.3518 103.55 64.2484 103.379C64.1449 103.204 64.0887 102.988 64.0797 102.732H65.0646C65.0871 103.159 65.3525 103.373 65.8607 103.373C65.9326 103.373 66.0046 103.364 66.0765 103.346C66.1485 103.328 66.2114 103.301 66.2654 103.265C66.3239 103.229 66.3711 103.181 66.4071 103.123C66.4431 103.065 66.4611 102.995 66.4611 102.914C66.4611 102.676 66.2699 102.52 65.8876 102.448L65.3952 102.334C65.2558 102.302 65.1186 102.262 64.9837 102.212C64.8487 102.163 64.7273 102.1 64.6194 102.023C64.5159 101.942 64.4327 101.844 64.3698 101.727C64.3068 101.605 64.2753 101.461 64.2753 101.295C64.2753 101.092 64.3203 100.919 64.4103 100.775C64.5002 100.627 64.6171 100.506 64.7611 100.411C64.9095 100.317 65.0714 100.247 65.2468 100.202C65.4267 100.157 65.6043 100.135 65.7797 100.135C65.9686 100.135 66.153 100.157 66.3329 100.202C66.5173 100.247 66.6814 100.319 66.8253 100.418C66.9737 100.517 67.0929 100.643 67.1829 100.796C67.2773 100.949 67.3268 101.131 67.3313 101.342H66.4206C66.3891 101.005 66.1642 100.836 65.746 100.836C65.683 100.836 65.6178 100.843 65.5503 100.856C65.4874 100.87 65.4289 100.892 65.3749 100.924C65.321 100.951 65.276 100.991 65.24 101.045C65.204 101.095 65.1861 101.158 65.1861 101.234C65.1861 101.437 65.3457 101.569 65.665 101.632L66.1237 101.733C66.2812 101.765 66.4363 101.808 66.5892 101.862C66.7466 101.915 66.8861 101.985 67.0075 102.071C67.1334 102.156 67.2346 102.264 67.3111 102.394C67.392 102.525 67.4325 102.685 67.4325 102.873Z" fill="white"/>
<path d="M32.69 244.07V252H33.88V248.88H34.87C36.21 248.88 37.64 248.43 37.64 246.49C37.64 244.9 36.58 244.07 35.07 244.07H32.69ZM33.88 247.79V245.15H34.77C35.48 245.15 36.46 245.15 36.46 246.49C36.46 247.79 35.45 247.79 34.77 247.79H33.88ZM38.4256 249.04C38.4256 250.99 39.7956 252.16 41.3456 252.16C42.9056 252.16 44.2756 250.98 44.2756 249.04C44.2756 247.09 42.8856 245.92 41.3456 245.92C39.8156 245.92 38.4256 247.07 38.4256 249.04ZM39.5356 249.04C39.5356 247.41 40.6156 246.94 41.3456 246.94C42.0856 246.94 43.1556 247.43 43.1556 249.04C43.1556 250.66 42.0856 251.13 41.3456 251.13C40.6256 251.13 39.5356 250.67 39.5356 249.04ZM49.8855 246.08H48.4655L47.2955 250.84L45.9155 246.08H44.7655L46.5755 252H47.9655L49.1755 247.1L50.3855 252H51.7755L53.5855 246.08H52.4355L51.0555 250.84L49.8855 246.08ZM59.4599 249.42C59.4599 248.94 59.4399 248.18 59.1699 247.52C58.6399 246.2 57.4999 245.92 56.7999 245.92C55.2399 245.92 54.0699 247.18 54.0699 249.08C54.0699 250.34 54.6699 252.16 57.0999 252.16C58.0699 252.16 58.6699 251.91 58.9799 251.78V250.65C58.5599 250.89 58.0399 251.16 57.1299 251.16C55.9999 251.16 55.2699 250.63 55.1799 249.42H59.4599ZM55.1899 248.51C55.3099 247.35 56.0899 246.92 56.7799 246.92C57.1199 246.92 58.1999 247.05 58.3399 248.51H55.1899ZM61.6811 252V248.68C61.6811 247.37 62.4011 246.9 63.5111 246.95V245.92C62.7011 245.9 62.1011 246.13 61.6611 246.79V246.08H60.5711V252H61.6811ZM69.6455 249.42C69.6455 248.94 69.6255 248.18 69.3555 247.52C68.8255 246.2 67.6855 245.92 66.9855 245.92C65.4255 245.92 64.2555 247.18 64.2555 249.08C64.2555 250.34 64.8555 252.16 67.2855 252.16C68.2555 252.16 68.8555 251.91 69.1655 251.78V250.65C68.7455 250.89 68.2255 251.16 67.3155 251.16C66.1855 251.16 65.4555 250.63 65.3655 249.42H69.6455ZM65.3755 248.51C65.4955 247.35 66.2755 246.92 66.9655 246.92C67.3055 246.92 68.3855 247.05 68.5255 248.51H65.3755ZM74.9366 252H76.0366V243.7H74.9166V246.76C74.7266 246.55 74.1366 245.92 73.0966 245.92C71.4566 245.92 70.4566 247.31 70.4566 249.04C70.4566 250.78 71.4666 252.16 73.0966 252.16C73.3666 252.16 74.2166 252.16 74.9366 251.28V252ZM74.9566 249.04C74.9566 250.77 73.8866 251.13 73.2566 251.13C72.0566 251.13 71.5766 250.08 71.5766 249.04C71.5766 247.97 72.0766 246.94 73.2566 246.94C73.8766 246.94 74.9566 247.3 74.9566 249.04ZM81.8466 251.28C82.5566 252.16 83.4166 252.16 83.6766 252.16C85.3166 252.16 86.3166 250.78 86.3166 249.04C86.3166 247.31 85.3166 245.92 83.6866 245.92C82.6366 245.92 82.0566 246.55 81.8666 246.76V243.7H80.7466V252H81.8466V251.28ZM81.8266 249.04C81.8266 247.3 82.8966 246.94 83.5266 246.94C84.7066 246.94 85.2066 247.97 85.2066 249.04C85.2066 250.08 84.7266 251.13 83.5266 251.13C82.8966 251.13 81.8266 250.77 81.8266 249.04ZM87.7166 254.66H88.8366L92.2666 246.08H91.0866L89.5466 250.05L88.0166 246.08H86.8266L88.9766 251.46L87.7166 254.66Z" fill="white"/>
<path d="M97 241H100.127V248L105.672 241L109.727 241L115.001 241C117.686 241 119.4 243.173 119.4 245.577C119.4 247.981 117.576 249.733 115.027 249.733L119.327 255H115.272L108.84 246.88H114.865C115.491 246.88 116.09 246.385 116.09 245.47C116.09 244.556 115.491 244.061 114.865 244.061H107.302L104.182 248L109.727 255H105.672L100.127 248V255H97V241Z" fill="white"/>
<path d="M53.7068 71.7202L41.1201 55.1868V71.7202H32V34.28L41.1201 29V50.0532L65.4544 29H76.1744L68.4911 35.8864L49.8134 52.6268L64.8535 71.7202H53.7068Z" fill="white"/>
<path d="M76.1744 35.8864V29L68.4911 35.8864H76.1744Z" fill="white"/>
<path fill-rule="evenodd" clip-rule="evenodd" d="M76.1744 71.7202V41.9601H67.0544V77L76.1744 71.7202Z" fill="white"/>
<path fill-rule="evenodd" clip-rule="evenodd" d="M93.7704 43.0801C92.1703 44.0045 90.837 45.2845 89.7703 46.9201V40.8865L80.6503 46.1665L80.6503 71.7202H89.7703V57.9068C89.7703 55.4535 90.3392 53.7468 91.477 52.7868C92.6148 51.7912 94.3215 51.2935 96.597 51.2935H99.1037V41.6401C97.1482 41.6401 95.3704 42.1201 93.7704 43.0801Z" fill="white"/>
<path fill-rule="evenodd" clip-rule="evenodd" d="M101.223 48.7334C100.085 51.0446 99.5162 53.729 99.5162 56.7868C99.5162 59.8446 100.085 62.5469 101.223 64.8935C102.396 67.2047 103.978 69.0002 105.97 70.2802C107.961 71.5247 110.165 72.1469 112.583 72.1469C114.681 72.1469 116.512 71.7202 118.076 70.8669C119.676 70.0136 120.921 68.8936 121.81 67.5069V74.0003L130.93 68.7202V41.9601H121.81V46.1734C120.956 44.7868 119.73 43.6668 118.13 42.8134C116.565 41.9601 114.734 41.5334 112.636 41.5334C110.183 41.5334 107.961 42.1556 105.97 43.4001C103.978 44.6445 102.396 46.4223 101.223 48.7334ZM119.89 51.4535C121.17 52.769 121.81 54.5646 121.81 56.8402C121.81 59.1157 121.17 60.9113 119.89 62.2269C118.645 63.5424 117.116 64.2002 115.303 64.2002C113.49 64.2002 111.943 63.5424 110.663 62.2269C109.418 60.8757 108.796 59.0624 108.796 56.7868C108.796 54.5113 109.418 52.7335 110.663 51.4535C111.943 50.1379 113.49 49.4801 115.303 49.4801C117.116 49.4801 118.645 50.1379 119.89 51.4535Z" fill="white"/>
<path d="M326.872 233.393L321.765 245.612C319.612 250.442 322.107 255.52 327.959 255.52H335.183C340.071 248.508 348.25 238.605 357.853 230.314C354.229 225.971 349.675 221.138 347.273 218.787L338.271 222.079C334.47 223.492 332.241 225.335 330.826 227.013C328.736 229.492 327.502 231.869 326.872 233.393Z" fill="#E6002D"/>
<path d="M357.853 230.314C348.25 238.605 340.071 248.508 335.183 255.52H373.682C370.638 248.843 364.604 239.276 360.99 234.296C360.114 233.089 359.033 231.727 357.853 230.314Z" fill="#005484"/>
<path d="M407.163 244.049L400.167 216.922C399.041 212.461 397.619 209.188 395.513 207.221C384.361 211.952 373.014 217.593 359.086 229.265C358.673 229.611 358.262 229.961 357.853 230.314C359.033 231.727 360.114 233.089 360.99 234.296C364.604 239.276 370.638 248.843 373.682 255.52H396.253C400.153 255.52 404.22 254.329 406.032 252.017C408.048 249.446 407.861 246.734 407.163 244.049Z" fill="#003A64"/>
<path d="M392.357 205.41C388.06 204.151 381.89 206.072 378.416 207.401L347.273 218.787C349.675 221.138 354.229 225.971 357.853 230.314C358.262 229.961 358.673 229.611 359.086 229.265C373.014 217.593 384.361 211.952 395.513 207.221C394.6 206.369 393.559 205.762 392.357 205.41Z" fill="#C7161D"/>
<path d="M409.612 243.412L402.621 216.303C402.62 216.301 402.62 216.299 402.619 216.297C401.47 211.745 399.906 207.861 397.24 205.372C396.051 204.26 394.665 203.448 393.068 202.981C390.343 202.183 387.252 202.434 384.595 202.951C381.892 203.477 379.338 204.339 377.53 205.03L346.404 216.41L337.402 219.702L337.402 219.702L337.389 219.707C333.186 221.27 330.592 223.365 328.892 225.382C326.611 228.086 325.25 230.694 324.536 232.421C324.535 232.423 324.534 232.424 324.534 232.426L319.441 244.61C318.1 247.639 318.12 250.973 319.67 253.647C321.263 256.394 324.243 258.051 327.959 258.051H335.183H373.682H396.253C398.443 258.051 400.713 257.719 402.738 257.033C404.728 256.358 406.703 255.264 408.024 253.579C410.766 250.081 410.386 246.386 409.612 243.412C409.612 243.412 409.612 243.412 409.612 243.412Z" stroke="white" stroke-width="5.06176"/>
<path d="M389.383 242.651H388.009L387.646 244.824H392.633L392.843 243.564H389.23L389.383 242.651Z" fill="white"/>
<path fill-rule="evenodd" clip-rule="evenodd" d="M383.773 247.082L384.75 241.225H387.151L386.913 242.651L386.412 245.656H393.614L394.115 242.651H388.009L388.246 241.225H396.686L395.947 245.656C395.841 246.142 395.556 246.52 395.086 246.763C394.526 247.006 393.945 247.082 393.376 247.082H383.773ZM395.363 238.918L395.226 239.738H386.706L386.843 238.918C385.647 239.464 384.419 239.899 383.159 240.223L382.981 239.161C384.512 238.564 385.967 237.816 387.346 236.915C388.093 236.419 388.807 235.893 389.485 235.337C390.087 234.841 390.644 234.305 391.157 233.729H392.848C393.543 234.963 394.462 236.04 395.605 236.961C396.685 237.851 397.905 238.579 399.264 239.146L398.669 240.178C397.477 239.894 396.375 239.475 395.363 238.918ZM394.348 238.311C393.333 237.644 392.424 236.875 391.623 236.005C390.506 236.885 389.319 237.654 388.06 238.311H394.348Z" fill="white"/>
<path fill-rule="evenodd" clip-rule="evenodd" d="M373.502 235.99L373.569 235.592C373.661 235.041 373.282 234.593 372.723 234.593H367.768L367.535 235.99H368.059L366.623 244.609C366.345 244.649 366.071 244.674 365.799 244.685L365.753 246.172C367.125 245.99 368.502 245.777 369.883 245.534L369.555 247.492H370.569C370.941 247.492 371.252 247.355 371.5 247.082L371.663 247.522C372.705 247.158 373.695 246.693 374.635 246.126C375.511 245.6 376.263 244.948 376.889 244.169C377.222 245.008 377.745 245.721 378.459 246.308C379.134 246.854 379.927 247.234 380.839 247.446L381.435 246.505C380.533 246.101 379.812 245.524 379.272 244.776C378.649 243.916 378.27 242.95 378.133 241.877L378.138 241.847H381.705L381.951 240.375H378.502L378.871 238.159H381.999L382.242 236.703H379.909C380.333 236.389 380.733 236.05 381.11 235.686C381.543 235.251 382.119 234.507 382.479 233.76H380.428C380.083 234.402 379.048 235.879 378.134 236.703H377.221L377.884 236.278C377.382 235.408 376.996 234.65 376.592 233.76L374.812 233.76C374.948 234.468 375.228 235.145 375.627 235.716C375.981 236.161 376.451 236.49 377.035 236.703H374.246L374.003 238.159H376.741L376.372 240.375H373.244L372.999 241.847H376.008C375.662 242.838 375.1 243.744 374.321 244.563C373.574 245.322 372.72 245.949 371.758 246.445L373.502 235.99ZM368.927 242.135L368.557 244.366L370.111 244.169L370.449 242.135H368.927ZM371.474 235.99H369.952L369.656 237.765H371.178L371.474 235.99ZM370.957 239.085H369.436L369.147 240.815H370.669L370.957 239.085Z" fill="white"/>
<path d="M337.717 239.594C338.012 239.594 338.235 239.387 338.282 239.131C338.301 239.031 338.295 238.924 338.261 238.833L337.642 237.119C338.304 236.863 338.808 236.316 338.939 235.604C339.122 234.611 338.474 233.924 337.422 233.924H335.57C335.293 233.924 335.092 234.098 335.044 234.363L334.176 239.081C334.118 239.395 334.292 239.594 334.578 239.594C334.873 239.594 335.111 239.395 335.169 239.081L335.492 237.326C335.498 237.293 335.518 237.276 335.552 237.276H336.62L337.286 239.288C337.355 239.503 337.507 239.594 337.717 239.594ZM336.933 236.399H335.713C335.679 236.399 335.665 236.383 335.672 236.349L335.947 234.851C335.953 234.818 335.973 234.802 336.007 234.802H337.227C337.749 234.802 338.044 235.116 337.955 235.604C337.866 236.085 337.455 236.399 336.933 236.399Z" fill="white"/>
<path d="M338.737 239.139C338.685 239.42 338.88 239.594 339.133 239.594C339.351 239.594 339.551 239.47 339.666 239.255L340.131 238.377H342.319L342.469 239.255C342.505 239.47 342.659 239.594 342.878 239.594C343.13 239.594 343.389 239.42 343.441 239.139C343.453 239.073 343.449 239.006 343.441 238.957L342.622 234.437C342.56 234.09 342.405 233.883 342.06 233.883C341.715 233.883 341.491 234.09 341.301 234.437L338.804 238.957C338.778 239.006 338.749 239.073 338.737 239.139ZM340.602 237.508L341.779 235.315H341.805L342.176 237.508H340.602Z" fill="white"/>
<path d="M344.076 239.081C344.018 239.395 344.192 239.594 344.478 239.594C344.764 239.594 345.011 239.395 345.069 239.081L345.931 234.396C345.989 234.081 345.815 233.883 345.529 233.883C345.242 233.883 344.995 234.081 344.938 234.396L344.076 239.081Z" fill="white"/>
<path d="M346.079 239.064C346.024 239.362 346.182 239.553 346.485 239.553H349.288C349.599 239.553 349.826 239.371 349.873 239.114C349.921 238.857 349.761 238.675 349.449 238.675H347.194C347.16 238.675 347.146 238.659 347.152 238.626L347.93 234.396C347.988 234.081 347.814 233.883 347.528 233.883C347.242 233.883 346.995 234.081 346.937 234.396L346.079 239.064Z" fill="white"/>
<path d="M357.101 234.537C357.13 234.47 357.152 234.396 357.161 234.346C357.21 234.081 357.07 233.883 356.767 233.883C356.531 233.883 356.34 234.007 356.206 234.322L354.707 237.806H354.69L354.33 234.322C354.3 234.024 354.175 233.883 353.922 233.883C353.67 233.883 353.492 234.024 353.353 234.322L351.736 237.806H351.719L351.485 234.322C351.459 234.007 351.322 233.883 351.078 233.883C350.775 233.883 350.561 234.081 350.513 234.346C350.503 234.396 350.498 234.47 350.503 234.537L350.913 239.081C350.954 239.453 351.079 239.594 351.349 239.594C351.618 239.594 351.805 239.445 351.973 239.081L353.594 235.621H353.611L353.959 239.081C353.993 239.445 354.126 239.594 354.395 239.594C354.664 239.594 354.85 239.453 355.02 239.081L357.101 234.537Z" fill="white"/>
<path d="M356.285 239.139C356.233 239.42 356.428 239.594 356.681 239.594C356.899 239.594 357.099 239.47 357.214 239.255L357.679 238.377H359.867L360.017 239.255C360.053 239.47 360.207 239.594 360.426 239.594C360.678 239.594 360.937 239.42 360.989 239.139C361.001 239.073 360.997 239.006 360.989 238.957L360.17 234.437C360.108 234.09 359.953 233.883 359.608 233.883C359.263 233.883 359.039 234.09 358.849 234.437L356.352 238.957C356.326 239.006 356.297 239.073 356.285 239.139ZM358.15 237.508L359.327 235.315H359.353L359.724 237.508H358.15Z" fill="white"/>
<path d="M362.702 239.594C362.988 239.594 363.235 239.395 363.293 239.081L363.629 237.252L365.634 234.586C365.702 234.495 365.744 234.404 365.759 234.322C365.806 234.065 365.654 233.883 365.385 233.883C365.2 233.883 365.032 233.974 364.896 234.164L363.336 236.283H363.311L362.522 234.164C362.455 233.982 362.33 233.883 362.136 233.883C361.867 233.883 361.632 234.065 361.584 234.322C361.569 234.404 361.578 234.495 361.611 234.586L362.636 237.252L362.3 239.081C362.242 239.395 362.416 239.594 362.702 239.594Z" fill="white"/>
<path d="M343.23 247.434C344.441 247.434 345.482 246.673 345.723 245.365L346.307 242.186C346.365 241.872 346.191 241.673 345.905 241.673C345.619 241.673 345.372 241.872 345.314 242.186L344.732 245.348C344.589 246.126 344.047 246.557 343.391 246.557C342.743 246.557 342.359 246.126 342.502 245.348L343.084 242.186C343.142 241.872 342.968 241.673 342.682 241.673C342.395 241.673 342.148 241.872 342.091 242.186L341.506 245.365C341.266 246.673 342.026 247.434 343.23 247.434Z" fill="white"/>
<path d="M346.412 246.904C346.356 247.211 346.517 247.384 346.787 247.384C347.048 247.384 347.273 247.211 347.329 246.904L347.975 243.395H348.008L349.459 246.904C349.586 247.219 349.741 247.384 350.035 247.384C350.372 247.384 350.632 247.161 350.699 246.797L351.553 242.153C351.609 241.847 351.447 241.673 351.187 241.673C350.917 241.673 350.692 241.847 350.635 242.153L349.99 245.663H349.965L348.506 242.153C348.379 241.839 348.224 241.673 347.938 241.673C347.593 241.673 347.333 241.897 347.266 242.261L346.412 246.904Z" fill="white"/>
<path d="M351.697 246.871C351.639 247.186 351.813 247.384 352.099 247.384C352.385 247.384 352.632 247.186 352.69 246.871L353.552 242.186C353.609 241.872 353.436 241.673 353.149 241.673C352.863 241.673 352.616 241.872 352.558 242.186L351.697 246.871Z" fill="white"/>
<path d="M353.959 244.529C353.808 245.348 353.781 245.679 353.841 246.085C353.973 246.971 354.611 247.434 355.596 247.434C356.589 247.434 357.398 246.971 357.855 246.085C358.065 245.679 358.159 245.348 358.31 244.529C358.461 243.709 358.488 243.378 358.428 242.973C358.296 242.087 357.658 241.623 356.664 241.623C355.68 241.623 354.871 242.087 354.413 242.973C354.204 243.378 354.11 243.709 353.959 244.529ZM357.3 244.529C357.161 245.282 357.073 245.58 356.945 245.82C356.709 246.275 356.321 246.557 355.757 246.557C355.202 246.557 354.917 246.275 354.849 245.82C354.809 245.58 354.83 245.282 354.969 244.529C355.107 243.776 355.196 243.478 355.324 243.238C355.559 242.782 355.948 242.501 356.503 242.501C357.067 242.501 357.352 242.782 357.42 243.238C357.46 243.478 357.438 243.776 357.3 244.529Z" fill="white"/>
<path d="M358.714 246.904C358.658 247.211 358.82 247.384 359.089 247.384C359.35 247.384 359.575 247.211 359.632 246.904L360.277 243.395H360.311L361.761 246.904C361.888 247.219 362.043 247.384 362.337 247.384C362.674 247.384 362.934 247.161 363.001 246.797L363.855 242.153C363.911 241.847 363.75 241.673 363.489 241.673C363.219 241.673 362.994 241.847 362.938 242.153L362.292 245.663H362.267L360.808 242.153C360.681 241.839 360.526 241.673 360.24 241.673C359.895 241.673 359.635 241.897 359.568 242.261L358.714 246.904Z" fill="white"/>
<path d="M376.49 222.368L376.743 220.925H373.69C373.829 220.064 373.986 219.204 374.16 218.343H372.004L371.517 220.925H370.654C370.888 220.378 371.095 219.821 371.275 219.254L369.236 219.178C368.703 220.839 367.978 222.449 367.06 224.008L367.717 224.297C368.586 223.801 369.291 223.158 369.832 222.368H371.246C371.11 223.077 370.976 223.775 370.844 224.464C370.817 224.555 370.797 224.636 370.784 224.707H367.559L367.303 226.165H370.321C369.847 227.228 369.146 228.18 368.216 229.021C367.228 229.871 366.137 230.585 364.943 231.162L365.294 232.013C366.472 231.588 367.599 231.066 368.673 230.448C369.648 229.871 370.502 229.167 371.234 228.337C371.564 229.208 372.09 229.947 372.811 230.555C373.556 231.162 374.415 231.638 375.39 231.982L376.107 231.041C375.195 230.534 374.446 229.891 373.858 229.112C373.254 228.231 372.891 227.249 372.771 226.165H376.289L376.545 224.707H372.992C373.006 224.626 373.027 224.54 373.055 224.449C373.175 223.76 373.303 223.067 373.437 222.368H376.49ZM366.064 218.48L364.021 218.328C363.534 219.269 362.977 220.181 362.351 221.062C361.847 221.771 361.292 222.444 360.686 223.082L361.055 223.826C361.392 223.674 361.729 223.492 362.065 223.279L361.884 224.312H362.936L362.673 225.816H360.862L360.616 227.213H362.427L361.969 229.826C361.947 230.018 361.88 230.2 361.77 230.372C361.638 230.534 361.46 230.666 361.235 230.767L362.057 231.982C363.499 231.233 364.923 230.459 366.328 229.659L366.202 228.702L364.193 229.537L364.601 227.213H366.688L366.933 225.816H364.846L365.11 224.312H366.662L366.913 222.884H362.652C363.181 222.489 363.656 222.044 364.077 221.548H367.923L368.168 220.15H365.115C365.453 219.604 365.769 219.047 366.064 218.48Z" fill="white"/>
<path d="M393.856 221.107L394.08 219.831H391.027C391.628 219.487 392.172 219.072 392.66 218.586L390.707 217.918C390.072 218.586 389.409 219.224 388.716 219.831H387.474L387.755 219.604C387.5 219.29 387.264 218.961 387.049 218.616C386.886 218.363 386.717 218.115 386.541 217.872L384.672 218.692C384.708 218.753 384.749 218.814 384.796 218.875C384.963 219.097 385.145 219.31 385.339 219.512C385.488 219.644 385.654 219.75 385.835 219.831H382.903L382.679 221.107H386.715L386.21 222.019H383.209L381.949 229.203H389.141C389.496 229.213 389.857 229.188 390.224 229.127C390.496 229.086 390.763 229.005 391.026 228.884C391.393 228.692 391.614 228.413 391.69 228.049L392.747 222.019H388.159C388.58 221.786 388.92 221.482 389.182 221.107H393.856ZM391.98 231.603L392.613 230.16H384.592C384.085 230.17 383.595 230.145 383.122 230.084C382.74 230.033 382.379 229.932 382.037 229.78C381.815 229.669 381.615 229.532 381.436 229.37C381.182 229.117 380.986 228.823 380.849 228.489L381.774 223.219H377.927L377.669 224.692H379.273L378.602 228.519L376.306 230.296L377.138 231.846L379.532 229.902C379.759 230.246 380.034 230.55 380.355 230.813C380.58 230.975 380.826 231.112 381.094 231.223C381.481 231.375 381.895 231.476 382.334 231.527C382.889 231.577 383.448 231.603 384.012 231.603H391.98ZM381.793 222.125L382.627 221.502C382.308 221.026 382.002 220.54 381.71 220.044C381.388 219.518 381.066 218.996 380.742 218.48L378.627 219.33C378.67 219.411 378.714 219.487 378.759 219.558C378.985 219.912 379.228 220.262 379.49 220.606C379.65 220.809 379.834 221.001 380.044 221.183C380.534 221.598 381.118 221.912 381.793 222.125ZM385.352 223.173H390.199L390.045 224.054H385.198L385.352 223.173ZM384.497 228.049L384.652 227.168H389.498L389.344 228.049H384.497ZM385.001 225.178H389.847L389.693 226.059H384.846L385.001 225.178Z" fill="white"/>
</g>
</g>
<defs>
<filter id="filter0_d_523_384" x="0" y="0" width="450" height="292.639" filterUnits="userSpaceOnUse" color-interpolation-filters="sRGB">
<feFlood flood-opacity="0" result="BackgroundImageFix"/>
<feColorMatrix in="SourceAlpha" type="matrix" values="0 0 0 0 0 0 0 0 0 0 0 0 0 0 0 0 0 0 127 0" result="hardAlpha"/>
<feOffset dy="4"/>
<feGaussianBlur stdDeviation="6"/>
<feComposite in2="hardAlpha" operator="out"/>
<feColorMatrix type="matrix" values="0 0 0 0 0 0 0 0 0 0 0 0 0 0 0 0 0 0 0.25 0"/>
<feBlend mode="normal" in2="BackgroundImageFix" result="effect1_dropShadow_523_384"/>
<feBlend mode="normal" in="SourceGraphic" in2="effect1_dropShadow_523_384" result="shape"/>
</filter>
<linearGradient id="paint0_linear_523_384" x1="12" y1="8" x2="438" y2="277" gradientUnits="userSpaceOnUse">
<stop stop-color="#255078"/>
<stop offset="1" stop-color="#5E94C6"/>
</linearGradient>
<linearGradient id="paint1_linear_523_384" x1="150.623" y1="-5.5" x2="150.623" y2="278.5" gradientUnits="userSpaceOnUse">
<stop offset="0.0311263" stop-color="white"/>
<stop offset="1" stop-color="white" stop-opacity="0"/>
</linearGradient>
<clipPath id="clip0_523_384">
<rect x="12" y="8" width="426" height="268.639" rx="12" fill="white"/>
</clipPath>
</defs>
</svg>
