<svg width="2111" height="400" viewBox="0 0 2111 400" fill="none" xmlns="http://www.w3.org/2000/svg">
<path d="M0 0.00385905H89.3499V200.002L247.765 0.00385905L363.621 0L514.315 0.00385905C591.02 0.00385905 640 62.0722 640 130.761C640 199.45 587.875 249.519 515.059 249.519L637.915 400H522.058L338.295 168.002H510.438C528.308 168.002 545.438 153.865 545.438 127.727C545.438 101.589 528.308 87.4513 510.438 87.4513H294.352L205.207 199.995L363.632 400H247.776L89.3499 200.002V400H0V0.00385905Z" fill="#0F1732"/>
<path d="M879.78 260.72L877.8 242.13L892.76 240.92L894.74 259.07L931.48 255.22L932.69 269.08L896.28 272.93L898.26 291.19L938.74 287.12L939.95 300.98L899.8 305.05L903.43 337.72L888.14 338.82L884.73 306.59L843.7 310.66L842.38 296.69L883.19 292.62L881.32 274.58L845.79 278.32L844.58 264.46L879.78 260.72ZM1019.59 241.8H1034.22V257.97H1070.3L1070.19 266.77C1070.08 277.44 1067.77 304.5 1050.06 320.01C1038.84 329.8 1023.66 335.19 1000.67 337.94L994.95 323.97C1012.55 322.87 1041.15 318.69 1049.62 296.36C1052.59 288.66 1054.9 278.54 1054.9 271.39H998.69V296.47H984.39V257.97H1019.59V241.8ZM1065.68 254.01L1056.33 255.77C1055.45 249.72 1054.35 244.22 1052.59 238.28L1061.5 236.96C1063.26 241.91 1064.8 247.96 1065.68 254.01ZM1080.53 252.69L1071.18 254.34C1070.41 249.17 1069.09 242.79 1067.44 237.73L1076.35 236.41C1078.77 242.68 1080.09 249.83 1080.53 252.69ZM1130.58 330.46L1123.1 320.01C1146.42 310.77 1161.93 290.64 1164.24 287.78H1126.29V275.57H1167.65V261.16H1180.19V275.57H1201.42V287.78H1180.41L1180.63 325.4C1180.63 334.75 1177.11 338.93 1163.8 338.93C1160.5 338.93 1156.43 338.71 1153.13 338.49L1150.93 326.28C1154.89 326.72 1160.17 327.05 1164.13 327.05C1167.65 327.05 1167.98 326.06 1167.98 324.3L1167.87 300.32C1152.36 319.68 1136.96 327.27 1130.58 330.46ZM1279.19 241.69H1294.92V268.97C1314.06 274.03 1331.99 282.5 1349.04 292.4L1341.56 307.69C1331.77 301.09 1307.68 287.89 1294.92 284.48V338.71H1279.19V241.69ZM1395.9 337.83L1387.21 325.62C1411.85 316.16 1437.04 293.83 1449.14 262.15H1393.59V248.07H1468.83C1467.4 255.22 1464.1 271.72 1448.59 293.72C1462.01 304.06 1473.78 314.18 1485.22 325.51L1472.79 337.72C1462.67 325.95 1451.56 315.06 1439.79 304.83C1427.58 318.91 1413.06 330.79 1395.9 337.83ZM1570.47 342.34L1564.75 333.54C1551.44 336.84 1526.47 339.81 1521.96 340.25L1520.31 327.16C1524.16 326.83 1528.12 326.61 1538.35 325.51V296.91H1521.3V285.03H1538.35V277.22H1528.56V271.06C1525.81 273.59 1524.49 274.58 1522.73 275.79L1518.66 262.04C1526.47 256.87 1534.17 247.96 1538.02 238.28H1552.1C1555.51 245.43 1561.56 252.03 1568.05 255.88L1560.9 266.99C1560.46 266.66 1560.46 266.66 1560.02 266.33V277.22H1550.23V285.03H1564.53V296.91H1550.23V324.08C1557.16 323.09 1561.56 322.1 1565.08 321.44L1565.3 328.48C1579.93 320.12 1585.1 307.03 1587.52 297.24H1567.83V284.26H1589.5C1589.5 283.27 1589.61 282.06 1589.61 280.74V270.62H1580.15C1578.06 276.89 1576.85 279.09 1575.42 281.84L1563.98 276.12C1568.16 268.86 1571.68 257.53 1572.45 243.01L1585.1 244.66C1584.88 247.85 1584.55 251.04 1583.34 257.86H1589.61V238.28H1602.92V257.86H1622.72V270.62H1602.92V280.52C1602.92 280.96 1602.81 283.49 1602.81 284.26H1624.81V297.24H1604.9C1609.63 311.54 1616.23 321.33 1627.01 329.8L1618.54 342.12C1609.74 334.2 1602.7 324.74 1597.2 309.56C1594.56 315.83 1587.85 332.22 1570.47 342.34ZM1534.06 265.56H1558.92C1556.06 263.36 1550.45 257.86 1545.61 250.05C1541.1 257.53 1536.59 262.81 1534.06 265.56ZM1556.17 300.76L1565.63 302.3C1565.3 306.7 1563.76 314.62 1561.78 319.46L1553.2 317.7C1554.85 312.42 1555.18 309.56 1556.17 300.76ZM1521.96 303.62L1531.31 301.86C1533.51 310.99 1534.06 313.41 1534.61 320.45L1524.6 322.43C1524.38 318.58 1523.83 311.65 1521.96 303.62ZM1684.98 260.5V258.08L1674.64 267.32C1671.01 261.49 1664.85 253.9 1658.58 248.29L1668.04 239.38C1671.01 241.8 1678.93 248.07 1684.98 257.2V248.95H1700.05C1698.51 246.31 1696.31 242.35 1695.54 241.03L1708.19 237.62C1709.51 239.6 1711.05 242.02 1714.13 248.95H1730.74C1732.5 245.98 1734.48 241.14 1735.58 237.73L1749.66 240.26C1748.23 243.12 1745.81 247.08 1744.6 248.95H1760.88V260.5H1727.55C1726.89 262.26 1726.01 263.91 1725.02 265.67H1754.94V320.78H1691.14V265.67H1711.71C1712.48 263.91 1713.03 262.04 1713.36 260.5H1684.98ZM1741.52 289.54H1704.56V296.03H1741.52V289.54ZM1741.52 275.46H1704.56V281.62H1741.52V275.46ZM1741.52 303.95H1704.56V310.77H1741.52V303.95ZM1657.81 292.84V279.86H1680.91V313.74C1684.32 326.39 1701.92 326.39 1707.64 326.39H1762.42L1759.78 339.26H1706.98C1697.96 339.26 1685.53 339.26 1677.83 327.16C1672.77 333.98 1665.29 339.7 1662.1 342.01L1656.49 326.94C1659.46 325.4 1664.85 321.88 1667.71 319.13V292.84H1657.81Z" fill="#0F1732"/>
<path d="M846.44 67.84H870.74V128.32L930.68 67.84H960.92L908.18 120.04L960.92 196H931.94L890.9 136.24L870.74 155.86V196H846.44V67.84ZM990.903 91.06H968.583V69.82H990.903V91.06ZM991.083 196H968.403V103.12H991.083V196ZM1062.3 127.96L1071.3 103.12H1094.88L1060.32 196H1034.22L999.841 103.12H1024.14L1033.14 128.14C1036.92 139.84 1041.78 155.5 1047.72 175.48C1052.22 160.54 1057.08 144.7 1062.3 127.96ZM1190.25 149.56C1190.25 178.18 1172.25 198.16 1143.09 198.16C1114.11 198.16 1095.75 178.18 1095.75 149.56C1095.75 120.94 1114.11 100.96 1143.09 100.96C1172.43 100.96 1190.25 120.58 1190.25 149.56ZM1143.09 179.44C1158.03 179.44 1167.21 168.82 1167.21 149.56C1167.21 130.3 1158.03 119.68 1143.09 119.68C1127.97 119.68 1118.97 130.3 1118.97 149.56C1118.97 168.82 1127.97 179.44 1143.09 179.44ZM1248.15 103.12V120.4H1229.79V170.62C1229.79 176.56 1232.67 178.72 1240.41 178.72H1248.15V196C1242.57 196.54 1238.61 196.72 1236.27 196.72C1216.29 196.72 1207.29 189.7 1207.29 172.96V120.4H1192.89V103.12H1207.29V76.12H1229.79V103.12H1248.15ZM1350.03 149.56C1350.03 178.18 1332.03 198.16 1302.87 198.16C1273.89 198.16 1255.53 178.18 1255.53 149.56C1255.53 120.94 1273.89 100.96 1302.87 100.96C1332.21 100.96 1350.03 120.58 1350.03 149.56ZM1302.87 179.44C1317.81 179.44 1326.99 168.82 1326.99 149.56C1326.99 130.3 1317.81 119.68 1302.87 119.68C1287.75 119.68 1278.75 130.3 1278.75 149.56C1278.75 168.82 1287.75 179.44 1302.87 179.44ZM1399.75 198.52C1372.75 198.52 1358.53 187.9 1357.27 166.48H1379.41C1380.67 178 1386.43 182.32 1400.11 182.32C1412.35 182.32 1418.47 178.54 1418.47 171.16C1418.47 164.5 1414.15 161.26 1400.29 158.92L1389.67 157.12C1369.33 153.7 1359.25 144.34 1359.25 129.04C1359.25 111.58 1373.11 100.96 1397.77 100.96C1424.23 100.96 1437.91 111.4 1438.81 132.46H1417.39C1416.85 121.12 1410.19 117.16 1397.77 117.16C1386.97 117.16 1381.57 120.76 1381.57 127.96C1381.57 134.44 1386.25 137.32 1397.05 139.3L1408.75 141.1C1431.25 145.24 1440.97 153.52 1440.97 169.36C1440.97 188.08 1425.85 198.52 1399.75 198.52ZM1593.58 161.98L1594.66 181.06C1594.84 187.36 1596.28 192.4 1598.62 196H1573.6C1571.62 192.58 1570.36 187.54 1570.18 180.7L1569.64 166.66C1568.92 150.82 1562.8 145.78 1549.12 145.78H1517.44V196H1493.14V67.84H1551.28C1580.08 67.84 1596.46 81.88 1596.46 104.02C1596.46 118.96 1588.9 129.76 1575.04 134.62C1588.54 138.94 1593.04 147.58 1593.58 161.98ZM1517.44 87.82V126.7H1549.84C1563.34 126.7 1571.44 119.68 1571.44 106.72C1571.44 94.3 1563.34 87.82 1548.94 87.82H1517.44ZM1695.11 196H1672.43C1671.17 193.84 1670.45 190.06 1669.91 184.66C1663.61 193.66 1653.53 198.16 1640.03 198.16C1619.87 198.16 1606.55 188.08 1606.55 170.26C1606.55 153.16 1618.43 143.62 1642.19 141.28L1656.23 140.02C1665.41 138.76 1669.37 136.06 1669.37 129.4C1669.37 121.66 1664.87 117.88 1652.45 117.88C1639.31 117.88 1634.09 121.66 1633.19 132.64H1610.87C1612.13 111.58 1626.17 100.96 1652.63 100.96C1678.37 100.96 1691.33 110.32 1691.33 128.86V178.36C1691.33 186.46 1692.59 192.4 1695.11 196ZM1645.43 181.96C1658.93 181.96 1669.37 174.4 1669.37 159.28V150.82C1667.21 152.8 1663.61 154.06 1658.75 154.6L1646.51 156.04C1634.27 157.48 1629.77 161.62 1629.77 169.36C1629.77 177.28 1635.17 181.96 1645.43 181.96ZM1730.59 91.06H1708.27V69.82H1730.59V91.06ZM1730.77 196H1708.09V103.12H1730.77V196ZM1771.73 196H1749.05V67.84H1771.73V196ZM1892.82 137.86L1903.26 103.12H1927.56L1896.96 196H1873.2L1861.5 157.84C1858.44 147.22 1855.74 138.04 1853.58 130.12C1849.8 144.16 1847.1 153.34 1845.84 157.84L1834.32 196H1810.56L1779.96 103.12H1804.26L1814.7 137.86C1817.4 146.5 1820.46 157.3 1823.88 170.08C1826.94 158.02 1829.82 147.22 1832.7 137.68L1842.96 103.12H1864.56L1874.82 137.68C1877.7 147.22 1880.58 158.02 1883.64 170.08C1887.06 157.3 1890.12 146.68 1892.82 137.86ZM2016.26 196H1993.58C1992.32 193.84 1991.6 190.06 1991.06 184.66C1984.76 193.66 1974.68 198.16 1961.18 198.16C1941.02 198.16 1927.7 188.08 1927.7 170.26C1927.7 153.16 1939.58 143.62 1963.34 141.28L1977.38 140.02C1986.56 138.76 1990.52 136.06 1990.52 129.4C1990.52 121.66 1986.02 117.88 1973.6 117.88C1960.46 117.88 1955.24 121.66 1954.34 132.64H1932.02C1933.28 111.58 1947.32 100.96 1973.78 100.96C1999.52 100.96 2012.48 110.32 2012.48 128.86V178.36C2012.48 186.46 2013.74 192.4 2016.26 196ZM1966.58 181.96C1980.08 181.96 1990.52 174.4 1990.52 159.28V150.82C1988.36 152.8 1984.76 154.06 1979.9 154.6L1967.66 156.04C1955.42 157.48 1950.92 161.62 1950.92 169.36C1950.92 177.28 1956.32 181.96 1966.58 181.96ZM2078.3 126.52L2085.86 103.12H2109.62L2073.8 203.56C2066.06 224.44 2056.16 231.46 2033.84 231.46C2030.06 231.46 2026.82 231.28 2023.94 230.92V213.1H2032.58C2042.84 213.1 2047.88 206.8 2047.88 198.16C2047.88 193.84 2046.44 187.54 2043.56 179.44L2016.56 103.12H2041.04L2048.6 126.34C2054.18 143.8 2059.04 161.08 2063.36 178.18C2067.32 163.42 2072.36 146.14 2078.3 126.52Z" fill="#0F1732"/>
</svg>
