<svg width="64" height="64" viewBox="0 0 64 64" fill="none" xmlns="http://www.w3.org/2000/svg">
<rect width="64" height="64" rx="16" fill="white"/>
<rect width="64" height="64" rx="16" fill="url(#paint0_linear_95_6)"/>
<path d="M9.5449 26.0425C9.50674 26.0425 9.47063 26.0252 9.44672 25.9954L4.73608 20.1373C4.66979 20.0549 4.72847 19.9324 4.83425 19.9324H25.0041C25.1008 19.9324 25.1614 20.0366 25.1137 20.1206L11.582 43.9139C11.5408 43.9862 11.4422 43.9995 11.3834 43.9407L7.3659 39.9232C7.3258 39.8831 7.31744 39.8212 7.34547 39.7719L15.1537 26.0425H9.5449Z" fill="url(#paint1_linear_95_6)"/>
<path d="M31.5723 26.0425H34.8069L24.6682 43.8696C24.6204 43.9536 24.6811 44.0579 24.7777 44.0579H45.0198C46.9225 44.0579 48.6786 43.0363 49.6192 41.3824L59.381 24.2181C59.409 24.1688 59.4006 24.1068 59.3605 24.0667L55.2263 19.9326L48.1083 19.9327L44.7404 25.8545C44.6926 25.9384 44.7533 26.0427 44.8499 26.0427L51.7513 26.0425L45.1253 37.6932C45.0357 37.8507 44.8684 37.948 44.6872 37.948H34.6281L44.7667 20.1209C44.8144 20.0369 44.7538 19.9327 44.6572 19.9327L28.5284 19.9324C28.4831 19.9324 28.4413 19.9567 28.4189 19.9961L17.1719 39.7719C17.1438 39.8212 17.1522 39.8831 17.1923 39.9232L21.2099 43.9407C21.2687 43.9995 21.3673 43.9862 21.4085 43.9139L31.5723 26.0425Z" fill="url(#paint2_linear_95_6)"/>
<path d="M9.5449 26.0425C9.50674 26.0425 9.47063 26.0252 9.44672 25.9954L4.65477 20.0362C4.62119 19.9944 4.65091 19.9324 4.7045 19.9324V19.9324C13.8569 19.9324 19.6029 29.8104 15.0783 37.7662L11.556 43.9595C11.5279 44.0089 11.4606 44.0179 11.4205 43.9778L7.3659 39.9232C7.3258 39.8831 7.31744 39.8212 7.34547 39.7719L15.1537 26.0425H9.5449Z" fill="url(#paint3_linear_95_6)"/>
<path d="M31.5723 26.0425H34.8069L34.6783 26.2684C30.165 34.2044 35.8966 44.0579 45.0263 44.0579V44.0579C46.9249 44.0579 48.6774 43.0385 49.6161 41.388L56.4906 29.3003C58.2259 26.2491 57.7083 22.4146 55.2263 19.9326V19.9326L48.1083 19.9327L44.7404 25.8545C44.6926 25.9384 44.7533 26.0427 44.8499 26.0427L51.7513 26.0425L45.1253 37.6932C45.0357 37.8507 44.8684 37.948 44.6872 37.948H34.6281L44.7893 20.0812C44.8269 20.0149 44.7791 19.9327 44.7029 19.9327V19.9327C34.6589 19.9325 25.3882 25.325 20.4228 34.0558L17.1719 39.7719C17.1438 39.8212 17.1522 39.8831 17.1923 39.9232L21.2099 43.9407C21.2687 43.9995 21.3673 43.9862 21.4085 43.9139L31.5723 26.0425Z" fill="url(#paint4_linear_95_6)"/>
<defs>
<linearGradient id="paint0_linear_95_6" x1="64" y1="0" x2="0" y2="64" gradientUnits="userSpaceOnUse">
<stop stop-color="#182DF2"/>
<stop offset="1" stop-color="#9F18F2"/>
</linearGradient>
<linearGradient id="paint1_linear_95_6" x1="31.9999" y1="19.9324" x2="31.9999" y2="44.0579" gradientUnits="userSpaceOnUse">
<stop stop-color="white" stop-opacity="0.75"/>
<stop offset="1" stop-color="white"/>
</linearGradient>
<linearGradient id="paint2_linear_95_6" x1="31.9999" y1="19.9324" x2="31.9999" y2="44.0579" gradientUnits="userSpaceOnUse">
<stop stop-color="white" stop-opacity="0.75"/>
<stop offset="1" stop-color="white"/>
</linearGradient>
<linearGradient id="paint3_linear_95_6" x1="31.9999" y1="19.9324" x2="31.9999" y2="44.0579" gradientUnits="userSpaceOnUse">
<stop stop-color="white"/>
<stop offset="1" stop-color="white" stop-opacity="0.5"/>
</linearGradient>
<linearGradient id="paint4_linear_95_6" x1="31.9999" y1="19.9324" x2="31.9999" y2="44.0579" gradientUnits="userSpaceOnUse">
<stop stop-color="white"/>
<stop offset="1" stop-color="white" stop-opacity="0.5"/>
</linearGradient>
</defs>
</svg>
