<svg width="36" height="28" viewBox="0 0 36 28" fill="none" xmlns="http://www.w3.org/2000/svg">
<path fill-rule="evenodd" clip-rule="evenodd" d="M0 2C0 0.89543 0.89543 0 2 0H34C35.1046 0 36 0.89543 36 2C36 3.10457 35.1046 4 34 4H2C0.89543 4 0 3.10457 0 2Z" fill="#333333"/>
<path fill-rule="evenodd" clip-rule="evenodd" d="M0 14C0 12.8954 0.89543 12 2 12H34C35.1046 12 36 12.8954 36 14C36 15.1046 35.1046 16 34 16H2C0.89543 16 0 15.1046 0 14Z" fill="#333333"/>
<path fill-rule="evenodd" clip-rule="evenodd" d="M0 26C0 24.8954 0.89543 24 2 24H34C35.1046 24 36 24.8954 36 26C36 27.1046 35.1046 28 34 28H2C0.89543 28 0 27.1046 0 26Z" fill="#333333"/>
</svg>
