<svg width="800" height="352" viewBox="0 0 800 352" fill="none" xmlns="http://www.w3.org/2000/svg">
<path d="M72.5318 89.1053C71.9753 89.1053 71.4488 88.853 71.1001 88.4194L2.40314 2.98852C1.43643 1.78632 2.29222 0 3.83488 0H297.979C299.388 0 300.273 1.5207 299.576 2.74547L102.239 349.73C101.639 350.785 100.2 350.979 99.3427 350.121L40.7548 291.533C40.1699 290.948 40.048 290.045 40.4569 289.326L154.327 89.1053H72.5318Z" fill="url(#paint0_linear_34_19)"/>
<path d="M393.765 89.1053H440.935L293.08 349.084C292.383 350.309 293.268 351.83 294.677 351.83H589.875C617.622 351.83 643.232 336.933 656.949 312.813L799.308 62.4998C799.717 61.7809 799.595 60.8773 799.01 60.2925L738.719 0.00288748L634.915 0.00415039L585.8 86.3637C585.103 87.5885 585.988 89.1092 587.397 89.1092L688.042 89.1053L591.412 259.012C590.106 261.309 587.667 262.728 585.024 262.728H438.328L586.183 2.74962C586.879 1.52486 585.995 0.00417434 584.586 0.0041496L349.374 1.87688e-05C348.714 7.1663e-06 348.104 0.354702 347.777 0.928974L183.758 289.326C183.35 290.045 183.472 290.948 184.056 291.533L242.646 350.121C243.504 350.979 244.942 350.785 245.542 349.73L393.765 89.1053Z" fill="url(#paint1_linear_34_19)"/>
<path d="M72.5318 89.1053C71.9753 89.1053 71.4488 88.853 71.1001 88.4194L1.21737 1.5139C0.727653 0.904903 1.16118 0 1.94265 0C135.416 0 219.211 144.055 153.227 260.077L101.86 350.396C101.451 351.115 100.469 351.248 99.8839 350.662L40.7548 291.533C40.1699 290.948 40.048 290.045 40.4569 289.326L154.327 89.1053H72.5318Z" fill="url(#paint2_linear_34_19)"/>
<path d="M393.765 89.1053H440.935L439.061 92.4008C373.241 208.134 456.828 351.83 589.968 351.83C617.657 351.83 643.215 336.964 656.903 312.895L757.157 136.616C782.463 92.1192 774.915 36.1985 738.719 0.00288749L634.915 0.00420506L585.8 86.3637C585.103 87.5885 585.988 89.1093 587.397 89.1092L688.042 89.1053L591.412 259.012C590.106 261.309 587.667 262.728 585.024 262.728H438.328L586.512 2.17039C587.062 1.20403 586.364 0.00418099 585.252 0.00416146C438.777 0.00158894 303.579 78.6428 231.167 205.967L183.758 289.326C183.35 290.045 183.472 290.948 184.056 291.533L242.646 350.121C243.504 350.979 244.942 350.785 245.542 349.73L393.765 89.1053Z" fill="url(#paint3_linear_34_19)"/>
<defs>
<linearGradient id="paint0_linear_34_19" x1="400" y1="0" x2="400" y2="351.83" gradientUnits="userSpaceOnUse">
<stop stop-color="white" stop-opacity="0.75"/>
<stop offset="1" stop-color="white"/>
</linearGradient>
<linearGradient id="paint1_linear_34_19" x1="400" y1="0" x2="400" y2="351.83" gradientUnits="userSpaceOnUse">
<stop stop-color="white" stop-opacity="0.75"/>
<stop offset="1" stop-color="white"/>
</linearGradient>
<linearGradient id="paint2_linear_34_19" x1="400" y1="-3.48671e-08" x2="400" y2="351.83" gradientUnits="userSpaceOnUse">
<stop stop-color="white"/>
<stop offset="1" stop-color="white" stop-opacity="0.5"/>
</linearGradient>
<linearGradient id="paint3_linear_34_19" x1="400" y1="-3.48671e-08" x2="400" y2="351.83" gradientUnits="userSpaceOnUse">
<stop stop-color="white"/>
<stop offset="1" stop-color="white" stop-opacity="0.5"/>
</linearGradient>
</defs>
</svg>
