<svg width="1363" height="315" viewBox="0 0 1363 315" fill="none" xmlns="http://www.w3.org/2000/svg">
<path d="M449.468 126.584C449.468 124.76 449.66 124.184 453.692 123.32C456.476 122.648 465.5 120.632 470.972 120.536C474.428 120.536 478.364 120.44 478.364 117.56C478.364 115.928 476.252 113.336 471.164 113.336C466.94 113.336 464.828 114.296 461.66 115.736C459.356 116.792 451.1 119.384 449.372 119.384C447.644 119.384 447.26 118.52 446.396 115.256C445.916 113.336 444.668 108.248 444.668 106.616C444.668 105.56 444.86 104.696 446.492 104.216C447.548 103.832 448.412 103.64 456.188 102.104C463.196 100.76 465.116 100.376 465.116 98.456C465.116 96.92 462.428 94.904 459.356 94.904C458.012 94.904 457.532 95.096 453.404 96.92C452.06 97.496 446.012 99.512 445.052 99.512C443.708 99.512 442.652 99.512 441.788 93.272C441.596 92.12 441.404 86.552 441.212 85.208C440.924 83.288 434.204 81.176 432.284 81.176C430.172 81.176 427.292 82.232 427.292 82.808C427.292 83.192 431.036 85.688 431.708 86.264C435.932 89.912 437.18 99.032 437.18 99.416C437.18 101.24 435.644 101.816 432.284 102.584C426.812 103.736 419.9 104.216 417.5 104.216C416.636 104.216 415.58 104.216 415.58 104.888C415.58 106.616 422.012 110.072 424.316 110.072C424.508 110.072 435.356 106.424 437.564 106.424C439.004 106.424 439.484 107.384 440.06 109.784C441.404 115.064 442.172 117.848 442.172 119.384C442.172 121.016 441.5 121.4 439.004 121.88C428.732 123.992 422.972 125.144 415.676 125.144C414.812 125.144 410.78 124.76 409.916 124.76C409.436 124.76 408.764 124.952 408.764 125.72C408.764 128.6 418.364 132.824 419.804 132.824C420.764 132.824 424.7 130.616 425.66 130.328C430.364 128.792 441.788 126.104 442.172 126.104C443.9 126.104 444.38 127.352 444.764 129.08C445.148 131.288 447.26 141.752 447.74 144.152C448.508 148.184 450.044 156.536 454.268 156.536C455.708 156.536 456.38 154.712 456.38 152.888C456.38 148.664 449.468 129.08 449.468 126.584ZM544.892 101.528C543.356 101.528 542.588 101.144 540.188 99.608C538.556 98.552 536.924 97.976 534.908 97.976C533.276 97.976 531.548 98.456 531.548 99.224C531.548 99.8 532.316 100.856 532.7 101.432C536.156 106.136 538.076 112.856 538.076 118.616C538.076 121.496 537.98 125.144 538.076 126.296C538.364 129.368 539.996 132.344 542.396 132.344C544.604 132.344 544.604 129.272 544.604 127.448C544.604 123.416 544.22 120.344 543.356 112.856C543.26 112.376 542.876 108.92 542.876 108.632C542.876 107.096 542.876 106.328 550.076 105.368C554.588 104.792 568.7 103.928 577.148 103.928C578.492 103.928 580.124 103.928 580.124 105.944C580.124 107.096 576.092 129.464 555.452 147.896C552.38 150.584 549.212 153.176 545.852 155.48C545.18 155.864 545.18 156.056 545.18 156.248C545.18 156.44 545.372 156.632 545.66 156.632C546.332 156.632 551.42 154.712 556.892 151.064C577.34 137.432 585.02 115.832 587.9 107.672C588.284 106.424 588.476 106.232 590.204 104.984C590.78 104.504 591.26 104.12 591.26 103.16C591.26 101.336 583.868 96.824 582.812 96.824C582.044 96.824 578.876 98.552 578.204 98.744C576.284 99.416 569.084 99.704 566.876 99.704C564.476 99.704 564.092 98.264 564.092 96.632C564.092 94.904 564.284 92.696 564.668 91.832C564.86 91.448 565.916 89.432 565.916 88.952C565.916 87.704 565.532 87.512 563.612 86.36C559.388 83.96 558.236 83.864 556.7 83.864C556.028 83.864 553.82 83.96 553.82 84.824C553.82 85.496 556.124 88.28 556.508 88.952C557.372 90.488 557.468 92.024 557.468 96.536C557.468 99.032 557.468 99.992 555.356 100.472C553.82 100.76 546.62 101.528 544.892 101.528ZM593.372 78.968C591.836 78.776 589.916 79.064 589.916 79.736C589.916 79.928 590.108 80.408 590.972 80.792C593.852 82.328 597.116 85.112 598.172 86.84C599.516 88.952 600.764 90.872 602.684 90.872C604.124 90.872 605.084 89.528 605.084 87.992C605.084 83.384 599.708 79.832 593.372 78.968ZM584.444 85.688C584.156 85.688 582.812 85.688 582.812 86.264C582.812 86.744 583.772 87.608 583.964 87.8C587.42 91.064 588.476 92.024 589.628 93.944C591.836 97.496 592.604 98.552 594.14 98.552C595.868 98.552 597.02 96.248 597.02 95.096C597.02 90.008 589.052 85.688 584.444 85.688ZM655.196 115.928C656.06 119.288 660.668 123.128 662.684 123.128C663.356 123.128 666.62 121.88 667.388 121.688C668.924 121.304 677.948 120.248 679.1 120.248C679.58 120.248 679.772 120.344 679.772 120.824C679.772 123.416 669.692 136.76 659.132 145.88C656.348 148.376 655.964 148.568 655.964 148.952C655.964 149.144 656.156 149.432 656.732 149.432C658.268 149.432 667.58 143.96 677.084 133.976C678.14 132.824 683.612 126.584 683.708 126.584C684.092 126.584 684.284 126.872 684.284 127.064C684.572 128.504 684.764 143.864 684.764 145.4C684.764 146.264 684.764 147.128 683.996 147.128C683.228 147.128 677.276 144.92 677.084 144.92C676.7 144.92 676.508 145.112 676.508 145.4C676.508 145.592 677.852 146.936 678.332 147.32C679.58 148.472 681.98 151.16 682.652 153.56C683.42 156.152 683.804 157.592 685.82 157.592C688.124 157.592 690.716 154.232 690.716 150.2C690.716 148.952 689.948 143.096 689.852 141.752C689.66 139.928 688.796 122.072 688.796 120.824C688.796 119.192 688.892 118.328 695.612 118.328C696.572 118.328 700.892 118.616 701.852 118.616C702.812 118.616 706.652 118.616 706.652 116.216C706.652 113.432 701.948 112.664 701.468 112.664C700.988 112.664 698.684 113.432 698.108 113.528C696.668 113.72 691.1 114.68 690.14 114.68C688.508 114.68 688.508 114.296 688.508 110.36C688.508 109.304 688.604 104.984 688.796 104.024C688.892 103.64 689.756 101.624 689.756 101.144C689.756 100.184 687.356 97.688 683.324 97.688C682.268 97.688 678.812 97.688 678.812 98.744C678.812 99.032 680.924 101.24 681.308 101.72C682.748 103.832 683.516 109.208 683.516 114.008C683.516 115.352 683.036 115.736 681.212 115.928C676.796 116.504 669.404 117.08 665.084 117.08C662.108 117.08 658.172 116.696 656.252 116.216C655.868 116.12 655.58 116.024 655.196 115.928ZM787.772 83.384L787.964 83.768C789.5 85.208 790.46 86.168 791.228 88.184C792.38 91.256 792.38 94.328 792.38 121.784C792.38 133.592 792.188 136.088 791.516 144.056C791.516 144.44 791.132 146.456 791.132 146.84C791.132 149.336 793.628 155.864 796.508 155.864C799.292 155.864 799.292 149.528 799.292 147.128C799.292 145.688 799.196 143.288 799.1 142.232C798.716 133.592 798.62 128.504 798.62 118.328C798.62 111.224 799.004 111.224 799.964 111.224C802.94 111.224 807.452 115.736 810.14 119.288C816.572 127.64 816.86 128.024 819.26 128.024C819.74 128.024 822.716 127.832 822.716 124.664C822.716 117.464 807.836 110.456 801.98 109.112C799.196 108.44 798.812 108.152 798.812 106.04C798.812 103.64 799.196 95.096 799.676 92.696C799.868 92.12 800.828 89.336 800.828 88.664C800.828 85.592 793.916 82.52 790.46 82.52C790.364 82.52 787.868 82.52 787.772 83.384ZM927.74 100.28C928.028 101.816 916.604 126.68 891.548 144.824C890.972 145.208 887.132 147.992 887.132 148.376C887.132 148.952 887.612 148.952 887.804 148.952C888.572 148.952 891.164 147.992 893.756 146.744C906.236 140.504 916.028 129.752 919.388 126.2C921.5 123.8 921.788 123.512 922.748 123.512C924.86 123.512 933.308 130.808 939.932 142.424C943.292 148.376 943.676 149.048 945.884 149.048C948.092 149.048 949.82 147.032 949.82 144.824C949.82 136.088 932.636 126.392 928.316 123.896C924.284 121.688 924.092 121.496 924.092 120.632C924.092 119.864 924.476 119.192 924.86 118.712C926.396 116.504 933.98 105.272 935.9 102.968C936.476 102.296 940.028 99.704 940.028 98.84C940.028 96.44 934.172 91.544 931.868 91.544C931.004 91.544 927.452 94.136 926.588 94.52C921.596 96.536 903.548 98.072 900.284 98.072C899.324 98.072 898.172 97.976 895.196 97.112C894.908 97.016 892.796 96.44 892.7 96.44C892.22 96.44 892.124 96.728 892.124 97.208C892.124 97.88 893.756 102.104 894.428 102.776C895.004 103.352 899.516 106.232 900.956 106.232C901.628 106.232 904.604 104.6 905.276 104.408C905.756 104.216 925.916 99.512 926.588 99.512C926.78 99.512 927.548 99.512 927.74 100.28Z" fill="url(#paint0_linear_511_336)"/>
<g filter="url(#filter0_b_511_336)">
<path d="M44.5016 5.39998H25.0016V240H44.5016V114L162.102 240H187.902L65.5016 111L177.402 5.39998H151.902L44.5016 107.4V5.39998ZM219.77 5.39998V240H240.47V5.39998H219.77ZM269.366 5.39998L363.566 240H389.666L483.866 5.39998H462.866L376.766 222.9L290.366 5.39998H269.366ZM495.802 122.7C495.802 194.1 548.902 244.8 617.602 244.8C686.602 244.8 739.102 193.5 739.102 122.7C739.102 51.9 686.302 0.599989 617.602 0.599989C549.202 0.599989 495.802 51.3 495.802 122.7ZM515.302 122.7C515.302 63.9 559.702 18.3 617.602 18.3C675.502 18.3 719.602 64.5 719.602 122.7C719.602 180.9 675.802 227.1 617.602 227.1C559.702 227.1 515.302 181.5 515.302 122.7ZM851.67 23.1H933.57V5.39998H749.97V23.1H831.87V240H851.67V23.1ZM944.502 122.7C944.502 194.1 997.602 244.8 1066.3 244.8C1135.3 244.8 1187.8 193.5 1187.8 122.7C1187.8 51.9 1135 0.599989 1066.3 0.599989C997.902 0.599989 944.502 51.3 944.502 122.7ZM964.002 122.7C964.002 63.9 1008.4 18.3 1066.3 18.3C1124.2 18.3 1168.3 64.5 1168.3 122.7C1168.3 180.9 1124.5 227.1 1066.3 227.1C1008.4 227.1 964.002 181.5 964.002 122.7ZM1331.27 13.2C1315.07 5.09998 1298.87 0.599989 1280.57 0.599989C1236.77 0.599989 1211.27 30 1211.27 64.2C1211.27 105 1245.47 117.3 1274.57 127.5C1300.97 136.8 1325.87 145.5 1325.87 178.8C1325.87 215.1 1292.87 227.1 1264.97 227.1C1242.47 227.1 1225.37 220.5 1208.87 210.3L1202.87 227.7C1221.77 239.1 1243.37 244.8 1265.57 244.8C1309.37 244.8 1345.67 221.7 1345.67 178.2C1345.67 133.5 1310.27 120.9 1281.77 110.7C1251.77 99.9 1231.07 91.5 1231.07 63.6C1231.07 41.1 1247.57 18.3 1280.27 18.3C1303.37 18.3 1318.37 27 1326.17 31.5L1331.27 13.2Z" fill="url(#paint1_linear_511_336)"/>
<path d="M44.5016 5.39998H47.5016V2.39998H44.5016V5.39998ZM25.0016 5.39998V2.39998H22.0016V5.39998H25.0016ZM25.0016 240H22.0016V243H25.0016V240ZM44.5016 240V243H47.5016V240H44.5016ZM44.5016 114L46.6947 111.953L41.5016 106.389V114H44.5016ZM162.102 240L159.908 242.047L160.798 243H162.102V240ZM187.902 240V243H194.884L190.078 237.935L187.902 240ZM65.5016 111L63.4426 108.818L61.2548 110.883L63.3253 113.065L65.5016 111ZM177.402 5.39998L179.461 7.58183L184.952 2.39998H177.402V5.39998ZM151.902 5.39998V2.39998H150.704L149.836 3.22468L151.902 5.39998ZM44.5016 107.4H41.5016V114.387L46.5675 109.575L44.5016 107.4ZM44.5016 2.39998H25.0016V8.39998H44.5016V2.39998ZM22.0016 5.39998V240H28.0016V5.39998H22.0016ZM25.0016 243H44.5016V237H25.0016V243ZM47.5016 240V114H41.5016V240H47.5016ZM42.3084 116.047L159.908 242.047L164.295 237.953L46.6947 111.953L42.3084 116.047ZM162.102 243H187.902V237H162.102V243ZM190.078 237.935L67.6778 108.935L63.3253 113.065L185.725 242.065L190.078 237.935ZM67.5606 113.182L179.461 7.58183L175.343 3.21813L63.4426 108.818L67.5606 113.182ZM177.402 2.39998H151.902V8.39998H177.402V2.39998ZM149.836 3.22468L42.4356 105.225L46.5675 109.575L153.968 7.57528L149.836 3.22468ZM47.5016 107.4V5.39998H41.5016V107.4H47.5016ZM219.77 5.39998V2.39998H216.77V5.39998H219.77ZM219.77 240H216.77V243H219.77V240ZM240.47 240V243H243.47V240H240.47ZM240.47 5.39998H243.47V2.39998H240.47V5.39998ZM216.77 5.39998V240H222.77V5.39998H216.77ZM219.77 243H240.47V237H219.77V243ZM243.47 240V5.39998H237.47V240H243.47ZM240.47 2.39998H219.77V8.39998H240.47V2.39998ZM269.366 5.39998V2.39998H264.928L266.582 6.51783L269.366 5.39998ZM363.566 240L360.782 241.118L361.537 243H363.566V240ZM389.666 240V243H391.694L392.45 241.118L389.666 240ZM483.866 5.39998L486.65 6.51783L488.303 2.39998H483.866V5.39998ZM462.866 5.39998V2.39998H460.827L460.076 4.29577L462.866 5.39998ZM376.766 222.9L373.978 224.008L376.77 231.038L379.555 224.004L376.766 222.9ZM290.366 5.39998L293.154 4.29244L292.402 2.39998H290.366V5.39998ZM266.582 6.51783L360.782 241.118L366.35 238.882L272.15 4.28213L266.582 6.51783ZM363.566 243H389.666V237H363.566V243ZM392.45 241.118L486.65 6.51783L481.082 4.28213L386.882 238.882L392.45 241.118ZM483.866 2.39998H462.866V8.39998H483.866V2.39998ZM460.076 4.29577L373.976 221.796L379.555 224.004L465.655 6.5042L460.076 4.29577ZM379.554 221.792L293.154 4.29244L287.578 6.50752L373.978 224.008L379.554 221.792ZM290.366 2.39998H269.366V8.39998H290.366V2.39998ZM492.802 122.7C492.802 195.791 547.28 247.8 617.602 247.8V241.8C550.525 241.8 498.802 192.409 498.802 122.7H492.802ZM617.602 247.8C688.249 247.8 742.102 195.167 742.102 122.7H736.102C736.102 191.833 684.955 241.8 617.602 241.8V247.8ZM742.102 122.7C742.102 50.2285 687.945 -2.40001 617.602 -2.40001V3.59999C684.66 3.59999 736.102 53.5715 736.102 122.7H742.102ZM617.602 -2.40001C547.585 -2.40001 492.802 49.6043 492.802 122.7H498.802C498.802 52.9957 550.82 3.59999 617.602 3.59999V-2.40001ZM518.302 122.7C518.302 65.4936 561.422 21.3 617.602 21.3V15.3C557.983 15.3 512.302 62.3064 512.302 122.7H518.302ZM617.602 21.3C673.76 21.3 716.602 66.0704 716.602 122.7H722.602C722.602 62.9296 677.244 15.3 617.602 15.3V21.3ZM716.602 122.7C716.602 179.335 674.055 224.1 617.602 224.1V230.1C677.55 230.1 722.602 182.465 722.602 122.7H716.602ZM617.602 224.1C561.422 224.1 518.302 179.906 518.302 122.7H512.302C512.302 183.094 557.983 230.1 617.602 230.1V224.1ZM851.67 23.1V20.1H848.67V23.1H851.67ZM933.57 23.1V26.1H936.57V23.1H933.57ZM933.57 5.39998H936.57V2.39998H933.57V5.39998ZM749.97 5.39998V2.39998H746.97V5.39998H749.97ZM749.97 23.1H746.97V26.1H749.97V23.1ZM831.87 23.1H834.87V20.1H831.87V23.1ZM831.87 240H828.87V243H831.87V240ZM851.67 240V243H854.67V240H851.67ZM851.67 26.1H933.57V20.1H851.67V26.1ZM936.57 23.1V5.39998H930.57V23.1H936.57ZM933.57 2.39998H749.97V8.39998H933.57V2.39998ZM746.97 5.39998V23.1H752.97V5.39998H746.97ZM749.97 26.1H831.87V20.1H749.97V26.1ZM828.87 23.1V240H834.87V23.1H828.87ZM831.87 243H851.67V237H831.87V243ZM854.67 240V23.1H848.67V240H854.67ZM941.502 122.7C941.502 195.791 995.979 247.8 1066.3 247.8V241.8C999.224 241.8 947.502 192.409 947.502 122.7H941.502ZM1066.3 247.8C1136.95 247.8 1190.8 195.167 1190.8 122.7H1184.8C1184.8 191.833 1133.65 241.8 1066.3 241.8V247.8ZM1190.8 122.7C1190.8 50.2285 1136.64 -2.40001 1066.3 -2.40001V3.59999C1133.36 3.59999 1184.8 53.5715 1184.8 122.7H1190.8ZM1066.3 -2.40001C996.284 -2.40001 941.502 49.6043 941.502 122.7H947.502C947.502 52.9957 999.519 3.59999 1066.3 3.59999V-2.40001ZM967.002 122.7C967.002 65.4936 1010.12 21.3 1066.3 21.3V15.3C1006.68 15.3 961.002 62.3064 961.002 122.7H967.002ZM1066.3 21.3C1122.46 21.3 1165.3 66.0704 1165.3 122.7H1171.3C1171.3 62.9296 1125.94 15.3 1066.3 15.3V21.3ZM1165.3 122.7C1165.3 179.335 1122.75 224.1 1066.3 224.1V230.1C1126.25 230.1 1171.3 182.465 1171.3 122.7H1165.3ZM1066.3 224.1C1010.12 224.1 967.002 179.906 967.002 122.7H961.002C961.002 183.094 1006.68 230.1 1066.3 230.1V224.1ZM1331.27 13.2L1334.16 14.0054L1334.82 11.6228L1332.61 10.5167L1331.27 13.2ZM1274.57 127.5L1275.57 124.67L1275.56 124.669L1274.57 127.5ZM1208.87 210.3L1210.45 207.748L1207.26 205.776L1206.03 209.322L1208.87 210.3ZM1202.87 227.7L1200.03 226.722L1199.24 229.016L1201.32 230.269L1202.87 227.7ZM1281.77 110.7L1280.75 113.523L1280.76 113.525L1281.77 110.7ZM1326.17 31.5L1324.67 34.0985L1328.02 36.0316L1329.06 32.3054L1326.17 31.5ZM1332.61 10.5167C1316.06 2.2436 1299.41 -2.40001 1280.57 -2.40001V3.59999C1298.33 3.59999 1314.07 7.95637 1329.93 15.8833L1332.61 10.5167ZM1280.57 -2.40001C1257.97 -2.40001 1239.87 5.19771 1227.39 17.4334C1214.93 29.6569 1208.27 46.3447 1208.27 64.2H1214.27C1214.27 47.8553 1220.36 32.7431 1231.6 21.7165C1242.82 10.7023 1259.36 3.59999 1280.57 3.59999V-2.40001ZM1208.27 64.2C1208.27 85.6288 1217.33 99.7427 1230.17 109.696C1242.81 119.496 1259.12 125.262 1273.58 130.331L1275.56 124.669C1260.92 119.538 1245.58 114.054 1233.85 104.954C1222.31 96.0072 1214.27 83.5712 1214.27 64.2H1208.27ZM1273.57 130.33C1286.9 135.026 1299.21 139.376 1308.26 146.507C1317.07 153.441 1322.87 163.074 1322.87 178.8H1328.87C1328.87 161.226 1322.22 149.859 1311.98 141.793C1301.98 133.924 1288.64 129.274 1275.57 124.67L1273.57 130.33ZM1322.87 178.8C1322.87 195.859 1315.2 207.014 1304.26 214.038C1293.16 221.164 1278.57 224.1 1264.97 224.1V230.1C1279.27 230.1 1295.13 227.036 1307.5 219.087C1320.04 211.036 1328.87 198.041 1328.87 178.8H1322.87ZM1264.97 224.1C1243.15 224.1 1226.59 217.73 1210.45 207.748L1207.29 212.852C1224.14 223.27 1241.78 230.1 1264.97 230.1V224.1ZM1206.03 209.322L1200.03 226.722L1205.71 228.678L1211.71 211.278L1206.03 209.322ZM1201.32 230.269C1220.71 241.966 1242.85 247.8 1265.57 247.8V241.8C1243.89 241.8 1222.83 236.234 1204.42 225.131L1201.32 230.269ZM1265.57 247.8C1287.96 247.8 1308.68 241.901 1323.88 230.189C1339.16 218.412 1348.67 200.886 1348.67 178.2H1342.67C1342.67 199.014 1334.03 214.788 1320.21 225.436C1306.31 236.149 1286.98 241.8 1265.57 241.8V247.8ZM1348.67 178.2C1348.67 154.888 1339.37 139.724 1326.29 129.177C1313.41 118.79 1296.93 112.94 1282.78 107.875L1280.76 113.525C1295.11 118.66 1310.58 124.21 1322.52 133.848C1334.27 143.326 1342.67 156.812 1342.67 178.2H1348.67ZM1282.79 107.877C1267.68 102.438 1255.49 97.7838 1247.01 91.1939C1238.8 84.8148 1234.07 76.6079 1234.07 63.6H1228.07C1228.07 78.4921 1233.68 88.4352 1243.33 95.9311C1252.7 103.216 1265.86 108.162 1280.75 113.523L1282.79 107.877ZM1234.07 63.6C1234.07 53.0679 1237.93 42.5076 1245.57 34.5954C1253.16 26.7206 1264.66 21.3 1280.27 21.3V15.3C1263.18 15.3 1250.08 21.2794 1241.25 30.4296C1232.46 39.5424 1228.07 51.6321 1228.07 63.6H1234.07ZM1280.27 21.3C1302.55 21.3 1316.98 29.6618 1324.67 34.0985L1327.67 28.9014C1319.76 24.3381 1304.19 15.3 1280.27 15.3V21.3ZM1329.06 32.3054L1334.16 14.0054L1328.38 12.3946L1323.28 30.6946L1329.06 32.3054Z" fill="url(#paint2_linear_511_336)" fill-opacity="0.3"/>
</g>
<g filter="url(#filter1_b_511_336)">
<path d="M428.282 301.68L431.722 311H435.962L423.962 279.48H418.682L406.682 311H410.922L414.362 301.68H428.282ZM415.602 298.32L421.322 282.96L427.042 298.32H415.602ZM458.002 307.72H456.162C454.242 307.72 454.242 306.68 454.242 305.64V278H450.602V305.76C450.602 308.28 450.602 311 455.802 311H458.002V307.72ZM461.888 292.32C463.008 291.64 465.528 290.12 469.168 290.12C472.168 290.12 475.088 291.24 475.088 293.96C475.088 295.88 473.928 296 470.568 296.4C466.488 296.88 459.328 297.72 459.328 304.76C459.328 308.4 461.648 311.64 466.768 311.64C470.048 311.64 472.968 310.48 475.208 308.08C475.248 309.8 475.568 310.44 475.848 311H479.608C479.208 310.12 478.728 309.08 478.728 306.56V295.76C478.728 293.36 478.608 291.48 477.128 289.76C474.568 286.8 470.248 286.8 469.208 286.8C465.128 286.8 462.488 288.24 461.568 288.76L461.888 292.32ZM475.168 303.56C473.448 306.84 469.728 308.44 467.008 308.44C464.368 308.44 462.848 306.92 462.848 304.64C462.848 300.72 466.688 300.04 470.168 299.6C473.608 299.2 473.968 299.12 475.168 298.64V303.56ZM487.302 311V297.72C487.302 290.4 492.702 290.08 493.822 290.08C498.902 290.08 498.902 294.04 498.902 297.72V311H502.502V297.72C502.502 294.12 502.342 292.36 501.462 290.56C500.582 288.76 498.382 286.8 494.702 286.8C492.102 286.8 489.102 287.84 487.302 290.56V287.44H483.742V311H487.302ZM524.346 311H527.946V278H524.346V290.6C522.386 288.08 519.826 286.8 516.666 286.8C510.626 286.8 506.106 291.68 506.106 299.24C506.106 306.76 510.626 311.64 516.666 311.64C519.826 311.64 522.386 310.36 524.346 307.88V311ZM524.546 299.24C524.546 306.52 520.106 308.36 517.186 308.36C511.426 308.36 509.706 303.28 509.706 299.24C509.706 295.2 511.426 290.12 517.186 290.12C520.106 290.12 524.546 291.92 524.546 299.24ZM543.626 299.24C543.626 307.04 549.106 311.64 555.266 311.64C561.386 311.64 566.866 307 566.866 299.24C566.866 291.4 561.386 286.8 555.226 286.8C549.146 286.8 543.626 291.36 543.626 299.24ZM547.226 299.24C547.226 292.32 551.866 290.12 555.266 290.12C558.666 290.12 563.266 292.36 563.266 299.24C563.266 306.12 558.666 308.36 555.226 308.36C551.866 308.36 547.226 306.12 547.226 299.24ZM574.666 287.44V284.64C574.666 282.92 574.666 281.32 577.546 281.32C578.066 281.32 578.386 281.36 578.706 281.4L578.986 278.2C578.546 278.12 577.946 278 577.146 278C571.106 278 571.106 282.64 571.106 284.64V287.44H567.986V290.76H571.106V311H574.666V290.76H579.026V287.44H574.666ZM611.133 311V297.96C611.133 290.56 615.933 290.12 617.213 290.12C621.693 290.12 621.693 294.48 621.693 297.44V311H625.293V297.04C625.293 294.56 625.213 293.24 624.813 291.84C623.573 287.44 619.773 286.8 617.933 286.8C614.293 286.8 611.973 288.64 610.533 291.2C608.733 286.8 604.773 286.8 603.893 286.8C599.693 286.8 597.773 289.64 597.133 290.6V287.44H593.533V311H597.133V297.2C597.133 291.6 600.853 290.08 603.213 290.08C607.213 290.08 607.573 293.88 607.573 297.4V311H611.133ZM634.386 279.48H630.186V283.88H634.386V279.48ZM634.106 287.44H630.466V311H634.106V287.44ZM642.858 311V297.72C642.858 292.52 645.338 290.04 650.458 290.12V286.8C648.938 286.8 645.378 286.72 642.858 290.56V287.44H639.298V311H642.858ZM655.045 292.32C656.165 291.64 658.685 290.12 662.325 290.12C665.325 290.12 668.245 291.24 668.245 293.96C668.245 295.88 667.085 296 663.725 296.4C659.645 296.88 652.485 297.72 652.485 304.76C652.485 308.4 654.805 311.64 659.925 311.64C663.205 311.64 666.125 310.48 668.365 308.08C668.405 309.8 668.725 310.44 669.005 311H672.765C672.365 310.12 671.885 309.08 671.885 306.56V295.76C671.885 293.36 671.765 291.48 670.285 289.76C667.725 286.8 663.405 286.8 662.365 286.8C658.285 286.8 655.645 288.24 654.725 288.76L655.045 292.32ZM668.325 303.56C666.605 306.84 662.885 308.44 660.165 308.44C657.525 308.44 656.005 306.92 656.005 304.64C656.005 300.72 659.845 300.04 663.325 299.6C666.765 299.2 667.125 299.12 668.325 298.64V303.56ZM694.738 306.28C693.858 306.84 691.538 308.36 687.898 308.36C682.138 308.36 679.138 304.52 679.138 299.24C679.138 293.08 683.138 290.08 687.818 290.08C691.218 290.08 693.058 291.6 693.738 292.16L694.738 288.88C692.538 287.44 690.298 286.8 687.658 286.8C680.778 286.8 675.538 291.8 675.538 299.4C675.538 306.16 679.658 311.64 687.818 311.64C691.738 311.64 693.858 310.52 694.738 310.04V306.28ZM706.035 307.72H704.195C702.275 307.72 702.275 306.68 702.275 305.64V278H698.635V305.76C698.635 308.28 698.635 311 703.835 311H706.035V307.72ZM728.521 300.52C728.521 298.92 728.481 295.8 727.401 293.16C725.321 288 720.961 286.8 718.081 286.8C712.001 286.8 707.281 291.72 707.281 299.36C707.281 304.52 709.721 311.64 719.241 311.64C723.041 311.64 725.561 310.6 726.641 310.12V306.28C725.281 307.08 723.121 308.36 719.241 308.36C713.441 308.36 711.001 304.84 710.801 300.52H728.521ZM710.841 297.32C711.121 293.04 714.041 290.12 717.921 290.12C720.521 290.12 724.441 291.6 724.881 297.32H710.841ZM745.926 288.28C745.006 287.84 742.806 286.8 739.726 286.8C735.246 286.8 731.406 289.24 731.406 293.6C731.406 298.24 735.126 299.44 738.806 300.48C741.126 301.16 743.806 301.92 743.806 304.56C743.806 308.36 738.806 308.36 737.966 308.36C734.766 308.36 732.766 307.36 731.446 306.68L730.246 309.76C733.686 311.64 737.166 311.64 737.886 311.64C742.086 311.64 747.406 309.92 747.406 304.52C747.406 299.8 743.326 298.52 740.686 297.68C736.286 296.32 734.966 295.88 734.966 293.48C734.966 290.92 737.526 290.12 739.766 290.12C742.366 290.12 743.886 290.92 745.006 291.56L745.926 288.28ZM763.486 297.84C765.766 294.28 767.286 293.72 768.566 293.72C770.046 293.72 771.206 294.52 773.886 296.36C777.526 298.8 779.126 299.88 781.766 299.88C783.126 299.88 786.126 299.4 789.166 294.4L786.726 292.64C785.206 295.04 783.606 296.68 781.526 296.68C779.966 296.68 779.406 296.32 774.686 293.16C772.726 291.84 770.886 290.6 768.486 290.6C766.486 290.6 763.886 291.68 761.206 295.84L763.486 297.84ZM825.998 298.44H807.118V310.32H825.998V298.44ZM822.838 307.48H810.278V301.28H822.838V307.48ZM822.078 280.68C822.598 279.28 822.798 278.28 822.958 277.48L819.278 277.12C819.158 278.12 818.998 279.12 818.398 280.68H803.438V283.6H816.678C814.998 285.64 811.038 288.36 803.958 289L805.358 292.16C812.078 291.44 817.598 288.32 820.598 283.6H821.758C824.078 287.16 829.718 291.12 837.278 292.12L838.558 288.96C832.558 288.24 828.518 286.12 825.998 283.6H839.118V280.68H822.078ZM839.758 292.84H802.758V295.8H831.718V309.6C831.718 310.56 831.638 310.96 830.478 310.96L825.038 310.88L825.638 314.4H831.118C833.558 314.4 834.998 313.92 834.998 310.52V295.8H839.758V292.84ZM855.118 306.64C853.958 307 852.838 307.36 850.758 307.84V300.28H854.678V297.24H850.758V291.28H854.518V278.8H842.398V291.28H847.958V308.52C847.598 308.6 845.918 308.92 845.558 309V295.04H842.758V309.52C842.398 309.6 842.118 309.64 841.038 309.8L841.598 313.12C845.518 312.36 850.158 311.32 855.358 309.68L855.118 306.64ZM851.558 288.48H845.358V281.64H851.558V288.48ZM872.998 290.12C872.998 294.52 873.718 301.24 875.678 306.64L878.598 305C876.238 299.28 875.998 292.44 875.998 289.88L872.998 290.12ZM868.438 277.2H865.198V282.6H855.718V285.68H862.078V293.68C862.078 306.32 856.878 309.92 854.158 311.8L856.518 314.36C858.118 313.12 861.198 310.76 862.958 306.04C864.958 300.64 865.078 295.28 865.078 293.84V285.68H868.438V309.56C868.438 310.64 868.198 310.96 866.918 310.96H862.878L863.318 314.36H868.158C871.438 314.36 871.438 311.64 871.438 310.96V285.68H878.598V282.6H868.438V277.2ZM857.118 305.16C860.038 298.96 860.118 292.28 860.158 290.24L857.398 289.88C857.158 297.08 855.798 300.92 854.238 303.76L857.118 305.16ZM902.918 312.4C913.998 308.6 915.718 300.4 915.718 295.8C915.718 286.64 909.118 280.24 899.598 280.24C889.558 280.24 882.038 287.52 882.038 297.48C882.038 304.72 886.158 310.28 889.878 310.28C890.878 310.28 893.078 310.16 895.638 304.72C899.078 297.4 900.358 287.92 900.918 283.52C910.958 284.6 912.078 292.8 912.078 295.68C912.078 300.76 909.518 306.68 900.918 309.44L902.918 312.4ZM897.438 283.64C896.158 293.72 894.238 299.12 892.958 302.12C892.118 304.04 890.998 306.6 889.718 306.6C888.038 306.6 885.438 302.92 885.438 297.6C885.438 291.36 889.318 284.8 897.438 283.64ZM920.718 279.04V313.48H954.558V279.04H920.718ZM951.278 310.48H923.998V282.04H951.278V310.48ZM949.078 285H926.438V287.76H935.718V294.16H927.118V296.84H935.718V304.56H925.638V307.4H949.638V304.56H938.838V296.84H948.278V294.16H938.838V287.76H949.078V285ZM946.998 302.52C945.998 300.28 944.078 297.84 943.678 297.32L940.918 298.6C942.558 300.68 944.038 303.56 944.198 303.92L946.998 302.52Z" fill="url(#paint3_linear_511_336)"/>
<path d="M428.282 301.68L428.751 301.507L428.63 301.18H428.282V301.68ZM431.722 311L431.253 311.173L431.373 311.5H431.722V311ZM435.962 311V311.5H436.687L436.429 310.822L435.962 311ZM423.962 279.48L424.429 279.302L424.307 278.98H423.962V279.48ZM418.682 279.48V278.98H418.337L418.215 279.302L418.682 279.48ZM406.682 311L406.215 310.822L405.957 311.5H406.682V311ZM410.922 311V311.5H411.27L411.391 311.173L410.922 311ZM414.362 301.68V301.18H414.013L413.893 301.507L414.362 301.68ZM415.602 298.32L415.133 298.146L414.882 298.82H415.602V298.32ZM421.322 282.96L421.79 282.786L421.322 281.527L420.853 282.786L421.322 282.96ZM427.042 298.32V298.82H427.762L427.51 298.146L427.042 298.32ZM427.813 301.853L431.253 311.173L432.191 310.827L428.751 301.507L427.813 301.853ZM431.722 311.5H435.962V310.5H431.722V311.5ZM436.429 310.822L424.429 279.302L423.495 279.658L435.495 311.178L436.429 310.822ZM423.962 278.98H418.682V279.98H423.962V278.98ZM418.215 279.302L406.215 310.822L407.149 311.178L419.149 279.658L418.215 279.302ZM406.682 311.5H410.922V310.5H406.682V311.5ZM411.391 311.173L414.831 301.853L413.893 301.507L410.453 310.827L411.391 311.173ZM414.362 302.18H428.282V301.18H414.362V302.18ZM416.07 298.494L421.79 283.134L420.853 282.786L415.133 298.146L416.07 298.494ZM420.853 283.134L426.573 298.494L427.51 298.146L421.79 282.786L420.853 283.134ZM427.042 297.82H415.602V298.82H427.042V297.82ZM458.002 307.72H458.502V307.22H458.002V307.72ZM454.242 278H454.742V277.5H454.242V278ZM450.602 278V277.5H450.102V278H450.602ZM458.002 311V311.5H458.502V311H458.002ZM458.002 307.22H456.162V308.22H458.002V307.22ZM456.162 307.22C455.283 307.22 455.017 306.985 454.908 306.808C454.84 306.697 454.794 306.548 454.768 306.343C454.743 306.135 454.742 305.906 454.742 305.64H453.742C453.742 305.894 453.742 306.185 453.776 306.465C453.811 306.747 453.885 307.053 454.056 307.332C454.427 307.935 455.121 308.22 456.162 308.22V307.22ZM454.742 305.64V278H453.742V305.64H454.742ZM454.242 277.5H450.602V278.5H454.242V277.5ZM450.102 278V305.76H451.102V278H450.102ZM450.102 305.76C450.102 306.98 450.087 308.455 450.834 309.598C451.618 310.799 453.128 311.5 455.802 311.5V310.5C453.276 310.5 452.186 309.841 451.671 309.052C451.118 308.205 451.102 307.06 451.102 305.76H450.102ZM455.802 311.5H458.002V310.5H455.802V311.5ZM458.502 311V307.72H457.502V311H458.502ZM461.888 292.32L461.39 292.365L461.462 293.164L462.148 292.747L461.888 292.32ZM470.568 296.4L470.627 296.897L470.628 296.896L470.568 296.4ZM475.208 308.08L475.708 308.068L475.68 306.842L474.843 307.739L475.208 308.08ZM475.848 311L475.401 311.224L475.539 311.5H475.848V311ZM479.608 311V311.5H480.385L480.064 310.793L479.608 311ZM477.128 289.76L477.507 289.434L477.507 289.433L477.128 289.76ZM461.568 288.76L461.322 288.325L461.042 288.483L461.07 288.805L461.568 288.76ZM475.168 303.56L475.611 303.792L475.668 303.683V303.56H475.168ZM470.168 299.6L470.111 299.103L470.106 299.104L470.168 299.6ZM475.168 298.64H475.668V297.901L474.983 298.176L475.168 298.64ZM462.148 292.747C463.251 292.077 465.672 290.62 469.168 290.62V289.62C465.385 289.62 462.765 291.203 461.629 291.893L462.148 292.747ZM469.168 290.62C470.618 290.62 472.004 290.892 473.009 291.456C473.993 292.008 474.588 292.819 474.588 293.96H475.588C475.588 292.381 474.724 291.272 473.498 290.584C472.293 289.908 470.719 289.62 469.168 289.62V290.62ZM474.588 293.96C474.588 294.396 474.521 294.667 474.419 294.85C474.322 295.023 474.166 295.167 473.883 295.294C473.588 295.427 473.179 295.531 472.609 295.627C472.043 295.722 471.354 295.803 470.509 295.904L470.628 296.896C471.463 296.797 472.179 296.713 472.775 296.613C473.367 296.514 473.879 296.393 474.294 296.206C474.721 296.013 475.065 295.742 475.291 295.34C475.51 294.948 475.588 294.484 475.588 293.96H474.588ZM470.51 295.903C468.486 296.142 465.586 296.477 463.195 297.673C461.99 298.275 460.893 299.105 460.098 300.269C459.3 301.437 458.828 302.91 458.828 304.76H459.828C459.828 303.09 460.252 301.818 460.924 300.833C461.599 299.845 462.547 299.115 463.642 298.567C465.851 297.463 468.571 297.138 470.627 296.897L470.51 295.903ZM458.828 304.76C458.828 306.684 459.442 308.537 460.769 309.912C462.099 311.292 464.099 312.14 466.768 312.14V311.14C464.318 311.14 462.597 310.368 461.488 309.218C460.374 308.063 459.828 306.476 459.828 304.76H458.828ZM466.768 312.14C470.175 312.14 473.232 310.931 475.574 308.421L474.843 307.739C472.705 310.029 469.922 311.14 466.768 311.14V312.14ZM474.709 308.092C474.729 308.981 474.823 309.612 474.956 310.105C475.09 310.602 475.259 310.939 475.401 311.224L476.296 310.776C476.158 310.501 476.027 310.238 475.921 309.845C475.814 309.448 475.728 308.899 475.708 308.068L474.709 308.092ZM475.848 311.5H479.608V310.5H475.848V311.5ZM480.064 310.793C479.865 310.355 479.662 309.911 479.504 309.275C479.345 308.636 479.228 307.788 479.228 306.56H478.228C478.228 307.852 478.352 308.784 478.533 309.515C478.715 310.249 478.952 310.765 479.153 311.207L480.064 310.793ZM479.228 306.56V295.76H478.228V306.56H479.228ZM479.228 295.76C479.228 293.359 479.118 291.306 477.507 289.434L476.749 290.086C478.099 291.654 478.228 293.361 478.228 295.76H479.228ZM477.507 289.433C476.134 287.846 474.304 287.068 472.716 286.684C471.126 286.299 469.736 286.3 469.208 286.3V287.3C469.721 287.3 471.011 287.301 472.481 287.656C473.953 288.012 475.563 288.714 476.75 290.087L477.507 289.433ZM469.208 286.3C465.004 286.3 462.276 287.786 461.322 288.325L461.814 289.195C462.701 288.694 465.252 287.3 469.208 287.3V286.3ZM461.07 288.805L461.39 292.365L462.386 292.275L462.066 288.715L461.07 288.805ZM474.726 303.328C473.107 306.414 469.579 307.94 467.008 307.94V308.94C469.878 308.94 473.789 307.266 475.611 303.792L474.726 303.328ZM467.008 307.94C465.783 307.94 464.877 307.589 464.28 307.03C463.687 306.475 463.348 305.665 463.348 304.64H462.348C462.348 305.895 462.77 306.985 463.597 307.76C464.42 308.531 465.594 308.94 467.008 308.94V307.94ZM463.348 304.64C463.348 303.746 463.566 303.068 463.919 302.538C464.274 302.005 464.789 301.589 465.431 301.26C466.737 300.591 468.48 300.317 470.231 300.096L470.106 299.104C468.377 299.323 466.46 299.609 464.975 300.37C464.223 300.756 463.56 301.273 463.087 301.983C462.611 302.697 462.348 303.574 462.348 304.64H463.348ZM470.226 300.097C473.664 299.697 474.085 299.612 475.354 299.104L474.983 298.176C473.852 298.628 473.553 298.703 470.111 299.103L470.226 300.097ZM474.668 298.64V303.56H475.668V298.64H474.668ZM487.302 311V311.5H487.802V311H487.302ZM498.902 311H498.402V311.5H498.902V311ZM502.502 311V311.5H503.002V311H502.502ZM501.462 290.56L501.911 290.34L501.911 290.34L501.462 290.56ZM487.302 290.56H486.802V292.222L487.719 290.836L487.302 290.56ZM487.302 287.44H487.802V286.94H487.302V287.44ZM483.742 287.44V286.94H483.242V287.44H483.742ZM483.742 311H483.242V311.5H483.742V311ZM487.802 311V297.72H486.802V311H487.802ZM487.802 297.72C487.802 294.202 489.088 292.46 490.419 291.571C491.787 290.658 493.297 290.58 493.822 290.58V289.58C493.226 289.58 491.476 289.662 489.864 290.739C488.216 291.84 486.802 293.918 486.802 297.72H487.802ZM493.822 290.58C495.028 290.58 495.885 290.815 496.501 291.185C497.112 291.552 497.525 292.074 497.809 292.721C498.393 294.055 498.402 295.847 498.402 297.72H499.402C499.402 295.913 499.41 293.885 498.725 292.319C498.373 291.516 497.834 290.818 497.016 290.328C496.203 289.84 495.155 289.58 493.822 289.58V290.58ZM498.402 297.72V311H499.402V297.72H498.402ZM498.902 311.5H502.502V310.5H498.902V311.5ZM503.002 311V297.72H502.002V311H503.002ZM503.002 297.72C503.002 294.121 502.847 292.255 501.911 290.34L501.012 290.78C501.837 292.465 502.002 294.119 502.002 297.72H503.002ZM501.911 290.34C500.95 288.376 498.58 286.3 494.702 286.3V287.3C498.183 287.3 500.213 289.144 501.012 290.78L501.911 290.34ZM494.702 286.3C491.982 286.3 488.801 287.388 486.885 290.284L487.719 290.836C489.402 288.292 492.221 287.3 494.702 287.3V286.3ZM487.802 290.56V287.44H486.802V290.56H487.802ZM487.302 286.94H483.742V287.94H487.302V286.94ZM483.242 287.44V311H484.242V287.44H483.242ZM483.742 311.5H487.302V310.5H483.742V311.5ZM524.346 311H523.846V311.5H524.346V311ZM527.946 311V311.5H528.446V311H527.946ZM527.946 278H528.446V277.5H527.946V278ZM524.346 278V277.5H523.846V278H524.346ZM524.346 290.6L523.952 290.907L524.846 292.057V290.6H524.346ZM524.346 307.88H524.846V306.441L523.954 307.57L524.346 307.88ZM524.346 311.5H527.946V310.5H524.346V311.5ZM528.446 311V278H527.446V311H528.446ZM527.946 277.5H524.346V278.5H527.946V277.5ZM523.846 278V290.6H524.846V278H523.846ZM524.741 290.293C522.689 287.655 519.985 286.3 516.666 286.3V287.3C519.668 287.3 522.084 288.505 523.952 290.907L524.741 290.293ZM516.666 286.3C513.504 286.3 510.725 287.581 508.744 289.857C506.767 292.128 505.606 295.361 505.606 299.24H506.606C506.606 295.559 507.706 292.572 509.498 290.513C511.287 288.459 513.789 287.3 516.666 287.3V286.3ZM505.606 299.24C505.606 303.099 506.767 306.323 508.745 308.589C510.726 310.859 513.504 312.14 516.666 312.14V311.14C513.789 311.14 511.287 309.981 509.498 307.931C507.706 305.877 506.606 302.901 506.606 299.24H505.606ZM516.666 312.14C519.984 312.14 522.687 310.786 524.739 308.19L523.954 307.57C522.086 309.934 519.669 311.14 516.666 311.14V312.14ZM523.846 307.88V311H524.846V307.88H523.846ZM524.046 299.24C524.046 302.774 522.972 304.908 521.621 306.164C520.259 307.429 518.551 307.86 517.186 307.86V308.86C518.742 308.86 520.714 308.371 522.302 306.896C523.9 305.412 525.046 302.986 525.046 299.24H524.046ZM517.186 307.86C514.483 307.86 512.767 306.682 511.706 305.043C510.626 303.376 510.206 301.202 510.206 299.24H509.206C509.206 301.318 509.646 303.704 510.867 305.587C512.105 307.498 514.13 308.86 517.186 308.86V307.86ZM510.206 299.24C510.206 297.278 510.626 295.104 511.706 293.437C512.767 291.798 514.483 290.62 517.186 290.62V289.62C514.13 289.62 512.105 290.982 510.867 292.893C509.646 294.776 509.206 297.162 509.206 299.24H510.206ZM517.186 290.62C518.553 290.62 520.261 291.042 521.622 292.302C522.972 293.552 524.046 295.686 524.046 299.24H525.046C525.046 295.474 523.9 293.048 522.301 291.568C520.712 290.098 518.739 289.62 517.186 289.62V290.62ZM543.126 299.24C543.126 307.319 548.833 312.14 555.266 312.14V311.14C549.379 311.14 544.126 306.761 544.126 299.24H543.126ZM555.266 312.14C561.661 312.14 567.366 307.277 567.366 299.24H566.366C566.366 306.723 561.111 311.14 555.266 311.14V312.14ZM567.366 299.24C567.366 291.122 561.66 286.3 555.226 286.3V287.3C561.112 287.3 566.366 291.678 566.366 299.24H567.366ZM555.226 286.3C548.873 286.3 543.126 291.081 543.126 299.24H544.126C544.126 291.639 549.419 287.3 555.226 287.3V286.3ZM547.726 299.24C547.726 295.901 548.841 293.765 550.304 292.458C551.781 291.14 553.665 290.62 555.266 290.62V289.62C553.468 289.62 551.332 290.2 549.638 291.712C547.932 293.235 546.726 295.659 546.726 299.24H547.726ZM555.266 290.62C556.866 290.62 558.739 291.148 560.206 292.471C561.661 293.783 562.766 295.92 562.766 299.24H563.766C563.766 295.68 562.571 293.257 560.876 291.729C559.193 290.212 557.067 289.62 555.266 289.62V290.62ZM562.766 299.24C562.766 302.56 561.661 304.696 560.202 306.008C558.73 307.331 556.847 307.86 555.226 307.86V308.86C557.046 308.86 559.182 308.269 560.87 306.752C562.571 305.224 563.766 302.8 563.766 299.24H562.766ZM555.226 307.86C553.648 307.86 551.774 307.332 550.3 306.008C548.84 304.696 547.726 302.558 547.726 299.24H546.726C546.726 302.802 547.932 305.224 549.632 306.752C551.319 308.268 553.445 308.86 555.226 308.86V307.86ZM574.666 287.44H574.166V287.94H574.666V287.44ZM578.706 281.4L578.644 281.896L579.159 281.961L579.204 281.444L578.706 281.4ZM578.986 278.2L579.484 278.244L579.524 277.79L579.075 277.708L578.986 278.2ZM571.106 287.44V287.94H571.606V287.44H571.106ZM567.986 287.44V286.94H567.486V287.44H567.986ZM567.986 290.76H567.486V291.26H567.986V290.76ZM571.106 290.76H571.606V290.26H571.106V290.76ZM571.106 311H570.606V311.5H571.106V311ZM574.666 311V311.5H575.166V311H574.666ZM574.666 290.76V290.26H574.166V290.76H574.666ZM579.026 290.76V291.26H579.526V290.76H579.026ZM579.026 287.44H579.526V286.94H579.026V287.44ZM575.166 287.44V284.64H574.166V287.44H575.166ZM575.166 284.64C575.166 284.204 575.167 283.811 575.208 283.453C575.249 283.097 575.326 282.812 575.457 282.588C575.69 282.191 576.192 281.82 577.546 281.82V280.82C576.02 280.82 575.082 281.249 574.594 282.082C574.366 282.473 574.263 282.911 574.214 283.339C574.165 283.764 574.166 284.216 574.166 284.64H575.166ZM577.546 281.82C578.035 281.82 578.33 281.857 578.644 281.896L578.768 280.904C578.442 280.863 578.097 280.82 577.546 280.82V281.82ZM579.204 281.444L579.484 278.244L578.488 278.156L578.208 281.356L579.204 281.444ZM579.075 277.708C578.638 277.629 577.997 277.5 577.146 277.5V278.5C577.895 278.5 578.453 278.611 578.896 278.692L579.075 277.708ZM577.146 277.5C575.573 277.5 574.353 277.802 573.413 278.318C572.47 278.836 571.838 279.553 571.42 280.334C570.598 281.87 570.606 283.654 570.606 284.64H571.606C571.606 283.626 571.614 282.09 572.302 280.806C572.639 280.177 573.139 279.609 573.895 279.195C574.654 278.778 575.699 278.5 577.146 278.5V277.5ZM570.606 284.64V287.44H571.606V284.64H570.606ZM571.106 286.94H567.986V287.94H571.106V286.94ZM567.486 287.44V290.76H568.486V287.44H567.486ZM567.986 291.26H571.106V290.26H567.986V291.26ZM570.606 290.76V311H571.606V290.76H570.606ZM571.106 311.5H574.666V310.5H571.106V311.5ZM575.166 311V290.76H574.166V311H575.166ZM574.666 291.26H579.026V290.26H574.666V291.26ZM579.526 290.76V287.44H578.526V290.76H579.526ZM579.026 286.94H574.666V287.94H579.026V286.94ZM611.133 311V311.5H611.633V311H611.133ZM621.693 311H621.193V311.5H621.693V311ZM625.293 311V311.5H625.793V311H625.293ZM624.813 291.84L624.332 291.976L624.332 291.977L624.813 291.84ZM610.533 291.2L610.07 291.389L610.462 292.346L610.969 291.445L610.533 291.2ZM597.133 290.6H596.633V292.251L597.549 290.877L597.133 290.6ZM597.133 287.44H597.633V286.94H597.133V287.44ZM593.533 287.44V286.94H593.033V287.44H593.533ZM593.533 311H593.033V311.5H593.533V311ZM597.133 311V311.5H597.633V311H597.133ZM607.573 311H607.073V311.5H607.573V311ZM611.633 311V297.96H610.633V311H611.633ZM611.633 297.96C611.633 294.377 612.788 292.582 613.996 291.663C615.229 290.725 616.618 290.62 617.213 290.62V289.62C616.527 289.62 614.877 289.735 613.39 290.867C611.877 292.018 610.633 294.143 610.633 297.96H611.633ZM617.213 290.62C618.249 290.62 618.981 290.871 619.51 291.253C620.041 291.637 620.411 292.184 620.666 292.849C621.187 294.206 621.193 295.937 621.193 297.44H622.193C622.193 295.983 622.199 294.054 621.6 292.491C621.295 291.696 620.824 290.968 620.096 290.442C619.365 289.914 618.417 289.62 617.213 289.62V290.62ZM621.193 297.44V311H622.193V297.44H621.193ZM621.693 311.5H625.293V310.5H621.693V311.5ZM625.793 311V297.04H624.793V311H625.793ZM625.793 297.04C625.793 294.556 625.714 293.175 625.294 291.703L624.332 291.977C624.711 293.305 624.793 294.564 624.793 297.04H625.793ZM625.294 291.704C624.635 289.366 623.281 287.999 621.833 287.229C620.401 286.467 618.902 286.3 617.933 286.3V287.3C618.804 287.3 620.125 287.453 621.363 288.111C622.585 288.761 623.751 289.914 624.332 291.976L625.294 291.704ZM617.933 286.3C614.081 286.3 611.609 288.266 610.097 290.955L610.969 291.445C612.336 289.014 614.504 287.3 617.933 287.3V286.3ZM610.996 291.011C609.068 286.298 604.795 286.3 603.893 286.3V287.3C604.751 287.3 608.398 287.302 610.07 291.389L610.996 291.011ZM603.893 286.3C599.422 286.3 597.372 289.34 596.717 290.323L597.549 290.877C598.174 289.94 599.963 287.3 603.893 287.3V286.3ZM597.633 290.6V287.44H596.633V290.6H597.633ZM597.133 286.94H593.533V287.94H597.133V286.94ZM593.033 287.44V311H594.033V287.44H593.033ZM593.533 311.5H597.133V310.5H593.533V311.5ZM597.633 311V297.2H596.633V311H597.633ZM597.633 297.2C597.633 294.52 598.518 292.886 599.618 291.915C600.734 290.931 602.128 290.58 603.213 290.58V289.58C601.937 289.58 600.292 289.989 598.957 291.165C597.608 292.354 596.633 294.28 596.633 297.2H597.633ZM603.213 290.58C604.131 290.58 604.8 290.797 605.298 291.14C605.798 291.485 606.165 291.985 606.433 292.615C606.978 293.9 607.073 295.634 607.073 297.4H608.073C608.073 295.646 607.988 293.72 607.353 292.225C607.031 291.465 606.558 290.795 605.865 290.317C605.171 289.838 604.295 289.58 603.213 289.58V290.58ZM607.073 297.4V311H608.073V297.4H607.073ZM607.573 311.5H611.133V310.5H607.573V311.5ZM634.386 279.48H634.886V278.98H634.386V279.48ZM630.186 279.48V278.98H629.686V279.48H630.186ZM630.186 283.88H629.686V284.38H630.186V283.88ZM634.386 283.88V284.38H634.886V283.88H634.386ZM634.106 287.44H634.606V286.94H634.106V287.44ZM630.466 287.44V286.94H629.966V287.44H630.466ZM630.466 311H629.966V311.5H630.466V311ZM634.106 311V311.5H634.606V311H634.106ZM634.386 278.98H630.186V279.98H634.386V278.98ZM629.686 279.48V283.88H630.686V279.48H629.686ZM630.186 284.38H634.386V283.38H630.186V284.38ZM634.886 283.88V279.48H633.886V283.88H634.886ZM634.106 286.94H630.466V287.94H634.106V286.94ZM629.966 287.44V311H630.966V287.44H629.966ZM630.466 311.5H634.106V310.5H630.466V311.5ZM634.606 311V287.44H633.606V311H634.606ZM642.858 311V311.5H643.358V311H642.858ZM650.458 290.12L650.45 290.62L650.958 290.628V290.12H650.458ZM650.458 286.8H650.958V286.3H650.458V286.8ZM642.858 290.56H642.358V292.233L643.276 290.834L642.858 290.56ZM642.858 287.44H643.358V286.94H642.858V287.44ZM639.298 287.44V286.94H638.798V287.44H639.298ZM639.298 311H638.798V311.5H639.298V311ZM643.358 311V297.72H642.358V311H643.358ZM643.358 297.72C643.358 295.19 643.961 293.423 645.091 292.294C646.22 291.165 647.964 290.581 650.45 290.62L650.466 289.62C647.831 289.579 645.776 290.195 644.384 291.586C642.994 292.977 642.358 295.05 642.358 297.72H643.358ZM650.958 290.12V286.8H649.958V290.12H650.958ZM650.458 286.3C648.924 286.3 645.113 286.212 642.44 290.286L643.276 290.834C645.642 287.228 648.951 287.3 650.458 287.3V286.3ZM643.358 290.56V287.44H642.358V290.56H643.358ZM642.858 286.94H639.298V287.94H642.858V286.94ZM638.798 287.44V311H639.798V287.44H638.798ZM639.298 311.5H642.858V310.5H639.298V311.5ZM655.045 292.32L654.547 292.365L654.618 293.164L655.304 292.747L655.045 292.32ZM663.725 296.4L663.783 296.897L663.784 296.896L663.725 296.4ZM668.365 308.08L668.865 308.068L668.836 306.842L667.999 307.739L668.365 308.08ZM669.005 311L668.557 311.224L668.696 311.5H669.005V311ZM672.765 311V311.5H673.541L673.22 310.793L672.765 311ZM670.285 289.76L670.664 289.434L670.663 289.433L670.285 289.76ZM654.725 288.76L654.479 288.325L654.198 288.483L654.227 288.805L654.725 288.76ZM668.325 303.56L668.767 303.792L668.825 303.683V303.56H668.325ZM663.325 299.6L663.267 299.103L663.262 299.104L663.325 299.6ZM668.325 298.64H668.825V297.901L668.139 298.176L668.325 298.64ZM655.304 292.747C656.408 292.077 658.828 290.62 662.325 290.62V289.62C658.541 289.62 655.922 291.203 654.785 291.893L655.304 292.747ZM662.325 290.62C663.774 290.62 665.16 290.892 666.165 291.456C667.149 292.008 667.745 292.819 667.745 293.96H668.745C668.745 292.381 667.88 291.272 666.654 290.584C665.449 289.908 663.875 289.62 662.325 289.62V290.62ZM667.745 293.96C667.745 294.396 667.678 294.667 667.575 294.85C667.478 295.023 667.322 295.167 667.039 295.294C666.744 295.427 666.336 295.531 665.766 295.627C665.199 295.722 664.51 295.803 663.666 295.904L663.784 296.896C664.619 296.797 665.335 296.713 665.931 296.613C666.524 296.514 667.035 296.393 667.45 296.206C667.877 296.013 668.221 295.742 668.447 295.34C668.667 294.948 668.745 294.484 668.745 293.96H667.745ZM663.666 295.903C661.642 296.142 658.742 296.477 656.351 297.673C655.146 298.275 654.049 299.105 653.254 300.269C652.457 301.437 651.985 302.91 651.985 304.76H652.985C652.985 303.09 653.408 301.818 654.08 300.833C654.755 299.845 655.703 299.115 656.798 298.567C659.007 297.463 661.727 297.138 663.783 296.897L663.666 295.903ZM651.985 304.76C651.985 306.684 652.599 308.537 653.925 309.912C655.256 311.292 657.255 312.14 659.925 312.14V311.14C657.474 311.14 655.754 310.368 654.645 309.218C653.531 308.063 652.985 306.476 652.985 304.76H651.985ZM659.925 312.14C663.331 312.14 666.388 310.931 668.73 308.421L667.999 307.739C665.862 310.029 663.078 311.14 659.925 311.14V312.14ZM667.865 308.092C667.885 308.981 667.979 309.612 668.112 310.105C668.246 310.602 668.415 310.939 668.557 311.224L669.452 310.776C669.314 310.501 669.184 310.238 669.077 309.845C668.97 309.448 668.884 308.899 668.865 308.068L667.865 308.092ZM669.005 311.5H672.765V310.5H669.005V311.5ZM673.22 310.793C673.021 310.355 672.818 309.911 672.66 309.275C672.502 308.636 672.385 307.788 672.385 306.56H671.385C671.385 307.852 671.508 308.784 671.689 309.515C671.871 310.249 672.109 310.765 672.309 311.207L673.22 310.793ZM672.385 306.56V295.76H671.385V306.56H672.385ZM672.385 295.76C672.385 293.359 672.274 291.306 670.664 289.434L669.906 290.086C671.255 291.654 671.385 293.361 671.385 295.76H672.385ZM670.663 289.433C669.291 287.846 667.461 287.068 665.872 286.684C664.282 286.299 662.892 286.3 662.365 286.3V287.3C662.877 287.3 664.168 287.301 665.637 287.656C667.109 288.012 668.719 288.714 669.906 290.087L670.663 289.433ZM662.365 286.3C658.161 286.3 655.432 287.786 654.479 288.325L654.971 289.195C655.857 288.694 658.409 287.3 662.365 287.3V286.3ZM654.227 288.805L654.547 292.365L655.543 292.275L655.223 288.715L654.227 288.805ZM667.882 303.328C666.264 306.414 662.735 307.94 660.165 307.94V308.94C663.035 308.94 666.946 307.266 668.767 303.792L667.882 303.328ZM660.165 307.94C658.939 307.94 658.033 307.589 657.436 307.03C656.843 306.475 656.505 305.665 656.505 304.64H655.505C655.505 305.895 655.926 306.985 656.753 307.76C657.577 308.531 658.75 308.94 660.165 308.94V307.94ZM656.505 304.64C656.505 303.746 656.722 303.068 657.075 302.538C657.431 302.005 657.945 301.589 658.588 301.26C659.893 300.591 661.636 300.317 663.387 300.096L663.262 299.104C661.533 299.323 659.617 299.609 658.132 300.37C657.379 300.756 656.716 301.273 656.243 301.983C655.767 302.697 655.505 303.574 655.505 304.64H656.505ZM663.382 300.097C666.821 299.697 667.242 299.612 668.51 299.104L668.139 298.176C667.008 298.628 666.709 298.703 663.267 299.103L663.382 300.097ZM667.825 298.64V303.56H668.825V298.64H667.825ZM694.738 306.28H695.238V305.369L694.469 305.858L694.738 306.28ZM693.738 292.16L693.42 292.546L693.998 293.022L694.216 292.306L693.738 292.16ZM694.738 288.88L695.216 289.026L695.325 288.667L695.012 288.462L694.738 288.88ZM694.738 310.04L694.977 310.479L695.238 310.337V310.04H694.738ZM694.469 305.858C693.608 306.406 691.389 307.86 687.898 307.86V308.86C691.686 308.86 694.108 307.274 695.006 306.702L694.469 305.858ZM687.898 307.86C685.135 307.86 683.088 306.943 681.728 305.444C680.361 303.938 679.638 301.789 679.638 299.24H678.638C678.638 301.971 679.414 304.382 680.988 306.116C682.567 307.857 684.901 308.86 687.898 308.86V307.86ZM679.638 299.24C679.638 296.273 680.598 294.122 682.069 292.711C683.545 291.295 685.583 290.58 687.818 290.58V289.58C685.373 289.58 683.071 290.365 681.377 291.989C679.678 293.618 678.638 296.047 678.638 299.24H679.638ZM687.818 290.58C691.046 290.58 692.774 292.014 693.42 292.546L694.056 291.774C693.341 291.186 691.389 289.58 687.818 289.58V290.58ZM694.216 292.306L695.216 289.026L694.26 288.734L693.26 292.014L694.216 292.306ZM695.012 288.462C692.727 286.966 690.391 286.3 687.658 286.3V287.3C690.205 287.3 692.349 287.914 694.464 289.298L695.012 288.462ZM687.658 286.3C684.094 286.3 680.932 287.597 678.662 289.899C676.391 292.201 675.038 295.482 675.038 299.4H676.038C676.038 295.718 677.305 292.699 679.374 290.601C681.443 288.503 684.342 287.3 687.658 287.3V286.3ZM675.038 299.4C675.038 302.879 676.099 306.069 678.251 308.395C680.409 310.726 683.62 312.14 687.818 312.14V311.14C683.856 311.14 680.927 309.814 678.985 307.715C677.037 305.611 676.038 302.681 676.038 299.4H675.038ZM687.818 312.14C691.848 312.14 694.052 310.984 694.977 310.479L694.498 309.601C693.664 310.056 691.627 311.14 687.818 311.14V312.14ZM695.238 310.04V306.28H694.238V310.04H695.238ZM706.035 307.72H706.535V307.22H706.035V307.72ZM702.275 278H702.775V277.5H702.275V278ZM698.635 278V277.5H698.135V278H698.635ZM706.035 311V311.5H706.535V311H706.035ZM706.035 307.22H704.195V308.22H706.035V307.22ZM704.195 307.22C703.316 307.22 703.05 306.985 702.941 306.808C702.873 306.697 702.826 306.548 702.801 306.343C702.776 306.135 702.775 305.906 702.775 305.64H701.775C701.775 305.894 701.774 306.185 701.809 306.465C701.844 306.747 701.917 307.053 702.089 307.332C702.46 307.935 703.154 308.22 704.195 308.22V307.22ZM702.775 305.64V278H701.775V305.64H702.775ZM702.275 277.5H698.635V278.5H702.275V277.5ZM698.135 278V305.76H699.135V278H698.135ZM698.135 305.76C698.135 306.98 698.12 308.455 698.866 309.598C699.651 310.799 701.161 311.5 703.835 311.5V310.5C701.309 310.5 700.219 309.841 699.704 309.052C699.15 308.205 699.135 307.06 699.135 305.76H698.135ZM703.835 311.5H706.035V310.5H703.835V311.5ZM706.535 311V307.72H705.535V311H706.535ZM728.521 300.52V301.02H729.021V300.52H728.521ZM727.401 293.16L726.937 293.347L726.938 293.349L727.401 293.16ZM726.641 310.12L726.844 310.577L727.141 310.445V310.12H726.641ZM726.641 306.28H727.141V305.406L726.388 305.849L726.641 306.28ZM710.801 300.52V300.02H710.278L710.302 300.543L710.801 300.52ZM710.841 297.32L710.342 297.287L710.307 297.82H710.841V297.32ZM724.881 297.32V297.82H725.421L725.38 297.282L724.881 297.32ZM729.021 300.52C729.021 298.924 728.986 295.712 727.864 292.971L726.938 293.349C727.977 295.888 728.021 298.916 728.021 300.52H729.021ZM727.865 292.973C725.684 287.562 721.089 286.3 718.081 286.3V287.3C720.833 287.3 724.959 288.438 726.937 293.347L727.865 292.973ZM718.081 286.3C711.671 286.3 706.781 291.501 706.781 299.36H707.781C707.781 291.939 712.332 287.3 718.081 287.3V286.3ZM706.781 299.36C706.781 302.006 707.405 305.194 709.29 307.733C711.193 310.297 714.339 312.14 719.241 312.14V311.14C714.624 311.14 711.789 309.423 710.093 307.137C708.378 304.826 707.781 301.874 707.781 299.36H706.781ZM719.241 312.14C723.138 312.14 725.73 311.072 726.844 310.577L726.438 309.663C725.392 310.128 722.945 311.14 719.241 311.14V312.14ZM727.141 310.12V306.28H726.141V310.12H727.141ZM726.388 305.849C725.056 306.632 722.989 307.86 719.241 307.86V308.86C723.254 308.86 725.507 307.528 726.895 306.711L726.388 305.849ZM719.241 307.86C716.447 307.86 714.529 307.015 713.282 305.714C712.029 304.405 711.397 302.574 711.301 300.497L710.302 300.543C710.406 302.786 711.094 304.875 712.56 306.406C714.034 307.945 716.236 308.86 719.241 308.86V307.86ZM710.801 301.02H728.521V300.02H710.801V301.02ZM711.34 297.353C711.605 293.3 714.339 290.62 717.921 290.62V289.62C713.743 289.62 710.637 292.78 710.342 297.287L711.34 297.353ZM717.921 290.62C719.136 290.62 720.648 290.967 721.899 291.966C723.137 292.953 724.172 294.618 724.383 297.358L725.38 297.282C725.151 294.302 724.005 292.367 722.523 291.184C721.055 290.013 719.307 289.62 717.921 289.62V290.62ZM724.881 296.82H710.841V297.82H724.881V296.82ZM745.926 288.28L746.407 288.415L746.521 288.01L746.142 287.829L745.926 288.28ZM738.806 300.48L738.947 300L738.942 299.999L738.806 300.48ZM731.446 306.68L731.675 306.236L731.182 305.981L730.98 306.498L731.446 306.68ZM730.246 309.76L729.78 309.578L729.621 309.988L730.006 310.199L730.246 309.76ZM740.686 297.68L740.838 297.204L740.834 297.202L740.686 297.68ZM745.006 291.56L744.758 291.994L745.314 292.312L745.487 291.695L745.006 291.56ZM746.142 287.829C745.203 287.38 742.92 286.3 739.726 286.3V287.3C742.692 287.3 744.809 288.3 745.71 288.731L746.142 287.829ZM739.726 286.3C737.401 286.3 735.208 286.932 733.583 288.167C731.946 289.411 730.906 291.255 730.906 293.6H731.906C731.906 291.585 732.786 290.029 734.188 288.963C735.604 287.888 737.57 287.3 739.726 287.3V286.3ZM730.906 293.6C730.906 296.086 731.918 297.694 733.432 298.794C734.906 299.865 736.843 300.445 738.67 300.961L738.942 299.999C737.089 299.475 735.326 298.935 734.02 297.986C732.754 297.066 731.906 295.754 731.906 293.6H730.906ZM738.665 300.96C739.845 301.306 741.02 301.648 741.909 302.208C742.766 302.748 743.306 303.456 743.306 304.56H744.306C744.306 303.024 743.506 302.032 742.443 301.362C741.411 300.712 740.087 300.334 738.947 300L738.665 300.96ZM743.306 304.56C743.306 305.389 743.038 305.981 742.64 306.422C742.233 306.873 741.665 307.192 741.036 307.413C739.768 307.857 738.385 307.86 737.966 307.86V308.86C738.387 308.86 739.924 308.863 741.366 308.357C742.091 308.103 742.826 307.709 743.383 307.092C743.949 306.464 744.306 305.631 744.306 304.56H743.306ZM737.966 307.86C734.885 307.86 732.971 306.903 731.675 306.236L731.217 307.124C732.561 307.817 734.647 308.86 737.966 308.86V307.86ZM730.98 306.498L729.78 309.578L730.712 309.942L731.912 306.862L730.98 306.498ZM730.006 310.199C733.561 312.142 737.148 312.14 737.886 312.14V311.14C737.184 311.14 733.81 311.138 730.486 309.321L730.006 310.199ZM737.886 312.14C740.041 312.14 742.519 311.701 744.477 310.535C746.461 309.353 747.906 307.421 747.906 304.52H746.906C746.906 307.019 745.691 308.647 743.965 309.675C742.213 310.719 739.931 311.14 737.886 311.14V312.14ZM747.906 304.52C747.906 301.984 746.796 300.343 745.336 299.245C743.907 298.171 742.144 297.619 740.838 297.204L740.534 298.156C741.868 298.581 743.465 299.089 744.735 300.045C745.976 300.977 746.906 302.336 746.906 304.52H747.906ZM740.834 297.202C738.6 296.512 737.257 296.083 736.451 295.553C736.069 295.301 735.836 295.042 735.691 294.741C735.543 294.433 735.466 294.037 735.466 293.48H734.466C734.466 294.123 734.554 294.682 734.79 295.174C735.03 295.673 735.403 296.059 735.901 296.387C736.855 297.017 738.372 297.488 740.538 298.158L740.834 297.202ZM735.466 293.48C735.466 292.407 735.984 291.72 736.772 291.275C737.588 290.814 738.692 290.62 739.766 290.62V289.62C738.6 289.62 737.304 289.826 736.28 290.405C735.228 290.999 734.466 291.993 734.466 293.48H735.466ZM739.766 290.62C742.242 290.62 743.673 291.374 744.758 291.994L745.254 291.126C744.099 290.466 742.49 289.62 739.766 289.62V290.62ZM745.487 291.695L746.407 288.415L745.445 288.145L744.525 291.425L745.487 291.695ZM763.486 297.84L763.157 298.216L763.594 298.599L763.907 298.11L763.486 297.84ZM773.886 296.36L773.603 296.772L773.608 296.775L773.886 296.36ZM789.166 294.4L789.593 294.66L789.834 294.265L789.459 293.994L789.166 294.4ZM786.726 292.64L787.019 292.234L786.588 291.924L786.304 292.372L786.726 292.64ZM774.686 293.16L774.407 293.575L774.408 293.575L774.686 293.16ZM761.206 295.84L760.786 295.569L760.552 295.932L760.877 296.216L761.206 295.84ZM763.907 298.11C765.031 296.356 765.939 295.385 766.69 294.853C767.422 294.334 768.019 294.22 768.566 294.22V293.22C767.834 293.22 767.03 293.386 766.112 294.037C765.213 294.675 764.222 295.764 763.065 297.57L763.907 298.11ZM768.566 294.22C769.201 294.22 769.78 294.387 770.542 294.792C771.321 295.205 772.253 295.845 773.603 296.772L774.169 295.948C772.84 295.035 771.852 294.355 771.011 293.908C770.153 293.453 769.412 293.22 768.566 293.22V294.22ZM773.608 296.775C777.217 299.194 778.947 300.38 781.766 300.38V299.38C779.306 299.38 777.836 298.406 774.165 295.945L773.608 296.775ZM781.766 300.38C782.513 300.38 783.693 300.246 785.085 299.449C786.472 298.654 788.039 297.216 789.593 294.66L788.739 294.14C787.253 296.584 785.8 297.886 784.588 298.581C783.379 299.274 782.379 299.38 781.766 299.38V300.38ZM789.459 293.994L787.019 292.234L786.434 293.046L788.874 294.806L789.459 293.994ZM786.304 292.372C784.784 294.773 783.315 296.18 781.526 296.18V297.18C783.898 297.18 785.629 295.307 787.149 292.908L786.304 292.372ZM781.526 296.18C781.156 296.18 780.872 296.159 780.58 296.088C780.287 296.018 779.963 295.892 779.523 295.662C778.629 295.193 777.337 294.333 774.964 292.745L774.408 293.575C776.755 295.147 778.104 296.047 779.059 296.548C779.545 296.803 779.948 296.965 780.346 297.061C780.745 297.156 781.116 297.18 781.526 297.18V296.18ZM774.966 292.745C773.027 291.439 771.063 290.1 768.486 290.1V291.1C770.71 291.1 772.426 292.241 774.407 293.575L774.966 292.745ZM768.486 290.1C766.267 290.1 763.527 291.314 760.786 295.569L761.627 296.111C764.245 292.046 766.706 291.1 768.486 291.1V290.1ZM760.877 296.216L763.157 298.216L763.816 297.464L761.536 295.464L760.877 296.216ZM825.998 298.44H826.498V297.94H825.998V298.44ZM807.118 298.44V297.94H806.618V298.44H807.118ZM807.118 310.32H806.618V310.82H807.118V310.32ZM825.998 310.32V310.82H826.498V310.32H825.998ZM822.838 307.48V307.98H823.338V307.48H822.838ZM810.278 307.48H809.778V307.98H810.278V307.48ZM810.278 301.28V300.78H809.778V301.28H810.278ZM822.838 301.28H823.338V300.78H822.838V301.28ZM822.078 280.68L821.609 280.506L821.359 281.18H822.078V280.68ZM822.958 277.48L823.448 277.578L823.557 277.036L823.007 276.982L822.958 277.48ZM819.278 277.12L819.327 276.622L818.84 276.575L818.782 277.06L819.278 277.12ZM818.398 280.68V281.18H818.742L818.865 280.859L818.398 280.68ZM803.438 280.68V280.18H802.938V280.68H803.438ZM803.438 283.6H802.938V284.1H803.438V283.6ZM816.678 283.6L817.064 283.918L817.738 283.1H816.678V283.6ZM803.958 289L803.913 288.502L803.218 288.565L803.501 289.203L803.958 289ZM805.358 292.16L804.901 292.363L805.049 292.696L805.411 292.657L805.358 292.16ZM820.598 283.6V283.1H820.323L820.176 283.332L820.598 283.6ZM821.758 283.6L822.177 283.327L822.029 283.1H821.758V283.6ZM837.278 292.12L837.213 292.616L837.596 292.666L837.742 292.308L837.278 292.12ZM838.558 288.96L839.022 289.148L839.267 288.541L838.618 288.464L838.558 288.96ZM825.998 283.6V283.1H824.791L825.645 283.954L825.998 283.6ZM839.118 283.6V284.1H839.618V283.6H839.118ZM839.118 280.68H839.618V280.18H839.118V280.68ZM839.758 292.84H840.258V292.34H839.758V292.84ZM802.758 292.84V292.34H802.258V292.84H802.758ZM802.758 295.8H802.258V296.3H802.758V295.8ZM831.718 295.8H832.218V295.3H831.718V295.8ZM830.478 310.96L830.471 311.46H830.478V310.96ZM825.038 310.88L825.045 310.38L824.444 310.371L824.545 310.964L825.038 310.88ZM825.638 314.4L825.145 314.484L825.216 314.9H825.638V314.4ZM834.998 295.8V295.3H834.498V295.8H834.998ZM839.758 295.8V296.3H840.258V295.8H839.758ZM825.998 297.94H807.118V298.94H825.998V297.94ZM806.618 298.44V310.32H807.618V298.44H806.618ZM807.118 310.82H825.998V309.82H807.118V310.82ZM826.498 310.32V298.44H825.498V310.32H826.498ZM822.838 306.98H810.278V307.98H822.838V306.98ZM810.778 307.48V301.28H809.778V307.48H810.778ZM810.278 301.78H822.838V300.78H810.278V301.78ZM822.338 301.28V307.48H823.338V301.28H822.338ZM822.547 280.854C823.081 279.416 823.287 278.385 823.448 277.578L822.468 277.382C822.309 278.175 822.115 279.144 821.609 280.506L822.547 280.854ZM823.007 276.982L819.327 276.622L819.229 277.618L822.909 277.978L823.007 276.982ZM818.782 277.06C818.665 278.033 818.512 278.99 817.931 280.501L818.865 280.859C819.484 279.25 819.651 278.207 819.775 277.18L818.782 277.06ZM818.398 280.18H803.438V281.18H818.398V280.18ZM802.938 280.68V283.6H803.938V280.68H802.938ZM803.438 284.1H816.678V283.1H803.438V284.1ZM816.292 283.282C814.712 285.201 810.885 287.872 803.913 288.502L804.003 289.498C811.192 288.848 815.285 286.079 817.064 283.918L816.292 283.282ZM803.501 289.203L804.901 292.363L805.815 291.957L804.415 288.797L803.501 289.203ZM805.411 292.657C812.25 291.924 817.922 288.742 821.02 283.868L820.176 283.332C817.274 287.898 811.907 290.956 805.305 291.663L805.411 292.657ZM820.598 284.1H821.758V283.1H820.598V284.1ZM821.339 283.873C823.75 287.573 829.53 291.599 837.213 292.616L837.344 291.624C829.906 290.641 824.406 286.747 822.177 283.327L821.339 283.873ZM837.742 292.308L839.022 289.148L838.095 288.772L836.815 291.932L837.742 292.308ZM838.618 288.464C832.708 287.754 828.779 285.673 826.352 283.246L825.645 283.954C828.258 286.567 832.409 288.726 838.499 289.456L838.618 288.464ZM825.998 284.1H839.118V283.1H825.998V284.1ZM839.618 283.6V280.68H838.618V283.6H839.618ZM839.118 280.18H822.078V281.18H839.118V280.18ZM839.758 292.34H802.758V293.34H839.758V292.34ZM802.258 292.84V295.8H803.258V292.84H802.258ZM802.758 296.3H831.718V295.3H802.758V296.3ZM831.218 295.8V309.6H832.218V295.8H831.218ZM831.218 309.6C831.218 309.84 831.213 310.012 831.193 310.144C831.174 310.274 831.146 310.323 831.133 310.34C831.124 310.352 831.044 310.46 830.478 310.46V311.46C831.073 311.46 831.612 311.368 831.933 310.94C832.085 310.737 832.15 310.506 832.182 310.291C832.214 310.078 832.218 309.84 832.218 309.6H831.218ZM830.485 310.46L825.045 310.38L825.031 311.38L830.471 311.46L830.485 310.46ZM824.545 310.964L825.145 314.484L826.131 314.316L825.531 310.796L824.545 310.964ZM825.638 314.9H831.118V313.9H825.638V314.9ZM831.118 314.9C832.335 314.9 833.474 314.791 834.29 314.122C835.132 313.432 835.498 312.268 835.498 310.52H834.498C834.498 312.172 834.145 312.948 833.656 313.348C833.142 313.769 832.342 313.9 831.118 313.9V314.9ZM835.498 310.52V295.8H834.498V310.52H835.498ZM834.998 296.3H839.758V295.3H834.998V296.3ZM840.258 295.8V292.84H839.258V295.8H840.258ZM855.118 306.64L855.617 306.601L855.567 305.977L854.97 306.162L855.118 306.64ZM850.758 307.84H850.258V308.469L850.871 308.327L850.758 307.84ZM850.758 300.28V299.78H850.258V300.28H850.758ZM854.678 300.28V300.78H855.178V300.28H854.678ZM854.678 297.24H855.178V296.74H854.678V297.24ZM850.758 297.24H850.258V297.74H850.758V297.24ZM850.758 291.28V290.78H850.258V291.28H850.758ZM854.518 291.28V291.78H855.018V291.28H854.518ZM854.518 278.8H855.018V278.3H854.518V278.8ZM842.398 278.8V278.3H841.898V278.8H842.398ZM842.398 291.28H841.898V291.78H842.398V291.28ZM847.958 291.28H848.458V290.78H847.958V291.28ZM847.958 308.52L848.067 309.008L848.458 308.921V308.52H847.958ZM845.558 309H845.058V309.623L845.667 309.488L845.558 309ZM845.558 295.04H846.058V294.54H845.558V295.04ZM842.758 295.04V294.54H842.258V295.04H842.758ZM842.758 309.52L842.867 310.008L843.258 309.921V309.52H842.758ZM841.038 309.8L840.965 309.305L840.46 309.38L840.545 309.883L841.038 309.8ZM841.598 313.12L841.105 313.203L841.19 313.708L841.693 313.611L841.598 313.12ZM855.358 309.68L855.509 310.157L855.888 310.037L855.857 309.641L855.358 309.68ZM851.558 288.48V288.98H852.058V288.48H851.558ZM845.358 288.48H844.858V288.98H845.358V288.48ZM845.358 281.64V281.14H844.858V281.64H845.358ZM851.558 281.64H852.058V281.14H851.558V281.64ZM872.998 290.12L872.958 289.622L872.498 289.658V290.12H872.998ZM875.678 306.64L875.208 306.811L875.409 307.365L875.923 307.076L875.678 306.64ZM878.598 305L878.843 305.436L879.229 305.219L879.06 304.809L878.598 305ZM875.998 289.88H876.498V289.338L875.958 289.382L875.998 289.88ZM868.438 277.2H868.938V276.7H868.438V277.2ZM865.198 277.2V276.7H864.698V277.2H865.198ZM865.198 282.6V283.1H865.698V282.6H865.198ZM855.718 282.6V282.1H855.218V282.6H855.718ZM855.718 285.68H855.218V286.18H855.718V285.68ZM862.078 285.68H862.578V285.18H862.078V285.68ZM854.158 311.8L853.874 311.389L853.4 311.716L853.791 312.139L854.158 311.8ZM856.518 314.36L856.151 314.699L856.462 315.036L856.824 314.755L856.518 314.36ZM862.958 306.04L863.427 306.215L863.427 306.214L862.958 306.04ZM865.078 285.68V285.18H864.578V285.68H865.078ZM868.438 285.68H868.938V285.18H868.438V285.68ZM862.878 310.96V310.46H862.309L862.382 311.024L862.878 310.96ZM863.318 314.36L862.822 314.424L862.879 314.86H863.318V314.36ZM871.438 285.68V285.18H870.938V285.68H871.438ZM878.598 285.68V286.18H879.098V285.68H878.598ZM878.598 282.6H879.098V282.1H878.598V282.6ZM868.438 282.6H867.938V283.1H868.438V282.6ZM857.118 305.16L856.9 305.61L857.355 305.831L857.57 305.373L857.118 305.16ZM860.158 290.24L860.658 290.25L860.667 289.802L860.223 289.744L860.158 290.24ZM857.398 289.88L857.463 289.384L856.917 289.313L856.898 289.863L857.398 289.88ZM854.238 303.76L853.8 303.519L853.547 303.98L854.02 304.21L854.238 303.76ZM854.97 306.162C853.812 306.522 852.706 306.877 850.646 307.353L850.871 308.327C852.97 307.843 854.105 307.478 855.266 307.118L854.97 306.162ZM851.258 307.84V300.28H850.258V307.84H851.258ZM850.758 300.78H854.678V299.78H850.758V300.78ZM855.178 300.28V297.24H854.178V300.28H855.178ZM854.678 296.74H850.758V297.74H854.678V296.74ZM851.258 297.24V291.28H850.258V297.24H851.258ZM850.758 291.78H854.518V290.78H850.758V291.78ZM855.018 291.28V278.8H854.018V291.28H855.018ZM854.518 278.3H842.398V279.3H854.518V278.3ZM841.898 278.8V291.28H842.898V278.8H841.898ZM842.398 291.78H847.958V290.78H842.398V291.78ZM847.458 291.28V308.52H848.458V291.28H847.458ZM847.85 308.032C847.678 308.07 847.177 308.168 846.662 308.269C846.157 308.368 845.638 308.47 845.45 308.512L845.667 309.488C845.839 309.45 846.339 309.352 846.854 309.251C847.359 309.152 847.879 309.05 848.067 309.008L847.85 308.032ZM846.058 309V295.04H845.058V309H846.058ZM845.558 294.54H842.758V295.54H845.558V294.54ZM842.258 295.04V309.52H843.258V295.04H842.258ZM842.65 309.032C842.312 309.107 842.054 309.144 840.965 309.305L841.111 310.295C842.182 310.136 842.485 310.093 842.867 310.008L842.65 309.032ZM840.545 309.883L841.105 313.203L842.091 313.037L841.531 309.717L840.545 309.883ZM841.693 313.611C845.625 312.849 850.285 311.804 855.509 310.157L855.208 309.203C850.032 310.836 845.411 311.871 841.503 312.629L841.693 313.611ZM855.857 309.641L855.617 306.601L854.62 306.679L854.86 309.719L855.857 309.641ZM851.558 287.98H845.358V288.98H851.558V287.98ZM845.858 288.48V281.64H844.858V288.48H845.858ZM845.358 282.14H851.558V281.14H845.358V282.14ZM851.058 281.64V288.48H852.058V281.64H851.058ZM872.498 290.12C872.498 294.557 873.222 301.339 875.208 306.811L876.148 306.469C874.214 301.141 873.498 294.483 873.498 290.12H872.498ZM875.923 307.076L878.843 305.436L878.353 304.564L875.433 306.204L875.923 307.076ZM879.06 304.809C876.74 299.185 876.498 292.428 876.498 289.88H875.498C875.498 292.452 875.737 299.375 878.136 305.191L879.06 304.809ZM875.958 289.382L872.958 289.622L873.038 290.618L876.038 290.378L875.958 289.382ZM868.438 276.7H865.198V277.7H868.438V276.7ZM864.698 277.2V282.6H865.698V277.2H864.698ZM865.198 282.1H855.718V283.1H865.198V282.1ZM855.218 282.6V285.68H856.218V282.6H855.218ZM855.718 286.18H862.078V285.18H855.718V286.18ZM861.578 285.68V293.68H862.578V285.68H861.578ZM861.578 293.68C861.578 299.93 860.293 303.896 858.71 306.516C857.128 309.136 855.224 310.456 853.874 311.389L854.442 312.211C855.813 311.264 857.868 309.844 859.566 307.034C861.263 304.224 862.578 300.07 862.578 293.68H861.578ZM853.791 312.139L856.151 314.699L856.886 314.021L854.526 311.461L853.791 312.139ZM856.824 314.755C858.438 313.505 861.615 311.073 863.427 306.215L862.49 305.865C860.781 310.447 857.798 312.735 856.212 313.965L856.824 314.755ZM863.427 306.214C865.458 300.731 865.578 295.3 865.578 293.84H864.578C864.578 295.26 864.458 300.549 862.489 305.866L863.427 306.214ZM865.578 293.84V285.68H864.578V293.84H865.578ZM865.078 286.18H868.438V285.18H865.078V286.18ZM867.938 285.68V309.56H868.938V285.68H867.938ZM867.938 309.56C867.938 310.111 867.863 310.254 867.809 310.307C867.748 310.367 867.564 310.46 866.918 310.46V311.46C867.552 311.46 868.128 311.393 868.508 311.023C868.893 310.646 868.938 310.089 868.938 309.56H867.938ZM866.918 310.46H862.878V311.46H866.918V310.46ZM862.382 311.024L862.822 314.424L863.814 314.296L863.374 310.896L862.382 311.024ZM863.318 314.86H868.158V313.86H863.318V314.86ZM868.158 314.86C869.048 314.86 869.753 314.675 870.304 314.358C870.857 314.039 871.226 313.604 871.469 313.151C871.944 312.265 871.938 311.299 871.938 310.96H870.938C870.938 311.301 870.932 312.035 870.587 312.679C870.42 312.991 870.175 313.278 869.805 313.491C869.434 313.705 868.908 313.86 868.158 313.86V314.86ZM871.938 310.96V285.68H870.938V310.96H871.938ZM871.438 286.18H878.598V285.18H871.438V286.18ZM879.098 285.68V282.6H878.098V285.68H879.098ZM878.598 282.1H868.438V283.1H878.598V282.1ZM868.938 282.6V277.2H867.938V282.6H868.938ZM857.57 305.373C860.54 299.067 860.618 292.289 860.658 290.25L859.658 290.23C859.618 292.271 859.536 298.853 856.666 304.947L857.57 305.373ZM860.223 289.744L857.463 289.384L857.333 290.376L860.093 290.736L860.223 289.744ZM856.898 289.863C856.661 296.998 855.316 300.759 853.8 303.519L854.676 304.001C856.28 301.081 857.656 297.162 857.898 289.897L856.898 289.863ZM854.02 304.21L856.9 305.61L857.337 304.71L854.457 303.31L854.02 304.21ZM902.918 312.4L902.504 312.68L902.718 312.997L903.08 312.873L902.918 312.4ZM895.638 304.72L896.091 304.933L896.091 304.933L895.638 304.72ZM900.918 283.52L900.972 283.023L900.484 282.97L900.422 283.457L900.918 283.52ZM900.918 309.44L900.765 308.964L900.131 309.168L900.504 309.72L900.918 309.44ZM897.438 283.64L897.934 283.703L898.017 283.052L897.367 283.145L897.438 283.64ZM892.958 302.12L893.416 302.32L893.418 302.316L892.958 302.12ZM903.08 312.873C908.726 310.937 912.025 307.863 913.905 304.653C915.778 301.453 916.218 298.158 916.218 295.8H915.218C915.218 298.042 914.798 301.147 913.042 304.147C911.291 307.137 908.19 310.063 902.756 311.927L903.08 312.873ZM916.218 295.8C916.218 291.096 914.521 287.072 911.576 284.225C908.632 281.38 904.472 279.74 899.598 279.74V280.74C904.244 280.74 908.145 282.3 910.881 284.945C913.615 287.588 915.218 291.344 915.218 295.8H916.218ZM899.598 279.74C889.293 279.74 881.538 287.233 881.538 297.48H882.538C882.538 287.807 889.824 280.74 899.598 280.74V279.74ZM881.538 297.48C881.538 301.192 882.593 304.487 884.144 306.868C885.68 309.226 887.773 310.78 889.878 310.78V309.78C888.263 309.78 886.436 308.554 884.982 306.322C883.543 304.113 882.538 301.008 882.538 297.48H881.538ZM889.878 310.78C890.431 310.78 891.35 310.742 892.464 309.947C893.555 309.168 894.791 307.695 896.091 304.933L895.186 304.507C893.925 307.185 892.782 308.492 891.883 309.133C891.006 309.758 890.325 309.78 889.878 309.78V310.78ZM896.091 304.933C899.569 297.531 900.855 287.975 901.414 283.583L900.422 283.457C899.861 287.865 898.587 297.269 895.186 304.507L896.091 304.933ZM900.865 284.017C905.73 284.54 908.381 286.772 909.835 289.183C911.305 291.621 911.578 294.289 911.578 295.68H912.578C912.578 294.191 912.291 291.319 910.691 288.667C909.075 285.987 906.146 283.58 900.972 283.023L900.865 284.017ZM911.578 295.68C911.578 298.137 910.959 300.783 909.313 303.144C907.669 305.502 904.976 307.613 900.765 308.964L901.071 309.916C905.46 308.507 908.347 306.278 910.133 303.716C911.917 301.157 912.578 298.303 912.578 295.68H911.578ZM900.504 309.72L902.504 312.68L903.332 312.12L901.332 309.16L900.504 309.72ZM896.942 283.577C895.668 293.613 893.759 298.968 892.498 301.924L893.418 302.316C894.717 299.272 896.649 293.827 897.934 283.703L896.942 283.577ZM892.5 301.92C892.076 302.888 891.601 303.973 891.078 304.817C890.817 305.239 890.559 305.574 890.311 305.799C890.06 306.027 889.865 306.1 889.718 306.1V307.1C890.211 307.1 890.636 306.853 890.982 306.541C891.33 306.226 891.644 305.801 891.928 305.343C892.496 304.427 893 303.272 893.416 302.32L892.5 301.92ZM889.718 306.1C889.473 306.1 889.11 305.958 888.673 305.569C888.246 305.188 887.797 304.612 887.388 303.857C886.569 302.349 885.938 300.181 885.938 297.6H884.938C884.938 300.339 885.607 302.671 886.509 304.333C886.959 305.163 887.475 305.84 888.008 306.315C888.531 306.782 889.123 307.1 889.718 307.1V306.1ZM885.938 297.6C885.938 291.558 889.682 285.253 897.509 284.135L897.367 283.145C888.954 284.347 884.938 291.162 884.938 297.6H885.938ZM920.718 279.04V278.54H920.218V279.04H920.718ZM920.718 313.48H920.218V313.98H920.718V313.48ZM954.558 313.48V313.98H955.058V313.48H954.558ZM954.558 279.04H955.058V278.54H954.558V279.04ZM951.278 310.48V310.98H951.778V310.48H951.278ZM923.998 310.48H923.498V310.98H923.998V310.48ZM923.998 282.04V281.54H923.498V282.04H923.998ZM951.278 282.04H951.778V281.54H951.278V282.04ZM949.078 285H949.578V284.5H949.078V285ZM926.438 285V284.5H925.938V285H926.438ZM926.438 287.76H925.938V288.26H926.438V287.76ZM935.718 287.76H936.218V287.26H935.718V287.76ZM935.718 294.16V294.66H936.218V294.16H935.718ZM927.118 294.16V293.66H926.618V294.16H927.118ZM927.118 296.84H926.618V297.34H927.118V296.84ZM935.718 296.84H936.218V296.34H935.718V296.84ZM935.718 304.56V305.06H936.218V304.56H935.718ZM925.638 304.56V304.06H925.138V304.56H925.638ZM925.638 307.4H925.138V307.9H925.638V307.4ZM949.638 307.4V307.9H950.138V307.4H949.638ZM949.638 304.56H950.138V304.06H949.638V304.56ZM938.838 304.56H938.338V305.06H938.838V304.56ZM938.838 296.84V296.34H938.338V296.84H938.838ZM948.278 296.84V297.34H948.778V296.84H948.278ZM948.278 294.16H948.778V293.66H948.278V294.16ZM938.838 294.16H938.338V294.66H938.838V294.16ZM938.838 287.76V287.26H938.338V287.76H938.838ZM949.078 287.76V288.26H949.578V287.76H949.078ZM946.998 302.52L947.222 302.967L947.65 302.753L947.455 302.316L946.998 302.52ZM943.678 297.32L944.074 297.015L943.831 296.698L943.468 296.866L943.678 297.32ZM940.918 298.6L940.708 298.146L940.134 298.413L940.525 298.91L940.918 298.6ZM944.198 303.92L943.741 304.123L943.954 304.601L944.422 304.367L944.198 303.92ZM920.218 279.04V313.48H921.218V279.04H920.218ZM920.718 313.98H954.558V312.98H920.718V313.98ZM955.058 313.48V279.04H954.058V313.48H955.058ZM954.558 278.54H920.718V279.54H954.558V278.54ZM951.278 309.98H923.998V310.98H951.278V309.98ZM924.498 310.48V282.04H923.498V310.48H924.498ZM923.998 282.54H951.278V281.54H923.998V282.54ZM950.778 282.04V310.48H951.778V282.04H950.778ZM949.078 284.5H926.438V285.5H949.078V284.5ZM925.938 285V287.76H926.938V285H925.938ZM926.438 288.26H935.718V287.26H926.438V288.26ZM935.218 287.76V294.16H936.218V287.76H935.218ZM935.718 293.66H927.118V294.66H935.718V293.66ZM926.618 294.16V296.84H927.618V294.16H926.618ZM927.118 297.34H935.718V296.34H927.118V297.34ZM935.218 296.84V304.56H936.218V296.84H935.218ZM935.718 304.06H925.638V305.06H935.718V304.06ZM925.138 304.56V307.4H926.138V304.56H925.138ZM925.638 307.9H949.638V306.9H925.638V307.9ZM950.138 307.4V304.56H949.138V307.4H950.138ZM949.638 304.06H938.838V305.06H949.638V304.06ZM939.338 304.56V296.84H938.338V304.56H939.338ZM938.838 297.34H948.278V296.34H938.838V297.34ZM948.778 296.84V294.16H947.778V296.84H948.778ZM948.278 293.66H938.838V294.66H948.278V293.66ZM939.338 294.16V287.76H938.338V294.16H939.338ZM938.838 288.26H949.078V287.26H938.838V288.26ZM949.578 287.76V285H948.578V287.76H949.578ZM947.455 302.316C946.426 300.012 944.466 297.524 944.074 297.015L943.282 297.625C943.691 298.156 945.57 300.548 946.542 302.724L947.455 302.316ZM943.468 296.866L940.708 298.146L941.128 299.054L943.888 297.774L943.468 296.866ZM940.525 298.91C942.133 300.949 943.593 303.79 943.741 304.123L944.655 303.717C944.483 303.33 942.983 300.411 941.311 298.29L940.525 298.91ZM944.422 304.367L947.222 302.967L946.775 302.073L943.975 303.473L944.422 304.367Z" fill="url(#paint4_linear_511_336)" fill-opacity="0.3"/>
</g>
<defs>
<filter id="filter0_b_511_336" x="-6.99844" y="-31.4004" width="1384.67" height="308.2" filterUnits="userSpaceOnUse" color-interpolation-filters="sRGB">
<feFlood flood-opacity="0" result="BackgroundImageFix"/>
<feGaussianBlur in="BackgroundImageFix" stdDeviation="16"/>
<feComposite in2="SourceAlpha" operator="in" result="effect1_backgroundBlur_511_336"/>
<feBlend mode="normal" in="SourceGraphic" in2="effect1_backgroundBlur_511_336" result="shape"/>
</filter>
<filter id="filter1_b_511_336" x="374.682" y="245.12" width="611.876" height="101.28" filterUnits="userSpaceOnUse" color-interpolation-filters="sRGB">
<feFlood flood-opacity="0" result="BackgroundImageFix"/>
<feGaussianBlur in="BackgroundImageFix" stdDeviation="16"/>
<feComposite in2="SourceAlpha" operator="in" result="effect1_backgroundBlur_511_336"/>
<feBlend mode="normal" in="SourceGraphic" in2="effect1_backgroundBlur_511_336" result="shape"/>
</filter>
<linearGradient id="paint0_linear_511_336" x1="686" y1="34.5" x2="682" y2="182.5" gradientUnits="userSpaceOnUse">
<stop stop-color="#0BABF8"/>
<stop offset="1" stop-color="#B3D4E3" stop-opacity="0.25"/>
</linearGradient>
<linearGradient id="paint1_linear_511_336" x1="713.096" y1="286.5" x2="729.551" y2="1.05187" gradientUnits="userSpaceOnUse">
<stop stop-color="white"/>
<stop offset="1" stop-color="white" stop-opacity="0.4"/>
</linearGradient>
<linearGradient id="paint2_linear_511_336" x1="681.5" y1="1" x2="584.639" y2="223.035" gradientUnits="userSpaceOnUse">
<stop stop-color="white"/>
<stop offset="1" stop-color="white" stop-opacity="0"/>
</linearGradient>
<linearGradient id="paint3_linear_511_336" x1="694.796" y1="317.387" x2="695.533" y2="278.894" gradientUnits="userSpaceOnUse">
<stop stop-color="white"/>
<stop offset="1" stop-color="white" stop-opacity="0.4"/>
</linearGradient>
<linearGradient id="paint4_linear_511_336" x1="682" y1="279" x2="676.959" y2="313.805" gradientUnits="userSpaceOnUse">
<stop stop-color="white"/>
<stop offset="1" stop-color="white" stop-opacity="0"/>
<stop offset="1" stop-color="white" stop-opacity="0"/>
</linearGradient>
</defs>
</svg>
