<svg width="3388" height="300" viewBox="0 0 3388 300" fill="none" xmlns="http://www.w3.org/2000/svg">
<path d="M0 0.00289429H67.0125V150.001L185.823 0.00289429L272.716 0L385.736 0.00289429C443.265 0.00289429 480 46.5542 480 98.0709C480 149.588 440.906 187.139 386.294 187.139L478.436 300H391.544L253.721 126.002H382.828C396.231 126.002 409.078 115.398 409.078 95.7951C409.078 76.1917 396.231 65.5885 382.828 65.5885H220.764L153.905 149.996L272.724 300H185.832L67.0125 150.001V300H0V0.00289429Z" fill="#255078"/>
<path d="M642.4 78.6V221H663.8V174.8L688.6 151L738 221H763.8L704 136.6L763.8 78.6H736.6L663.8 150V78.6H642.4ZM799.198 221V78.6H777.798V221H799.198ZM893.888 161.4C888.488 177.4 884.088 190.4 881.088 200.6C877.688 189 873.488 176 868.288 161.4L838.488 78.6H815.888L868.888 221H893.288L945.288 78.6H923.088L893.888 161.4ZM1015.13 224.2C1059.13 224.2 1084.53 192.2 1084.53 149.8C1084.53 107.4 1059.13 75.4 1015.13 75.4C971.125 75.4 945.525 107.4 945.525 149.8C945.525 192.2 971.325 224.2 1015.13 224.2ZM1015.13 205C982.925 205 967.725 179.4 967.725 149.8C967.725 120.2 982.925 94.6 1015.13 94.6C1047.53 94.6 1062.33 120 1062.33 149.8C1062.33 179.4 1047.33 205 1015.13 205ZM1084.18 78.6V97.8H1131.38V221H1153.18V97.8H1200.38V78.6H1084.18ZM1269.71 224.2C1313.71 224.2 1339.11 192.2 1339.11 149.8C1339.11 107.4 1313.71 75.4 1269.71 75.4C1225.71 75.4 1200.11 107.4 1200.11 149.8C1200.11 192.2 1225.91 224.2 1269.71 224.2ZM1269.71 205C1237.51 205 1222.31 179.4 1222.31 149.8C1222.31 120.2 1237.51 94.6 1269.71 94.6C1302.11 94.6 1316.91 120 1316.91 149.8C1316.91 179.4 1301.91 205 1269.71 205ZM1411.11 224.2C1445.71 224.2 1466.51 208 1466.51 181.6C1466.51 159.8 1453.51 147.2 1420.71 140.2L1408.31 137.6C1394.51 134.6 1377.31 130.8 1377.31 113.6C1377.31 101 1387.11 93.6 1406.11 93.6C1430.71 93.6 1439.91 102.6 1441.31 120.4H1462.51C1461.91 93.4 1444.51 75.4 1405.91 75.4C1374.71 75.4 1355.51 90.6 1355.51 114C1355.51 138.2 1371.71 150.4 1399.91 156L1412.11 158.6C1436.11 164 1444.31 169.6 1444.31 182.2C1444.31 197.6 1432.51 206 1411.51 206C1386.11 206 1373.11 195.4 1372.71 174H1351.31C1351.51 207.4 1374.11 224.2 1411.11 224.2ZM1635.53 181.4C1634.93 166 1629.33 156.4 1615.13 152.4C1630.33 147.6 1639.13 135.4 1639.13 118C1639.13 93.4 1620.33 78.6 1590.13 78.6H1527.93V221H1549.33V162.4H1590.73C1606.93 162.4 1614.13 169 1614.93 187.6L1615.53 202.8C1615.73 211.2 1617.13 217.2 1619.73 221H1641.73C1639.13 216.8 1637.53 211 1636.93 203.6L1635.53 181.4ZM1549.33 144.6V97H1588.93C1606.73 97 1617.13 104.6 1617.13 120C1617.13 136 1606.73 144.6 1590.53 144.6H1549.33ZM1782.89 221L1726.49 78.6H1701.89L1646.29 221H1668.49L1682.29 184H1746.29L1760.29 221H1782.89ZM1692.09 157.6C1701.89 132 1709.09 112.6 1714.09 99.2C1721.29 119 1728.69 138.6 1736.29 157.6L1739.29 165.4H1689.09L1692.09 157.6ZM1817.78 221V78.6H1796.38V221H1817.78ZM1866.07 78.6H1844.67V221H1935.87V201.8H1866.07V78.6ZM2073.76 143.2C2067.56 167.2 2063.16 184.8 2060.56 195.8C2053.96 168.6 2049.76 151 2047.56 142.8L2030.36 78.6H2007.56L1990.36 142.8C1988.16 151 1983.96 168.6 1977.36 195.8C1974.76 184.8 1970.36 167.2 1964.16 143.2L1946.76 78.6H1924.56L1964.56 221H1988.56L2006.56 154.4C2011.56 135.8 2015.56 119.2 2018.96 105C2022.36 119.2 2026.36 135.8 2031.36 154.4L2049.36 221H2073.36L2113.36 78.6H2091.16L2073.76 143.2ZM2237.57 221L2181.17 78.6H2156.57L2100.97 221H2123.17L2136.97 184H2200.97L2214.97 221H2237.57ZM2146.77 157.6C2156.57 132 2163.77 112.6 2168.77 99.2C2175.97 119 2183.37 138.6 2190.97 157.6L2193.97 165.4H2143.77L2146.77 157.6ZM2303.06 108.4C2296.06 119.6 2288.66 131.8 2281.06 145C2278.46 140.4 2274.46 134 2269.46 125.6C2264.26 117.4 2260.66 111.6 2258.86 108.6L2240.06 78.6H2215.86L2270.06 164.2V221H2291.26V164.2L2345.26 78.6H2321.46L2303.06 108.4ZM2465.48 224.2C2499.68 224.2 2525.28 202.8 2528.68 168.4H2507.28C2504.28 190.8 2488.28 205.2 2465.48 205.2C2438.08 205.2 2420.48 184.2 2420.48 149.8C2420.48 115.4 2438.08 94.4 2465.48 94.4C2485.28 94.4 2500.68 104.4 2506.28 125.8H2527.88C2521.68 93.4 2498.28 75.4 2465.48 75.4C2421.68 75.4 2398.28 108.4 2398.28 149.8C2398.28 191 2421.88 224.2 2465.48 224.2ZM2612.27 224.2C2656.27 224.2 2681.67 192.2 2681.67 149.8C2681.67 107.4 2656.27 75.4 2612.27 75.4C2568.27 75.4 2542.67 107.4 2542.67 149.8C2542.67 192.2 2568.47 224.2 2612.27 224.2ZM2612.27 205C2580.07 205 2564.87 179.4 2564.87 149.8C2564.87 120.2 2580.07 94.6 2612.27 94.6C2644.67 94.6 2659.47 120 2659.47 149.8C2659.47 179.4 2644.47 205 2612.27 205ZM2790.62 152.4C2785.42 166.6 2780.42 180.8 2775.82 194.6C2772.62 185.2 2767.82 171.8 2761.22 154.4L2732.02 78.6H2702.42V221H2723.02V176.4C2723.02 146.6 2722.82 122.6 2722.22 104.8C2724.42 111.2 2728.22 122 2734.02 137.2L2766.62 221H2784.62L2816.82 137.2C2822.02 123.8 2826.02 112.8 2828.82 104.2C2828.22 122.2 2828.02 146.2 2828.02 176.4V221H2848.62V78.6H2818.82L2790.62 152.4ZM2875.52 78.6V221H2896.92V168.4H2936.12C2967.52 168.4 2984.92 150.8 2984.92 123.6C2984.92 96.2 2967.52 78.6 2936.12 78.6H2875.52ZM2896.92 149.6V97.4H2935.72C2953.52 97.4 2963.12 106.8 2963.12 123.6C2963.12 140.4 2953.52 149.6 2935.72 149.6H2896.92ZM3109 221L3052.6 78.6H3028L2972.4 221H2994.6L3008.4 184H3072.4L3086.4 221H3109ZM3018.2 157.6C3028 132 3035.2 112.6 3040.2 99.2C3047.4 119 3054.8 138.6 3062.4 157.6L3065.4 165.4H3015.2L3018.2 157.6ZM3218.09 121.8C3218.09 151.6 3218.29 175.6 3218.89 193.6C3211.49 180.4 3202.09 165 3191.09 147.6L3147.09 78.6H3122.49V221H3143.29V177.8C3143.29 148 3143.09 124 3142.49 106.2C3148.09 116.4 3157.29 131.6 3170.29 152L3214.09 221H3238.69V78.6H3218.09V121.8ZM3342.7 108.4C3335.7 119.6 3328.3 131.8 3320.7 145C3318.1 140.4 3314.1 134 3309.1 125.6C3303.9 117.4 3300.3 111.6 3298.5 108.6L3279.7 78.6H3255.5L3309.7 164.2V221H3330.9V164.2L3384.9 78.6H3361.1L3342.7 108.4Z" fill="#343434"/>
</svg>
