<svg width="505" height="300" viewBox="0 0 505 300" fill="none" xmlns="http://www.w3.org/2000/svg">
<path d="M0 0.00289429H67.0125V150.001L185.823 0.00289429L272.716 0L385.736 0.00289429C443.265 0.00289429 480 46.5542 480 98.0709C480 149.588 440.906 187.139 386.294 187.139L478.436 300H391.544L253.721 126.002H382.828C396.231 126.002 409.078 115.398 409.078 95.7951C409.078 76.1917 396.231 65.5885 382.828 65.5885H220.764L153.905 149.996L272.724 300H185.832L67.0125 150.001V300H0V0.00289429Z" fill="#255078"/>
<path d="M480 12.0248C480 18.9317 485.665 24 492.422 24C499.23 24 504.795 18.9317 504.795 12.0248C504.795 5.06832 499.28 0 492.422 0C485.615 0 480 5.06832 480 12.0248ZM492.422 21.5155C487.006 21.5155 482.634 17.5404 482.634 12.0248C482.634 6.45963 486.907 2.43478 492.422 2.43478C497.938 2.43478 502.161 6.45963 502.161 12.0248C502.161 17.5404 497.888 21.5155 492.422 21.5155ZM497.292 14.559C497.242 13.3168 496.745 12.4721 495.801 12.0745C497.043 11.528 497.64 10.5839 497.64 9.14286C497.64 6.80745 495.901 5.51553 493.118 5.51553H487.602V18.1863H490.087V13.2671H493.168C494.36 13.2671 494.708 13.6646 494.857 15.0559L494.957 16.3478C495.006 17.1925 495.205 17.8385 495.453 18.1863H498.037C497.689 17.6894 497.491 17.0932 497.441 16.3478L497.292 14.559ZM490.087 7.75155H493.019C494.36 7.75155 495.056 8.29814 495.056 9.44099C495.056 10.5839 494.41 11.1304 493.168 11.1304H490.087V7.75155Z" fill="#255078"/>
</svg>
